<svg xmlns="http://www.w3.org/2000/svg" viewBox="0 0 700 700"><defs><style>.fill{fill:#3573c3;}.bubble_content{fill:#fff;}</style></defs><path class="fill" d="M122.3,378.8a74.6,74.6,0,1,1,74.6,74.6,74.6,74.6,0,0,1-74.6-74.6ZM236.6,688.2c-1.9-11.3-9.7-19.5-18.7-19.5H175.8c-9.1,0-16.8,8-18.7,19.5-.6,3.3-1.2,6.6-2.1,9.8h83.5C237.8,694.8,237.1,691.5,236.6,688.2Zm66.5-80-7.2,4.5a66.94,66.94,0,0,0-31.1,56,65.87,65.87,0,0,0,6.8,29.2h18.8A109.62,109.62,0,0,0,303.1,669a54.36,54.36,0,0,1,.2-59.8Zm7.1-106.7a58.92,58.92,0,0,0-54.4-36.1H138a59.64,59.64,0,0,0-54.4,35.1L32,586.2A55,55,0,0,1,66,589a140.2,140.2,0,0,1,261.7,0,54.34,54.34,0,0,1,34-2.8Zm-35.3,60a110.39,110.39,0,0,0-156.1,0h0c-1.6,1.6-3.1,3.2-4.6,4.9l-8.8,9.9h183l-8.8-9.9c-1.5-1.7-3.1-3.4-4.7-4.9ZM90.7,608.2l-.2,1.1a54.55,54.55,0,0,1,.2,59.8A109.61,109.61,0,0,0,103.4,698h18.8A65.88,65.88,0,0,0,98,612.7ZM44.8,596.6a42.75,42.75,0,1,0,42.8,42.7,42.7,42.7,0,0,0-42.8-42.7Zm304.2,0a42.8,42.8,0,1,0,42.8,42.8A42.78,42.78,0,0,0,349,596.6ZM654.5,122.9v58.5H694v58.5H654.5v58.5H499.1v15.9c0,58.7-43.3,81.5-97.4,81.5H353c48.7,0,48.7-65.6,48.7-65.6V298.4H359a54.71,54.71,0,0,1-54.7-54.7h0V60.7A54.71,54.71,0,0,1,359,6H654.5V64.4H694v58.5Z"/><path class="bubble_content" d="M519.62,58.81V196H445.47a40.19,40.19,0,0,0-71.18,0h-7.52a5.85,5.85,0,0,1-5.84-5.84V58.81A5.85,5.85,0,0,1,366.77,53h147A5.79,5.79,0,0,1,519.62,58.81Zm85.83,78.8c-5.45-11.09-18.71-38-23.36-47.12a6,6,0,0,0-5.25-3.27H531.4v96.33A40.28,40.28,0,0,1,587.93,189a39.85,39.85,0,0,1,4.55,6.93H602a5.85,5.85,0,0,0,5.84-5.84V147.91A23.73,23.73,0,0,0,605.45,137.61ZM431.31,196a28.45,28.45,0,1,0,6.93,18.61A27.5,27.5,0,0,0,431.31,196Zm147,0a28.45,28.45,0,1,0,6.93,18.61A27.5,27.5,0,0,0,578.33,196Z"/></svg>