<svg xmlns="http://www.w3.org/2000/svg" viewBox="0 0 700 700"><defs><style>.fill{fill:#3573c3;}.bubble_content{fill:#fff;}</style></defs><title>Artboard 1</title><path class="fill" d="M655.2,565.3V447.4a17.88,17.88,0,0,0-17.9-17.9H557.7a74.58,74.58,0,1,0-109.3-.1H368.8a17.88,17.88,0,0,0-17.9,17.9V564.8L338.1,586a55.28,55.28,0,0,1,12.8-1.5,53,53,0,0,1,11.9,1.4V447.4a6,6,0,0,1,6-6H469.2v11.9H374.7v11.9h94.5V496l5,3.6,7.3,5.2,7,5,7-5,.3-.2.3.2,7,5,7-5,.3-.2.3.2,7,5,7-5,7.3-5.2,5-3.6V465.3h94.5V453.4H536.7V441.5H637.1a6,6,0,0,1,6,6h0V586a52.92,52.92,0,0,1,11.9-1.3,54.44,54.44,0,0,1,12.7,1.5ZM525,489.9l-7.3,5.2-7.3-5.2-7.3,5.2-7.3-5.2-7.3,5.2-7.3-5.2V427.5H525Zm76.9,161.4a52.92,52.92,0,0,1-1.3-11.9H405.7a52.92,52.92,0,0,1-1.3,11.9,54,54,0,0,1-10.6,22.1V698H612.5V673.4a54,54,0,0,1-10.6-22.1Zm-239-53a42.9,42.9,0,0,0-6-1.3,40.32,40.32,0,0,0-6-.4,42.69,42.69,0,1,0,42.4,48.7,40.32,40.32,0,0,0,.4-6A42.75,42.75,0,0,0,362.9,598.3Zm315.5,5.1a42.47,42.47,0,0,0-23.2-6.8,40.32,40.32,0,0,0-6,.4,42.85,42.85,0,0,0-36.8,42.4,40.32,40.32,0,0,0,.4,6,42.74,42.74,0,1,0,65.6-42ZM395.7,60.7V243.6A54.71,54.71,0,0,1,341,298.3H298.2v31.8s0,65.6,48.7,65.6H298.2c-54.2,0-97.4-22.9-97.4-81.5V298.3H6.2V239.8H45.8V181.3H6.2V122.8H45.8V64.4H6.2V6H341A54.71,54.71,0,0,1,395.7,60.7Z"/><path class="bubble_content" d="M233.86,75.56H212.28V56.95h21.58Zm43.56-18.61H239.7V81.5H206.34V56.95H168.62a5.85,5.85,0,0,0-5.84,5.84v80.39a5.85,5.85,0,0,0,5.84,5.84h108.8a5.85,5.85,0,0,0,5.84-5.84V62.79A5.79,5.79,0,0,0,277.42,56.95ZM171.09,155H149.51v18.61h21.58Zm43.66,0H177v24.55H143.67V155H106a5.85,5.85,0,0,0-5.84,5.84v80.39A5.85,5.85,0,0,0,106,247h108.8a5.85,5.85,0,0,0,5.84-5.84h0V160.8A5.85,5.85,0,0,0,214.75,155Zm82.76,0H275.93v18.61h21.58Zm43.66,0H303.46v24.55H270.09V155H232.37a5.85,5.85,0,0,0-5.84,5.84v80.39a5.85,5.85,0,0,0,5.84,5.84h108.8a5.85,5.85,0,0,0,5.84-5.84h0V160.8A5.85,5.85,0,0,0,341.17,155Z"/></svg>