<svg xmlns="http://www.w3.org/2000/svg" width="392" height="276" viewBox="0 0 392 276">
  <g fill="none" fill-rule="evenodd">
    <g transform="translate(0 82)">
      <path fill="#FFF" d="M29.3076558,89.1064035 C29.2921674,89.2612872 29.2779698,89.4006826 29.2457023,89.5400779 C29.2921674,89.2303105 29.3231442,88.920543 29.3541209,88.6120663 C29.3373419,88.7811477 29.3231442,88.9360314 29.3076558,89.1064035 M102.288865,75.5385895 C100.925888,74.6557523 99.4390047,74.0207291 97.8746791,73.6644965 L94.5446791,68.12095 L94.5446791,37.4526826 C94.5446791,34.8661244 92.4537488,32.7751942 89.8671907,32.7751942 L69.0972837,32.7751942 C72.3188651,29.3057988 74.3013767,24.6437988 74.3013767,19.532636 C74.3013767,8.78370581 65.5814233,0.0637523256 54.832493,0.0637523256 C44.0680744,0.0637523256 35.3636093,8.78370581 35.3636093,19.532636 C35.3636093,24.6437988 37.3306326,29.3057988 40.552214,32.7751942 L19.782307,32.7751942 C17.2112372,32.7751942 15.1048186,34.8661244 15.1048186,37.4526826 L15.1048186,68.2125895 L11.8045047,73.6490081 C10.2427605,74.0207291 8.73909767,74.6557523 7.37612093,75.5385895 C3.27170233,78.1883919 0.824539535,82.6787291 0.824539535,87.5420779 C0.824539535,95.4256593 7.23672558,101.822357 15.1048186,101.822357 C19.534493,101.822357 23.6234233,99.7469151 26.2719349,96.4324035 L26.2719349,102.861369 L83.3788535,102.861369 L83.3788535,96.4324035 C86.0415628,99.7624035 90.130493,101.822357 94.5446791,101.822357 C102.414063,101.822357 108.823667,95.4256593 108.823667,87.5420779 C108.823667,82.6787291 106.377795,78.1883919 102.288865,75.5385895"/>
      <path fill="#3573C3" d="M83.3599854,102.860852 L83.3599854,177.860852 C83.3596009,177.914746 83.3599854,177.968731 83.3599854,178.022806 C83.3599854,178.551992 83.3251406,179.072143 83.2515795,179.580678 C83.1780183,180.112445 83.0670313,180.633887 82.9186185,181.13855 C81.5725786,185.787643 77.2828024,189.184759 72.1993402,189.184759 C66.0356907,189.184759 61.0399857,184.187178 61.0399857,178.022806 C61.0399857,177.968731 61.0403702,177.914745 61.0411366,177.860852 L61.0399857,134.898612 C60.8226355,131.655034 58.1227575,129.091369 54.8241035,129.091369 C51.3833695,129.091369 48.5941035,131.880635 48.5941035,135.321369 L48.5800095,135.321369 L48.5800095,177.860852 C48.579625,177.914746 48.5800095,177.968731 48.5800095,178.022806 C48.5800095,178.551992 48.5451647,179.072143 48.4716036,179.580678 C48.3980424,180.112445 48.2870554,180.633887 48.1386426,181.13855 C46.7926027,185.787643 42.5028265,189.184759 37.4193643,189.184759 C31.2557148,189.184759 26.2600098,184.187178 26.2600098,178.022806 C26.2600098,177.968731 26.2603943,177.914745 26.2611607,177.860852 L26.2600817,102.860852 L26.2550267,96.4357593 C27.5844453,94.77205 28.5473058,92.8076081 29.0274453,90.6611779 C29.1423174,90.1513523 29.2275035,89.6299105 29.2855849,89.1033058 C29.3423756,88.5921895 29.3707709,88.0720384 29.3707709,87.5454337 L80.2474919,87.5454337 C80.2474919,88.0720384 80.2758872,88.5921895 80.3326779,89.1033058 C80.3907593,89.6299105 80.477236,90.1513523 80.5908174,90.6611779 C81.070957,92.8076081 82.0338174,94.77205 83.363236,96.4357593 L83.3599854,102.860852 Z M3.93241047,87.5454337 C3.93241047,83.6100965 5.9691314,80.1510267 9.04615465,78.1607709 C10.7873058,77.0365733 12.8640384,76.3834802 15.0930733,76.3834802 C15.62355,76.3834802 16.1424105,76.4196198 16.6509453,76.4931895 C17.1840035,76.5654686 17.7054453,76.6764686 18.2088174,76.8248988 C22.8579105,78.1710965 26.2550267,82.4626663 26.2550267,87.5454337 C26.2550267,88.0746198 26.2201779,88.5947709 26.1466081,89.1033058 C26.0730384,89.6350733 25.9620384,90.1565151 25.8136081,90.6611779 C24.4674105,95.3102709 20.1771314,98.7073872 15.0930733,98.7073872 C8.92870116,98.7073872 3.93241047,93.7098058 3.93241047,87.5454337 Z M83.363236,87.5454337 C83.363236,82.4626663 86.7603523,78.1710965 91.4094453,76.8248988 C91.9128174,76.6764686 92.4342593,76.5654686 92.9660267,76.4931895 C93.4758523,76.4196198 93.9947128,76.3834802 94.5238988,76.3834802 C96.7542244,76.3834802 98.830957,77.0365733 100.57598,78.1633523 C103.651713,80.1523174 105.685852,83.6100965 105.685852,87.5454337 C105.685852,93.7098058 100.689562,98.7073872 94.5238988,98.7073872 C89.4411314,98.7073872 85.1508523,95.3102709 83.8046547,90.6611779 C83.6562244,90.1565151 83.5452244,89.6350733 83.4716547,89.1033058 C83.3980849,88.5947709 83.363236,88.0746198 83.363236,87.5454337 Z M11.7875965,73.6549453 L15.0930733,68.217236 L15.0930733,37.4470035 C15.0930733,34.8681895 17.1891663,32.7733872 19.7666895,32.7733872 L40.5365965,32.7733872 C37.3137244,29.3014105 35.3402477,24.6484453 35.3402477,19.5347012 C35.3402477,8.78318953 44.0576198,0.0671081395 54.8091314,0.0671081395 C65.560643,0.0671081395 74.2780151,8.78318953 74.2780151,19.5347012 C74.2780151,24.6484453 72.3045384,29.3014105 69.0803756,32.7733872 L89.8515733,32.7733872 C92.4290965,32.7733872 94.5238988,34.8681895 94.5238988,37.4470035 L94.5238988,68.1178523 L97.8642244,73.6626895 C96.7929453,73.4058407 95.6739105,73.267736 94.5238988,73.267736 C93.9972942,73.267736 93.4784337,73.2974221 92.9660267,73.3542128 C92.4394221,73.4110035 91.9179802,73.4961895 91.4094453,73.6110616 L91.4094453,37.4470035 C91.4094453,36.5873988 90.7111779,35.8891314 89.8515733,35.8891314 L63.6349221,35.8891314 L63.6349221,39.0035849 L88.2937012,39.0035849 L88.2937012,42.1193291 L63.6349221,42.1193291 L63.6349221,50.1345616 L62.3364802,51.0690267 L60.4339919,52.4345849 L58.6166895,53.7433523 L56.8006779,52.4345849 L56.7154919,52.3752128 L56.6315965,52.4345849 L54.8117128,53.7433523 L52.9944105,52.4371663 L52.9092244,52.3752128 L52.8201663,52.4371663 L51.0041547,53.7407709 L49.188143,52.4371663 L47.2817826,51.0690267 L45.9833407,50.137143 L45.9833407,42.1193291 L21.3245616,42.1193291 L21.3245616,39.0035849 L45.9833407,39.0035849 L45.9833407,35.8891314 L19.7666895,35.8891314 C18.9070849,35.8891314 18.2088174,36.5873988 18.2088174,37.4470035 L18.2088174,73.6110616 C17.6989919,73.4961895 17.1788407,73.4110035 16.6509453,73.3542128 C16.1398291,73.2974221 15.6209686,73.267736 15.0930733,73.267736 C13.9572593,73.267736 12.84855,73.4032593 11.7875965,73.6549453 Z M49.0977942,32.2545267 L49.0977942,48.5379686 L51.0041547,49.9061081 L52.9092244,48.5379686 L54.8117128,49.9061081 L56.7154919,48.5379686 L58.6166895,49.9061081 L60.5204686,48.5379686 L60.5204686,32.2545267 L49.0977942,32.2545267 Z"/>
    </g>
    <g transform="translate(86)">
      <path fill="#3573C3" d="M0.998356977,14.3156767 L0.998356977,62.0779442 C0.998356977,69.9653977 7.38860116,76.3556419 15.274764,76.3556419 L26.4367174,76.3556419 L26.4367174,84.6612814 C26.4367174,84.6612814 26.4367174,101.794002 13.7168919,101.794002 L26.4367174,101.794002 C40.5788919,101.794002 51.8763686,95.8245256 51.8763686,80.509107 L51.8763686,76.3556419 L102.702752,76.3556419 L102.702752,61.0918512 L92.3707174,61.0918512 L92.3707174,45.8293512 L102.702752,45.8293512 L102.702752,30.5655605 L92.3707174,30.5655605 L92.3707174,15.3017698 L102.702752,15.3017698 L102.702752,0.0379790698 L15.274764,0.0379790698 C7.38860116,0.0379790698 0.998356977,6.42951395 0.998356977,14.3156767"/>
      <path fill="#FFF" d="M16.9493151,18.3296174 L16.9493151,56.5936407 C16.9493151,58.1373151 18.205164,59.3918733 19.7488384,59.3918733 L71.5432453,59.3918733 C73.0882105,59.3918733 74.3427686,58.1373151 74.3427686,56.5936407 L74.3427686,18.3296174 C74.3427686,16.785943 73.0882105,15.5300942 71.5432453,15.5300942 L53.5793151,15.5300942 L53.5793151,27.1954198 L37.7140593,27.1954198 L37.7140593,15.5300942 L19.7488384,15.5300942 C18.205164,15.5300942 16.9493151,16.785943 16.9493151,18.3296174 Z M40.5135826,24.3958965 L50.7785012,24.3958965 L50.7785012,15.5300942 L40.5135826,15.5300942 L40.5135826,24.3958965 Z"/>
    </g>
    <g transform="translate(204 2)">
      <path fill="#3573C3" d="M10.628052,31.2836763 L10.628052,46.8955376 L0.0618786127,46.8955376 L0.0618786127,62.5061156 L10.628052,62.5061156 L10.628052,78.1179769 L52.098422,78.1179769 L52.098422,82.3667746 C52.098422,98.0312486 63.6526879,104.13689 78.1186185,104.13689 L91.1267919,104.13689 C78.1186185,104.13689 78.1186185,86.614289 78.1186185,86.614289 L78.1186185,78.1179769 L89.5342948,78.1179769 C97.5994393,78.1179769 104.136249,71.5811676 104.136249,63.5160231 L104.136249,14.664474 C104.136249,6.59804624 97.5994393,0.0625202312 89.5342948,0.0625202312 L10.628052,0.0625202312 L10.628052,15.6730983 L0.0618786127,15.6730983 L0.0618786127,31.2836763 L10.628052,31.2836763 Z"/>
      <path fill="#FFF" d="M30.062163,57.1438532 C30.062163,61.3965006 33.5089376,64.8432751 37.761585,64.8432751 C42.0142324,64.8432751 45.4610069,61.3965006 45.4610069,57.1438532 C45.4610069,55.2138647 44.7526601,53.4506971 43.5759318,52.0994486 C42.169504,50.472304 40.0855272,49.4444312 37.761585,49.4444312 C35.4376428,49.4444312 33.3549491,50.472304 31.9485214,52.0994486 C30.7717931,53.4506971 30.062163,55.2138647 30.062163,57.1438532 M69.8874231,57.1438532 C69.8874231,61.3965006 73.3341977,64.8432751 77.5868451,64.8432751 C81.8407757,64.8432751 85.2862671,61.3965006 85.2862671,57.1438532 C85.2862671,55.2138647 84.576637,53.4506971 83.4011919,52.0994486 C81.9947642,50.472304 79.9107873,49.4444312 77.5868451,49.4444312 C75.2641861,49.4444312 73.1802092,50.472304 71.7724983,52.0994486 C70.5970532,53.4506971 69.8874231,55.2138647 69.8874231,57.1438532 M23.9565214,39.1002578 L23.9565214,50.5056682 C23.9565214,51.3859688 24.6712844,52.0994486 25.5490185,52.0994486 L28.1193422,52.0994486 C29.9402555,48.6295757 33.5782324,46.2581538 37.761585,46.2581538 C40.3832382,46.2581538 42.7854578,47.1872173 44.6654,48.7348012 L44.6654,22.629911 L32.3707064,22.629911 C31.7701514,22.629911 31.2196428,22.9661191 30.9488798,23.5025121 C29.6964405,25.9932751 26.1020936,33.2653792 24.614822,36.2809861 C24.1823711,37.157437 23.9565214,38.121148 23.9565214,39.1002578 M49.4441746,13.3367087 L89.2694347,13.3367087 C90.1471688,13.3367087 90.8619318,14.0501884 90.8619318,14.930489 L90.8619318,50.5056682 C90.8619318,51.3859688 90.1471688,52.0994486 89.2694347,52.0994486 L87.2303711,52.0994486 C85.4081746,48.6295757 81.7714809,46.2581538 77.5868451,46.2581538 C73.4022092,46.2581538 69.7655156,48.6295757 67.9446023,52.0994486 L47.8503942,52.0994486 L47.8503942,14.930489 C47.8503942,14.0501884 48.5651572,13.3367087 49.4441746,13.3367087"/>
      <g transform="translate(76 78)">
        <path fill="#3573C3" d="M55.9928529,40.2877966 C67.1181862,40.2877966 76.1367378,31.2689765 76.1367378,20.1439118 C76.1367378,9.018847 67.1181862,2.68585132e-05 55.9928529,2.68585132e-05 C44.8675195,2.68585132e-05 35.848968,9.018847 35.848968,20.1439118 C35.848968,31.2689765 44.8675195,40.2877966 55.9928529,40.2877966 Z M103.532421,81.1127367 L103.532421,90.5258398 L85.5372174,90.5258398 L85.5372174,106.372363 L84.5383493,106.372363 L84.4628769,106.595825 L84.4628769,184.246741 C84.4628769,184.935394 84.4290351,185.454569 84.35598,185.962195 C84.2818505,186.492382 84.1728049,187.012363 84.0248145,187.516228 C82.6813517,192.154425 78.3928529,195.542626 73.3214284,195.542626 C67.1721718,195.542626 62.1703109,190.557686 62.1703109,184.407355 L62.1703109,141.387269 C61.9017258,138.151893 59.2792606,135.594694 55.9882869,135.594694 C52.5552318,135.594694 49.7917594,138.376967 49.7917594,141.808948 L49.7785987,184.246741 C49.7785987,184.935394 49.7444884,185.454569 49.6711646,185.962195 C49.5981095,186.492382 49.4885267,187.012363 49.3402677,187.516228 C47.9978793,192.154425 43.7214668,195.542626 38.6503109,195.542626 C32.5010543,195.542626 27.5228289,190.557686 27.5228289,184.407355 L27.5228289,106.372363 L26.4484884,106.372363 L26.4484884,90.5258398 L8.45328453,90.5258398 L8.45328453,81.1127367 L25.3908001,53.0053026 C27.9966131,47.2299165 33.7446035,43.5234417 40.0807953,43.5234417 L71.9049104,43.5234417 C78.2411023,43.5234417 83.9890927,47.2299165 86.5949056,53.2738878 L103.532421,81.1127367 Z"/>
        <path fill="#FFF" d="M97.0863781,102.061598 C95.4071838,102.061598 93.8136682,101.700351 92.3743205,101.056284 C93.3428385,97.709176 93.8633565,94.1721784 93.8633565,90.5132432 C93.8633565,86.8537707 93.3425699,83.3165046 92.3740519,79.9691281 C93.8133996,79.3247923 95.4071838,78.9632767 97.0863781,78.9632767 C103.465275,78.9632767 108.635539,84.1362264 108.635539,90.5124374 C108.635539,96.8913343 103.465275,102.061598 97.0863781,102.061598 M78.5870399,110.009301 C78.0925747,109.428351 77.6365171,108.814365 77.2185987,108.172178 C75.3967857,105.377013 74.3393661,102.039037 74.3393661,98.453694 C74.3393661,91.293483 78.5591071,85.1195165 84.6465891,82.2808403 C84.66539,82.3463751 84.6812366,82.4129842 84.6997689,82.4787875 C83.1932749,84.7934542 82.3141958,87.5515549 82.3141958,90.5124374 C82.3141958,93.486212 83.2002582,96.2550561 84.7177641,98.5753631 C83.5542534,102.76744 81.4786275,106.660313 78.5870399,110.009301 M55.9928529,120.338816 C50.3909728,120.338816 45.2045939,118.906183 40.2024644,115.804025 C40.7023013,115.084485 41.669745,113.82509 42.1008241,113.037329 C43.6110783,110.275737 44.7055627,107.187008 45.2655627,103.78484 C45.769697,100.734788 47.8509632,98.5834206 50.3052941,98.5834206 L55.9928529,98.5834206 L61.6804116,98.5834206 C64.1347426,98.5834206 66.2160088,100.734788 66.720143,103.78484 C67.280143,107.187008 68.3746275,110.308236 69.8848817,113.06956 C70.3159608,113.85732 71.2834044,115.1006 71.7832414,115.820409 C66.7811119,118.922567 61.594733,120.338816 55.9928529,120.338816 M34.7671071,108.172178 C34.3491886,108.814365 33.8931311,109.428351 33.3986658,110.009301 C30.5070783,106.660313 28.4314524,102.76744 27.2679416,98.5753631 C28.7854476,96.2550561 29.67151,93.486212 29.67151,90.5124374 C29.67151,87.5515549 28.7924308,84.7934542 27.2859368,82.4787875 C27.3044692,82.4129842 27.3203157,82.3463751 27.3391167,82.2808403 C33.4265987,85.1195165 37.6463397,91.293483 37.6463397,98.453694 C37.6463397,102.039037 36.58892,105.377013 34.7671071,108.172178 M14.8993277,102.061598 C8.52043082,102.061598 3.35016703,96.8913343 3.35016703,90.5124374 C3.35016703,84.1362264 8.52043082,78.9632767 14.8993277,78.9632767 C16.5785219,78.9632767 18.1723061,79.3247923 19.6116538,79.9691281 C18.6431359,83.3165046 18.1223493,86.8537707 18.1223493,90.5132432 C18.1223493,94.1721784 18.6428673,97.709176 19.6113853,101.056284 C18.1720375,101.700351 16.5785219,102.061598 14.8993277,102.061598 M34.9124116,69.5354014 C40.5435675,63.903977 48.0301095,60.7722743 55.9928529,60.7722743 C63.9555963,60.7722743 71.4421383,63.9192863 77.0732941,69.5507108 C78.322215,70.7993631 79.4483924,71.9934926 80.4418888,73.6050034 L31.5438169,73.6050034 C32.5373133,71.9934926 33.6634908,70.7837851 34.9124116,69.5354014 M97.0863781,75.7402552 C95.049697,75.7402552 93.1080951,76.1544134 91.3413421,76.9032288 C85.8740231,62.7128019 72.1101095,52.6427396 55.9928529,52.6427396 C39.8755963,52.6427396 26.1116826,62.7128019 20.6443637,76.9032288 C18.8776107,76.1544134 16.9360088,75.7402552 14.8993277,75.7402552 C6.75314065,75.7402552 0.127145444,82.3689362 0.127145444,90.5124374 C0.127145444,98.6586245 6.75314065,105.28462 14.8993277,105.28462 C16.9357402,105.28462 18.8773421,104.870461 20.6440951,104.122183 C26.1111454,118.313147 39.8753277,128.383747 55.9928529,128.383747 C72.1103781,128.383747 85.8745603,118.313147 91.3416107,104.122183 C93.1083637,104.870461 95.0499656,105.28462 97.0863781,105.28462 C105.232565,105.28462 111.85856,98.6586245 111.85856,90.5124374 C111.85856,82.3689362 105.232565,75.7402552 97.0863781,75.7402552"/>
        <path fill="#3573C3" d="M97.0863781,78.9632767 C90.7074812,78.9632767 85.5372174,84.1362264 85.5372174,90.5124374 C85.5372174,96.8913343 90.7074812,102.061598 97.0863781,102.061598 C103.465275,102.061598 108.635539,96.8913343 108.635539,90.5124374 C108.635539,84.1362264 103.465275,78.9632767 97.0863781,78.9632767 M26.4484884,90.5124374 C26.4484884,96.8913343 21.2782246,102.061598 14.8993277,102.061598 C8.52043082,102.061598 3.35016703,96.8913343 3.35016703,90.5124374 C3.35016703,84.1362264 8.52043082,78.9632767 14.8993277,78.9632767 C21.2782246,78.9632767 26.4484884,84.1362264 26.4484884,90.5124374"/>
      </g>
    </g>
  </g>
</svg>
