<?xml version="1.0" encoding="UTF-8"?>
<svg width="457px" height="264px" viewBox="0 0 457 264" version="1.1" xmlns="http://www.w3.org/2000/svg" xmlns:xlink="http://www.w3.org/1999/xlink">
    <defs>
        <polygon id="path-1" points="0.535751445 0.606586127 175.136185 0.606586127 175.136185 76.9938347 0.535751445 76.9938347"></polygon>
        <polygon id="path-3" points="0.535751445 1.24307168 175.136185 1.24307168 175.136185 23.0683665 0.535751445 23.0683665"></polygon>
    </defs>
    <g id="TRANSROAD" stroke="none" stroke-width="1" fill="none" fill-rule="evenodd">
        <g id="T_01_LANDING_PAGE" transform="translate(-832.000000, -1968.000000)">
            <g id="03" transform="translate(0.000000, 1680.000000)">
                <g id="Group-4" transform="translate(832.000000, 288.000000)">
                    <g id="Page-1">
                        <path d="M175.618134,187.163973 C175.618134,229.59695 136.304773,263.995334 87.8093895,263.995334 C39.3140058,263.995334 0.000645348837,229.59695 0.000645348837,187.163973 L175.618134,187.163973 Z" id="Fill-1" fill="#D5D5D5"></path>
                        <path d="M175.618134,187.163973 C175.618134,193.22509 136.304773,198.140066 87.8093895,198.140066 C39.3140058,198.140066 0.000645348837,193.22509 0.000645348837,187.163973 C0.000645348837,181.101566 39.3140058,176.18788 87.8093895,176.18788 C136.304773,176.18788 175.618134,181.101566 175.618134,187.163973" id="Fill-3" fill="#EAEAEA"></path>
                        <path d="M62.3076558,171.106403 C62.2921674,171.261287 62.2779698,171.400683 62.2457023,171.540078 C62.2921674,171.23031 62.3231442,170.920543 62.3541209,170.612066 C62.3373419,170.781148 62.3231442,170.936031 62.3076558,171.106403 M135.288865,157.53859 C133.925888,156.655752 132.439005,156.020729 130.874679,155.664497 L127.544679,150.12095 L127.544679,119.452683 C127.544679,116.866124 125.453749,114.775194 122.867191,114.775194 L102.097284,114.775194 C105.318865,111.305799 107.301377,106.643799 107.301377,101.532636 C107.301377,90.7837058 98.5814233,82.0637523 87.832493,82.0637523 C77.0680744,82.0637523 68.3636093,90.7837058 68.3636093,101.532636 C68.3636093,106.643799 70.3306326,111.305799 73.552214,114.775194 L52.782307,114.775194 C50.2112372,114.775194 48.1048186,116.866124 48.1048186,119.452683 L48.1048186,150.21259 L44.8045047,155.649008 C43.2427605,156.020729 41.7390977,156.655752 40.3761209,157.53859 C36.2717023,160.188392 33.8245395,164.678729 33.8245395,169.542078 C33.8245395,177.425659 40.2367256,183.822357 48.1048186,183.822357 C52.534493,183.822357 56.6234233,181.746915 59.2719349,178.432403 L59.2719349,184.861369 L116.378853,184.861369 L116.378853,178.432403 C119.041563,181.762403 123.130493,183.822357 127.544679,183.822357 C135.414063,183.822357 141.823667,177.425659 141.823667,169.542078 C141.823667,164.678729 139.377795,160.188392 135.288865,157.53859" id="Fill-5" fill="#FFFFFF"></path>
                        <path d="M36.9324105,169.545434 C36.9324105,175.709806 41.9287012,180.707387 48.0930733,180.707387 C53.1771314,180.707387 57.4674105,177.310271 58.8136081,172.661178 C58.9620384,172.156515 59.0730384,171.635073 59.1466081,171.103306 C59.2201779,170.594771 59.2550267,170.07462 59.2550267,169.545434 C59.2550267,164.462666 55.8579105,160.171097 51.2088174,158.824899 C50.7054453,158.676469 50.1840035,158.565469 49.6509453,158.49319 C49.1424105,158.41962 48.62355,158.38348 48.0930733,158.38348 C45.8640384,158.38348 43.7873058,159.036573 42.0461547,160.160771 C38.9691314,162.151027 36.9324105,165.610097 36.9324105,169.545434 Z M116.363236,169.545434 C116.363236,170.07462 116.398085,170.594771 116.471655,171.103306 C116.545224,171.635073 116.656224,172.156515 116.804655,172.661178 C118.150852,177.310271 122.441131,180.707387 127.523899,180.707387 C133.689562,180.707387 138.685852,175.709806 138.685852,169.545434 C138.685852,165.610097 136.651713,162.152317 133.57598,160.163352 C131.830957,159.036573 129.754224,158.38348 127.523899,158.38348 C126.994713,158.38348 126.475852,158.41962 125.966027,158.49319 C125.434259,158.565469 124.912817,158.676469 124.409445,158.824899 C119.760352,160.171097 116.363236,164.462666 116.363236,169.545434 Z M59.2550267,178.435759 L59.2550267,184.860852 L116.363236,184.860852 L116.363236,178.435759 C115.033817,176.77205 114.070957,174.807608 113.590817,172.661178 C113.477236,172.151352 113.390759,171.62991 113.332678,171.103306 C113.275887,170.59219 113.247492,170.072038 113.247492,169.545434 L62.3707709,169.545434 C62.3707709,170.072038 62.3423756,170.59219 62.2855849,171.103306 C62.2275035,171.62991 62.1423174,172.151352 62.0274453,172.661178 C61.5473058,174.807608 60.5844453,176.77205 59.2550267,178.435759 Z M82.0977942,114.254527 L93.5204686,114.254527 L93.5204686,130.537969 L91.6166895,131.906108 L89.7154919,130.537969 L87.8117128,131.906108 L85.9092244,130.537969 L84.0041547,131.906108 L82.0977942,130.537969 L82.0977942,114.254527 Z M44.7875965,155.654945 C45.84855,155.403259 46.9572593,155.267736 48.0930733,155.267736 C48.6209686,155.267736 49.1398291,155.297422 49.6509453,155.354213 C50.1788407,155.411003 50.6989919,155.49619 51.2088174,155.611062 L51.2088174,119.447003 C51.2088174,118.587399 51.9070849,117.889131 52.7666895,117.889131 L78.9833407,117.889131 L78.9833407,121.003585 L54.3245616,121.003585 L54.3245616,124.119329 L78.9833407,124.119329 L78.9833407,132.137143 L80.2817826,133.069027 L82.188143,134.437166 L84.0041547,135.740771 L85.8201663,134.437166 L85.9092244,134.375213 L85.9944105,134.437166 L87.8117128,135.743352 L89.6315965,134.434585 L89.7154919,134.375213 L89.8006779,134.434585 L91.6166895,135.743352 L93.4339919,134.434585 L95.3364802,133.069027 L96.6349221,132.134562 L96.6349221,124.119329 L121.293701,124.119329 L121.293701,121.003585 L96.6349221,121.003585 L96.6349221,117.889131 L122.851573,117.889131 C123.711178,117.889131 124.409445,118.587399 124.409445,119.447003 L124.409445,155.611062 C124.91798,155.49619 125.439422,155.411003 125.966027,155.354213 C126.478434,155.297422 126.997294,155.267736 127.523899,155.267736 C128.67391,155.267736 129.792945,155.405841 130.864224,155.66269 L127.523899,150.117852 L127.523899,119.447003 C127.523899,116.86819 125.429097,114.773387 122.851573,114.773387 L102.080376,114.773387 C105.304538,111.30141 107.278015,106.648445 107.278015,101.534701 C107.278015,90.7831895 98.560643,82.0671081 87.8091314,82.0671081 C77.0576198,82.0671081 68.3402477,90.7831895 68.3402477,101.534701 C68.3402477,106.648445 70.3137244,111.30141 73.5365965,114.773387 L52.7666895,114.773387 C50.1891663,114.773387 48.0930733,116.86819 48.0930733,119.447003 L48.0930733,150.217236 L44.7875965,155.654945 Z" id="Fill-7" fill="#3573C3"></path>
                        <path d="M119.998357,14.3156767 L119.998357,62.0779442 C119.998357,69.9653977 126.388601,76.3556419 134.274764,76.3556419 L145.436717,76.3556419 L145.436717,84.6612814 C145.436717,84.6612814 145.436717,101.794002 132.716892,101.794002 L145.436717,101.794002 C159.578892,101.794002 170.876369,95.8245256 170.876369,80.509107 L170.876369,76.3556419 L221.702752,76.3556419 L221.702752,61.0918512 L211.370717,61.0918512 L211.370717,45.8293512 L221.702752,45.8293512 L221.702752,30.5655605 L211.370717,30.5655605 L211.370717,15.3017698 L221.702752,15.3017698 L221.702752,0.0379790698 L134.274764,0.0379790698 C126.388601,0.0379790698 119.998357,6.42951395 119.998357,14.3156767" id="Fill-9" fill="#3573C3"></path>
                        <path d="M135.949315,18.3296174 L135.949315,56.5936407 C135.949315,58.1373151 137.205164,59.3918733 138.748838,59.3918733 L190.543245,59.3918733 C192.08821,59.3918733 193.342769,58.1373151 193.342769,56.5936407 L193.342769,18.3296174 C193.342769,16.785943 192.08821,15.5300942 190.543245,15.5300942 L172.579315,15.5300942 L172.579315,27.1954198 L156.714059,27.1954198 L156.714059,15.5300942 L138.748838,15.5300942 C137.205164,15.5300942 135.949315,16.785943 135.949315,18.3296174 Z M159.513583,24.3958965 L169.778501,24.3958965 L169.778501,15.5300942 L159.513583,15.5300942 L159.513583,24.3958965 Z" id="Fill-11" fill="#FFFFFF"></path>
                    </g>
                    <g id="Page-1" transform="translate(236.000000, 1.000000)">
                        <g id="Group-3" transform="translate(44.913295, 183.971272)">
                            <mask id="mask-2" fill="white">
                                <use xlink:href="#path-1"></use>
                            </mask>
                            <g id="Clip-2"></g>
                            <path d="M175.136827,0.606586127 C175.136827,42.7942855 136.050711,76.9938347 87.8356474,76.9938347 C39.6218671,76.9938347 0.535751445,42.7942855 0.535751445,0.606586127 L175.136827,0.606586127 Z" id="Fill-1" fill="#D5D5D5" mask="url(#mask-2)"></path>
                        </g>
                        <g id="Group-6" transform="translate(44.913295, 172.422139)">
                            <mask id="mask-4" fill="white">
                                <use xlink:href="#path-3"></use>
                            </mask>
                            <g id="Clip-5"></g>
                            <path d="M175.136827,12.1557191 C175.136827,18.1818 136.050711,23.0683665 87.8356474,23.0683665 C39.6218671,23.0683665 0.535751445,18.1818 0.535751445,12.1557191 C0.535751445,6.12835491 39.6218671,1.24307168 87.8356474,1.24307168 C136.050711,1.24307168 175.136827,6.12835491 175.136827,12.1557191" id="Fill-4" fill="#EAEAEA" mask="url(#mask-4)"></path>
                        </g>
                        <path d="M176.53286,154.509434 L163.001126,132.041237 C160.429519,126.328266 154.746062,122.663341 148.480016,122.663341 L117.020178,122.663341 C110.752849,122.663341 105.071958,126.328266 102.499068,132.303017 L89.0083977,154.495318 C82.2585711,155.932543 77.1769526,161.941942 77.1769526,169.121653 C77.1769526,177.369017 83.8818659,184.079064 92.1215306,184.079064 C97.2647445,184.079064 101.808687,181.467676 104.500918,177.502474 C105.265727,180.056116 106.33723,182.52378 107.750074,184.782277 L109.467045,184.782277 L112.785496,184.782277 L121.593635,184.782277 L143.90656,184.782277 L152.713415,184.782277 L157.164964,184.782277 L157.734721,184.782277 C159.148849,182.521214 160.23575,180.049699 160.987727,177.492208 C163.676109,181.463827 168.220051,184.079064 173.364548,184.079064 C181.610629,184.079064 188.321958,177.369017 188.321958,169.121653 C188.321958,161.962474 183.262155,155.967191 176.53286,154.509434 M112.830409,99.5650751 C112.830409,88.5703006 121.747623,79.6543699 132.742398,79.6543699 C143.752571,79.6543699 152.653103,88.5703006 152.653103,99.5650751 C152.653103,110.55985 143.752571,119.47578 132.742398,119.47578 C121.747623,119.47578 112.830409,110.55985 112.830409,99.5650751" id="Fill-7" fill="#FFFFFF"></path>
                        <path d="M80.7098324,169.121268 C80.7098324,175.427095 85.8222486,180.536945 92.1267919,180.536945 C98.4326185,180.536945 103.543751,175.427095 103.543751,169.121268 C103.543751,162.816725 98.4326185,157.705592 92.1267919,157.705592 C85.8222486,157.705592 80.7098324,162.816725 80.7098324,169.121268 Z M161.95285,169.121268 C161.95285,175.427095 167.063983,180.536945 173.368526,180.536945 C179.674353,180.536945 184.785486,175.427095 184.785486,169.121268 C184.785486,162.816725 179.674353,157.705592 173.368526,157.705592 C167.063983,157.705592 161.95285,162.816725 161.95285,169.121268 Z M159.178491,162.013418 C154.062225,165.217661 150.884931,170.948598 150.884931,176.970829 C150.884931,179.704124 151.51115,182.368124 152.70841,184.785742 L157.739983,184.785742 C159.232387,182.392505 160.371902,179.783684 161.129012,177.064505 C159.63789,174.776494 158.766572,172.049615 158.766572,169.121268 C158.766572,166.16084 159.655855,163.405731 161.175208,161.101037 L161.112329,160.802043 L159.178491,162.013418 Z M110.674699,149.636598 L108.325092,152.286482 L157.171509,152.286482 L154.821902,149.636598 C154.424098,149.188748 154.009613,148.746031 153.586145,148.323846 C148.019462,142.757164 140.620318,139.691511 132.748942,139.691511 C124.877566,139.691511 117.475855,142.757164 111.909173,148.323846 C111.486988,148.746031 111.072503,149.187465 110.674699,149.636598 Z M88.7416127,154.919684 C89.8285145,154.660471 90.9616127,154.519314 92.1267919,154.519314 C94.1440405,154.519314 96.0650462,154.92995 97.812815,155.672945 C103.228075,141.656147 116.845786,131.686679 132.748942,131.686679 C148.650815,131.686679 162.268526,141.656147 167.682503,155.672945 C169.431555,154.92995 171.353844,154.519314 173.368526,154.519314 C174.546538,154.519314 175.691185,154.663037 176.788353,154.927384 L162.997405,132.039569 C160.423231,126.329164 154.739775,122.659106 148.478861,122.659106 L117.019023,122.659106 C110.755543,122.659106 105.07337,126.329164 102.497913,132.303916 L88.7416127,154.919684 Z M104.321393,161.101037 C105.842029,163.405731 106.728746,166.16084 106.728746,169.121268 C106.728746,172.049615 105.858711,174.776494 104.368873,177.064505 C105.124699,179.783684 106.264214,182.392505 107.755335,184.785742 L112.786908,184.785742 C113.985451,182.369407 114.612954,179.704124 114.612954,176.970829 C114.612954,170.948598 111.434376,165.217661 106.31811,162.013418 L104.384272,160.802043 L104.321393,161.101037 Z M121.595046,184.785742 L143.900272,184.785742 C143.683405,183.93239 143.498618,183.062355 143.352329,182.176921 C142.845451,179.111268 140.796121,176.970829 138.370803,176.970829 L127.125798,176.970829 C124.738977,176.970829 122.643451,179.160031 122.144272,182.176921 C121.999266,183.062355 121.813197,183.93239 121.595046,184.785742 Z M132.748942,119.474112 C121.750318,119.474112 112.835671,110.558182 112.835671,99.5608405 C112.835671,88.5647827 121.750318,79.648852 132.748942,79.648852 C143.746283,79.648852 152.660931,88.5647827 152.660931,99.5608405 C152.660931,110.558182 143.746283,119.474112 132.748942,119.474112 Z" id="Fill-9" fill="#3573C3"></path>
                        <path d="M11.628052,32.2836763 L11.628052,47.8955376 L1.06187861,47.8955376 L1.06187861,63.5061156 L11.628052,63.5061156 L11.628052,79.1179769 L53.098422,79.1179769 L53.098422,83.3667746 C53.098422,99.0312486 64.6526879,105.13689 79.1186185,105.13689 L92.1267919,105.13689 C79.1186185,105.13689 79.1186185,87.614289 79.1186185,87.614289 L79.1186185,79.1179769 L90.5342948,79.1179769 C98.5994393,79.1179769 105.136249,72.5811676 105.136249,64.5160231 L105.136249,15.664474 C105.136249,7.59804624 98.5994393,1.06252023 90.5342948,1.06252023 L11.628052,1.06252023 L11.628052,16.6730983 L1.06187861,16.6730983 L1.06187861,32.2836763 L11.628052,32.2836763 Z" id="Fill-11" fill="#3573C3"></path>
                        <path d="M31.062163,58.1438532 C31.062163,62.3965006 34.5089376,65.8432751 38.761585,65.8432751 C43.0142324,65.8432751 46.4610069,62.3965006 46.4610069,58.1438532 C46.4610069,56.2138647 45.7526601,54.4506971 44.5759318,53.0994486 C43.169504,51.472304 41.0855272,50.4444312 38.761585,50.4444312 C36.4376428,50.4444312 34.3549491,51.472304 32.9485214,53.0994486 C31.7717931,54.4506971 31.062163,56.2138647 31.062163,58.1438532 M70.8874231,58.1438532 C70.8874231,62.3965006 74.3341977,65.8432751 78.5868451,65.8432751 C82.8407757,65.8432751 86.2862671,62.3965006 86.2862671,58.1438532 C86.2862671,56.2138647 85.576637,54.4506971 84.4011919,53.0994486 C82.9947642,51.472304 80.9107873,50.4444312 78.5868451,50.4444312 C76.2641861,50.4444312 74.1802092,51.472304 72.7724983,53.0994486 C71.5970532,54.4506971 70.8874231,56.2138647 70.8874231,58.1438532 M24.9565214,40.1002578 L24.9565214,51.5056682 C24.9565214,52.3859688 25.6712844,53.0994486 26.5490185,53.0994486 L29.1193422,53.0994486 C30.9402555,49.6295757 34.5782324,47.2581538 38.761585,47.2581538 C41.3832382,47.2581538 43.7854578,48.1872173 45.6654,49.7348012 L45.6654,23.629911 L33.3707064,23.629911 C32.7701514,23.629911 32.2196428,23.9661191 31.9488798,24.5025121 C30.6964405,26.9932751 27.1020936,34.2653792 25.614822,37.2809861 C25.1823711,38.157437 24.9565214,39.121148 24.9565214,40.1002578 M50.4441746,14.3367087 L90.2694347,14.3367087 C91.1471688,14.3367087 91.8619318,15.0501884 91.8619318,15.930489 L91.8619318,51.5056682 C91.8619318,52.3859688 91.1471688,53.0994486 90.2694347,53.0994486 L88.2303711,53.0994486 C86.4081746,49.6295757 82.7714809,47.2581538 78.5868451,47.2581538 C74.4022092,47.2581538 70.7655156,49.6295757 68.9446023,53.0994486 L48.8503942,53.0994486 L48.8503942,15.930489 C48.8503942,15.0501884 49.5651572,14.3367087 50.4441746,14.3367087" id="Fill-13" fill="#FFFFFF"></path>
                    </g>
                </g>
            </g>
        </g>
    </g>
</svg>