<svg xmlns="http://www.w3.org/2000/svg" viewBox="0 0 400 400"><defs><style>.a,.d{fill:#3573c3;}.b{fill:none;}.c{fill:#fff;}.d{fill-rule:evenodd;}</style></defs>landingQueryForm<path class="a" d="M396,59V243a55,55,0,0,1-55,55H298v32s0,66,49,66H298c-54.48,0-98-23-98-82V298H4.2V239.2H44V180.4H4.2V121.6H44V62.8H4.2V4H341A55,55,0,0,1,396,59Z"/><rect class="b" width="400" height="400"/><path class="c" d="M234.5,73h-22V54h22ZM279,54H240.5V79h-34V54H168a6,6,0,0,0-6,6v82a6,6,0,0,0,6,6H279a6,6,0,0,0,6-6V60A6,6,0,0,0,279,54ZM170.5,154h-22v19h22Zm44.5,0H176.5v25h-34V154H104a6,6,0,0,0-6,6v82a6,6,0,0,0,6,6H215a6,6,0,0,0,6-6V160A6,6,0,0,0,215,154Zm84.5,0h-22v19h22Zm44.5,0H305.5v25h-34V154H233a6,6,0,0,0-6,6v82a6,6,0,0,0,6,6H344a6,6,0,0,0,6-6V160A6,6,0,0,0,344,154Z"/><rect class="b" width="400" height="400"/><path class="d" d="M237.92,124.24a16.86,16.86,0,0,1-22,1.57l-9.68,9.68a2.89,2.89,0,1,1-4.09-4.09l9.68-9.68a16.86,16.86,0,0,1,1.57-22l5.79-5.79L223.26,98l6.82-6.82a2.89,2.89,0,0,1,4.09,4.09l-6.82,6.82,8.18,8.18,6.82-6.82a2.89,2.89,0,1,1,4.09,4.09l-6.82,6.82,4.09,4.09Z"/><path class="d" d="M172.92,223.24a16.86,16.86,0,0,1-22,1.57l-9.68,9.68a2.89,2.89,0,1,1-4.09-4.09l9.68-9.68a16.86,16.86,0,0,1,1.57-22l5.79-5.79,4.09,4.09,6.82-6.82a2.89,2.89,0,0,1,4.09,4.09l-6.82,6.82,8.18,8.18,6.82-6.82a2.89,2.89,0,1,1,4.09,4.09l-6.82,6.82,4.09,4.09Z"/><path class="d" d="M301.92,223.24a16.86,16.86,0,0,1-22,1.57l-9.68,9.68a2.89,2.89,0,1,1-4.09-4.09l9.68-9.68a16.86,16.86,0,0,1,1.57-22l5.79-5.79,4.09,4.09,6.82-6.82a2.89,2.89,0,0,1,4.09,4.09l-6.82,6.82,8.18,8.18,6.82-6.82a2.89,2.89,0,1,1,4.09,4.09l-6.82,6.82,4.09,4.09Z"/></svg>