<svg xmlns="http://www.w3.org/2000/svg" viewBox="0 0 400 400"><defs><style>.a,.d{fill:#3573c3;}.b{fill:none;}.c{fill:#fff;}.d{fill-rule:evenodd;}</style></defs><title>03_carrier</title><path class="a" d="M356,224.5c0,36.75,40,36.75,40,73.5H200v16c0,59-43.52,82-98,82H53c49,0,49-66,49-66V298H59A55,55,0,0,1,4,243V59A55,55,0,0,1,59,4H396c0,36.75-40,36.75-40,73.5s40,36.75,40,73.5S356,187.75,356,224.5Z"/><rect class="b" width="400" height="400"/><path class="c" d="M216,60V200H140.32a41,41,0,0,0-72.64,0H60a6,6,0,0,1-6-6V60a6,6,0,0,1,6-6H210A6,6,0,0,1,216,60Zm87.52,80.42c-5.6-11.36-19.14-38.75-23.86-48.13A6,6,0,0,0,274.31,89H228v98.33A40.95,40.95,0,0,1,290.32,200H300a6,6,0,0,0,6-6V151A24,24,0,0,0,303.52,140.42ZM125.9,200a29,29,0,1,0,7.1,19A28.87,28.87,0,0,0,125.9,200Zm150,0a29,29,0,1,0,7.1,19A28.87,28.87,0,0,0,275.9,200Z"/><rect class="b" width="400" height="400"/><path class="d" d="M166.27,128.78a31.65,31.65,0,0,1-3,7.25c.19.24,7,8.79,2.81,13L164,151.08c-3.13,3.13-11-1.78-12.84-3a31.77,31.77,0,0,1-7.68,3.08l.55,0s-1.49,11.18-7.48,11.18h-2.06c-4.57,0-7.11-9.58-7.55-11.39a31.75,31.75,0,0,1-7.58-3.24l.41.44s-8.85,7-13.09,2.72l-1.87-1.56c-3.22-3.22,2-11.75,3-13.38a31.72,31.72,0,0,1-3-7.08c-1.76-.43-11.41-3-11.41-7.56v-2.06c0-5.29,9.2-7.07,11.35-7.41a31.71,31.71,0,0,1,2.94-7.13c-1-1.5-6.39-10.07-3.14-13.32l2-1.66c3.73-3.73,11.37,1.55,13.15,2.88a31.74,31.74,0,0,1,7.25-3c.57-2.24,3.1-11.2,7.51-11.2h2.06c5.14,0,7,8.66,7.38,11.14a31.75,31.75,0,0,1,7.35,3c1.94-1.26,9.91-6.14,13-3l1.87,2c3.65,3.65-1.41,11.05-2.89,13a31.7,31.7,0,0,1,3,7.27c.65.09,11.12,1.66,11.12,7.47v2.06C177.4,125.66,168.6,128.19,166.27,128.78ZM135.41,96.72A23.63,23.63,0,1,0,159,120.34,23.63,23.63,0,0,0,135.41,96.72Zm0,39.38a15.75,15.75,0,1,1,15.75-15.75A15.75,15.75,0,0,1,135.41,136.1Zm0-23.63a7.88,7.88,0,1,0,7.88,7.88A7.88,7.88,0,0,0,135.41,112.47Z"/></svg>