<svg xmlns="http://www.w3.org/2000/svg" viewBox="0 0 400 400"><defs><style>.a,.d{fill:#3573c3;}.b{fill:none;}.c{fill:#fff;}.d{fill-rule:evenodd;}</style></defs>landingQueryForm<path class="a" d="M396,59V243a55,55,0,0,1-55,55H298v32s0,66,49,66H298c-54.48,0-98-23-98-82V298H44c0-36.75-40-36.75-40-73.5S44,187.75,44,151,4,114.25,4,77.5,44,40.75,44,4H341A55,55,0,0,1,396,59Z"/><rect class="b" width="400" height="400"/><path class="c" d="M234.5,73h-22V54h22ZM279,54H240.5V79h-34V54H168a6,6,0,0,0-6,6v82a6,6,0,0,0,6,6H279a6,6,0,0,0,6-6V60A6,6,0,0,0,279,54ZM170.5,154h-22v19h22Zm44.5,0H176.5v25h-34V154H104a6,6,0,0,0-6,6v82a6,6,0,0,0,6,6H215a6,6,0,0,0,6-6V160A6,6,0,0,0,215,154Zm84.5,0h-22v19h22Zm44.5,0H305.5v25h-34V154H233a6,6,0,0,0-6,6v82a6,6,0,0,0,6,6H344a6,6,0,0,0,6-6V160A6,6,0,0,0,344,154Z"/><rect class="b" width="400" height="400"/><path class="d" d="M240.9,117.63a17.33,17.33,0,0,1-1.67,4c.1.13,3.83,4.81,1.54,7.1l-1.14,1.14c-1.71,1.71-6-1-7-1.66a17.4,17.4,0,0,1-4.21,1.69h.3s-.81,6.12-4.1,6.12h-1.13c-2.5,0-3.9-5.25-4.14-6.24a17.39,17.39,0,0,1-4.15-1.78l.23.24s-4.85,3.81-7.17,1.49l-1-.85c-1.76-1.76,1.08-6.44,1.65-7.33a17.37,17.37,0,0,1-1.62-3.88c-1-.23-6.25-1.63-6.25-4.14V112.4c0-2.9,5-3.87,6.22-4.06a17.36,17.36,0,0,1,1.61-3.91c-.54-.82-3.5-5.51-1.72-7.29l1.08-.91c2-2,6.23.85,7.2,1.58a17.38,17.38,0,0,1,4-1.67c.31-1.23,1.7-6.13,4.11-6.13h1.13c2.81,0,3.81,4.74,4,6.1a17.39,17.39,0,0,1,4,1.66c1.06-.69,5.43-3.36,7.14-1.65l1,1.08c2,2-.77,6.05-1.58,7.13a17.36,17.36,0,0,1,1.66,4c.36.05,6.09.91,6.09,4.09v1.13C247,115.92,242.18,117.3,240.9,117.63ZM224,100.07A12.94,12.94,0,1,0,236.94,113,12.94,12.94,0,0,0,224,100.07Zm0,21.56a8.63,8.63,0,1,1,8.63-8.63A8.63,8.63,0,0,1,224,121.63Zm0-12.94a4.31,4.31,0,1,0,4.31,4.31A4.31,4.31,0,0,0,224,108.69Z"/><path class="d" d="M175.9,217.63a17.33,17.33,0,0,1-1.67,4c.1.13,3.83,4.81,1.54,7.1l-1.14,1.14c-1.71,1.71-6-1-7-1.66a17.4,17.4,0,0,1-4.21,1.69h.3s-.81,6.12-4.1,6.12h-1.13c-2.5,0-3.9-5.25-4.14-6.24a17.39,17.39,0,0,1-4.15-1.78l.23.24s-4.85,3.81-7.17,1.49l-1-.85c-1.76-1.76,1.08-6.44,1.65-7.33a17.37,17.37,0,0,1-1.62-3.88c-1-.23-6.25-1.63-6.25-4.14V212.4c0-2.9,5-3.87,6.22-4.06a17.36,17.36,0,0,1,1.61-3.91c-.54-.82-3.5-5.51-1.72-7.29l1.08-.91c2-2,6.23.85,7.2,1.58a17.38,17.38,0,0,1,4-1.67c.31-1.23,1.7-6.13,4.11-6.13h1.13c2.81,0,3.81,4.74,4,6.1a17.39,17.39,0,0,1,4,1.66c1.06-.69,5.43-3.36,7.14-1.65l1,1.08c2,2-.77,6.05-1.58,7.13a17.36,17.36,0,0,1,1.66,4c.36.05,6.09.91,6.09,4.09v1.13C182,215.92,177.18,217.3,175.9,217.63ZM159,200.07A12.94,12.94,0,1,0,171.94,213,12.94,12.94,0,0,0,159,200.07Zm0,21.56a8.63,8.63,0,1,1,8.63-8.63A8.63,8.63,0,0,1,159,221.63Zm0-12.94a4.31,4.31,0,1,0,4.31,4.31A4.31,4.31,0,0,0,159,208.69Z"/><path class="d" d="M304.9,217.63a17.33,17.33,0,0,1-1.67,4c.1.13,3.83,4.81,1.54,7.1l-1.14,1.14c-1.71,1.71-6-1-7-1.66a17.4,17.4,0,0,1-4.21,1.69h.3s-.81,6.12-4.1,6.12h-1.13c-2.5,0-3.9-5.25-4.14-6.24a17.39,17.39,0,0,1-4.15-1.78l.23.24s-4.85,3.81-7.17,1.49l-1-.85c-1.76-1.76,1.08-6.44,1.65-7.33a17.37,17.37,0,0,1-1.62-3.88c-1-.23-6.25-1.63-6.25-4.14V212.4c0-2.9,5-3.87,6.22-4.06a17.36,17.36,0,0,1,1.61-3.91c-.54-.82-3.5-5.51-1.72-7.29l1.08-.91c2-2,6.23.85,7.2,1.58a17.38,17.38,0,0,1,4-1.67c.31-1.23,1.7-6.13,4.11-6.13h1.13c2.81,0,3.81,4.74,4,6.1a17.39,17.39,0,0,1,4,1.66c1.06-.69,5.43-3.36,7.14-1.65l1,1.08c2,2-.77,6.05-1.58,7.13a17.36,17.36,0,0,1,1.66,4c.36.05,6.09.91,6.09,4.09v1.13C311,215.92,306.18,217.3,304.9,217.63ZM288,200.07A12.94,12.94,0,1,0,300.94,213,12.94,12.94,0,0,0,288,200.07Zm0,21.56a8.63,8.63,0,1,1,8.63-8.63A8.63,8.63,0,0,1,288,221.63Zm0-12.94a4.31,4.31,0,1,0,4.31,4.31A4.31,4.31,0,0,0,288,208.69Z"/></svg>