<svg xmlns="http://www.w3.org/2000/svg" viewBox="0 0 400 400"><defs><style>.a,.d{fill:#3573c3;}.b{fill:none;}.c{fill:#fff;}.d{fill-rule:evenodd;}</style></defs>landingQueryForm<path class="a" d="M396,59V243a55,55,0,0,1-55,55H298v32s0,66,49,66H298c-54.48,0-98-23-98-82V298H44V224.3L4.33,199.93l-.33.2V101.87l.33.2L44,77.7V4H341A55,55,0,0,1,396,59Z"/><rect class="b" width="400" height="400"/><path class="c" d="M234.5,73h-22V54h22ZM279,54H240.5V79h-34V54H168a6,6,0,0,0-6,6v82a6,6,0,0,0,6,6H279a6,6,0,0,0,6-6V60A6,6,0,0,0,279,54ZM170.5,154h-22v19h22Zm44.5,0H176.5v25h-34V154H104a6,6,0,0,0-6,6v82a6,6,0,0,0,6,6H215a6,6,0,0,0,6-6V160A6,6,0,0,0,215,154Zm84.5,0h-22v19h22Zm44.5,0H305.5v25h-34V154H233a6,6,0,0,0-6,6v82a6,6,0,0,0,6,6H344a6,6,0,0,0,6-6V160A6,6,0,0,0,344,154Z"/><rect class="b" width="400" height="400"/><path class="d" d="M242,134.4H206.1a2.07,2.07,0,0,1-2.07-2.07V96.47a2.07,2.07,0,0,1,2.07-2.07h3.45v2.07a4.14,4.14,0,0,0,8.28,0V94.4h2.07v2.07a4.14,4.14,0,0,0,8.28,0V94.4h2.07v2.07a4.14,4.14,0,1,0,8.28,0V94.4H242A2.07,2.07,0,0,1,244,96.47v35.86A2.07,2.07,0,0,1,242,134.4Zm-5.52-28.28H211.61a2.07,2.07,0,1,0,0,4.14h24.83a2.07,2.07,0,0,0,0-4.14Zm0,9H211.61a2.07,2.07,0,1,0,0,4.14h24.83a2.07,2.07,0,0,0,0-4.14Zm.34,9H211.27a1.72,1.72,0,1,0,0,3.45h25.52a1.72,1.72,0,0,0,0-3.45Zm-2.41-25.52a2.07,2.07,0,0,1-2.07-2.07V92.33a2.07,2.07,0,0,1,4.14,0v4.14A2.07,2.07,0,0,1,234.37,98.54Zm-10.34,0A2.07,2.07,0,0,1,222,96.47V92.33a2.07,2.07,0,1,1,4.14,0v4.14A2.07,2.07,0,0,1,224,98.54Zm-10.34,0a2.07,2.07,0,0,1-2.07-2.07V92.33a2.07,2.07,0,0,1,4.14,0v4.14A2.07,2.07,0,0,1,213.68,98.54Z"/><path class="d" d="M177,234.4H141.1a2.07,2.07,0,0,1-2.07-2.07V196.47a2.07,2.07,0,0,1,2.07-2.07h3.45v2.07a4.14,4.14,0,1,0,8.28,0V194.4h2.07v2.07a4.14,4.14,0,0,0,8.28,0V194.4h2.07v2.07a4.14,4.14,0,1,0,8.28,0V194.4H177a2.07,2.07,0,0,1,2.07,2.07v35.86A2.07,2.07,0,0,1,177,234.4Zm-5.52-28.28H146.61a2.07,2.07,0,1,0,0,4.14h24.83a2.07,2.07,0,0,0,0-4.14Zm0,9H146.61a2.07,2.07,0,1,0,0,4.14h24.83a2.07,2.07,0,0,0,0-4.14Zm.34,9H146.27a1.72,1.72,0,1,0,0,3.45h25.52a1.72,1.72,0,0,0,0-3.45Zm-2.41-25.52a2.07,2.07,0,0,1-2.07-2.07v-4.14a2.07,2.07,0,0,1,4.14,0v4.14A2.07,2.07,0,0,1,169.37,198.54Zm-10.34,0a2.07,2.07,0,0,1-2.07-2.07v-4.14a2.07,2.07,0,1,1,4.14,0v4.14A2.07,2.07,0,0,1,159,198.54Zm-10.34,0a2.07,2.07,0,0,1-2.07-2.07v-4.14a2.07,2.07,0,1,1,4.14,0v4.14A2.07,2.07,0,0,1,148.68,198.54Z"/><path class="d" d="M306,234.4H270.1a2.07,2.07,0,0,1-2.07-2.07V196.47a2.07,2.07,0,0,1,2.07-2.07h3.45v2.07a4.14,4.14,0,1,0,8.28,0V194.4h2.07v2.07a4.14,4.14,0,1,0,8.28,0V194.4h2.07v2.07a4.14,4.14,0,1,0,8.28,0V194.4H306a2.07,2.07,0,0,1,2.07,2.07v35.86A2.07,2.07,0,0,1,306,234.4Zm-5.52-28.28H275.61a2.07,2.07,0,1,0,0,4.14h24.83a2.07,2.07,0,0,0,0-4.14Zm0,9H275.61a2.07,2.07,0,1,0,0,4.14h24.83a2.07,2.07,0,0,0,0-4.14Zm.34,9H275.27a1.72,1.72,0,1,0,0,3.45h25.52a1.72,1.72,0,0,0,0-3.45Zm-2.41-25.52a2.07,2.07,0,0,1-2.07-2.07v-4.14a2.07,2.07,0,1,1,4.14,0v4.14A2.07,2.07,0,0,1,298.37,198.54Zm-10.34,0a2.07,2.07,0,0,1-2.07-2.07v-4.14a2.07,2.07,0,1,1,4.14,0v4.14A2.07,2.07,0,0,1,288,198.54Zm-10.34,0a2.07,2.07,0,0,1-2.07-2.07v-4.14a2.07,2.07,0,1,1,4.14,0v4.14A2.07,2.07,0,0,1,277.68,198.54Z"/></svg>