<svg xmlns="http://www.w3.org/2000/svg" viewBox="0 0 400 400"><defs><style>.a,.d{fill:#3573c3;}.b{fill:none;}.c{fill:#fff;}.d{fill-rule:evenodd;}</style></defs><title>05_carrier</title><path class="a" d="M356,200c22.09,0,40,21.94,40,49s-17.91,49-40,49H200v16c0,59-43.52,82-98,82H53c49,0,49-66,49-66V298H59A55,55,0,0,1,4,243V59A55,55,0,0,1,59,4H356c22.09,0,40,21.94,40,49s-17.91,49-40,49c22.09,0,40,21.94,40,49S378.09,200,356,200Z"/><rect class="b" width="400" height="400"/><path class="c" d="M216,60V200H140.32a41,41,0,0,0-72.64,0H60a6,6,0,0,1-6-6V60a6,6,0,0,1,6-6H210A6,6,0,0,1,216,60Zm87.52,80.42c-5.6-11.36-19.14-38.75-23.86-48.13A6,6,0,0,0,274.31,89H228v98.33A40.95,40.95,0,0,1,290.32,200H300a6,6,0,0,0,6-6V151A24,24,0,0,0,303.52,140.42ZM125.9,200a29,29,0,1,0,7.1,19A28.87,28.87,0,0,0,125.9,200Zm150,0a29,29,0,1,0,7.1,19A28.87,28.87,0,0,0,275.9,200Z"/><rect class="b" width="400" height="400"/><path class="d" d="M104.09,152.22l-1-1a24.28,24.28,0,0,1,0-34.34l28.45-28.45a24.28,24.28,0,0,1,34.34,0l1,1a24.28,24.28,0,0,1,0,34.34l-28.45,28.45A24.28,24.28,0,0,1,104.09,152.22Zm42.68-20.11-23.55-23.55L109,122.79a16,16,0,0,0,0,22.57l1,1a16,16,0,0,0,22.57,0Z"/></svg>