<svg xmlns="http://www.w3.org/2000/svg" viewBox="0 0 400 400"><defs><style>.a,.d{fill:#3573c3;}.b{fill:none;}.c{fill:#fff;}.d{fill-rule:evenodd;}</style></defs><title>05_shipper</title><path class="a" d="M396,59V243a55,55,0,0,1-55,55H298v32s0,66,49,66H298c-54.48,0-98-23-98-82V298H4c22.09,0,40-21.94,40-49S26.09,200,4,200c22.09,0,40-21.94,40-49S26.09,102,4,102c22.09,0,40-21.94,40-49S26.09,4,4,4H341A55,55,0,0,1,396,59Z"/><rect class="b" width="400" height="400"/><path class="c" d="M234.5,73h-22V54h22ZM279,54H240.5V79h-34V54H168a6,6,0,0,0-6,6v82a6,6,0,0,0,6,6H279a6,6,0,0,0,6-6V60A6,6,0,0,0,279,54ZM170.5,154h-22v19h22Zm44.5,0H176.5v25h-34V154H104a6,6,0,0,0-6,6v82a6,6,0,0,0,6,6H215a6,6,0,0,0,6-6V160A6,6,0,0,0,215,154Zm84.5,0h-22v19h22Zm44.5,0H305.5v25h-34V154H233a6,6,0,0,0-6,6v82a6,6,0,0,0,6,6H344a6,6,0,0,0,6-6V160A6,6,0,0,0,344,154Z"/><rect class="b" width="400" height="400"/><path class="d" d="M206.17,131.73l-.57-.57a14,14,0,0,1,0-19.81L222,94.94a14,14,0,0,1,19.81,0l.57.57a14,14,0,0,1,0,19.81L226,131.73A14,14,0,0,1,206.17,131.73Zm24.62-11.6-13.59-13.59L209,114.75a9.21,9.21,0,0,0,0,13l.57.57a9.21,9.21,0,0,0,13,0Z"/><path class="d" d="M141.17,231.73l-.57-.57a14,14,0,0,1,0-19.81L157,194.94a14,14,0,0,1,19.81,0l.57.57a14,14,0,0,1,0,19.81L161,231.73A14,14,0,0,1,141.17,231.73Zm24.62-11.6-13.59-13.59L144,214.75a9.21,9.21,0,0,0,0,13l.57.57a9.21,9.21,0,0,0,13,0Z"/><path class="d" d="M270.17,231.73l-.57-.57a14,14,0,0,1,0-19.81L286,194.94a14,14,0,0,1,19.81,0l.57.57a14,14,0,0,1,0,19.81L290,231.73A14,14,0,0,1,270.17,231.73Zm24.62-11.6-13.59-13.59L273,214.75a9.21,9.21,0,0,0,0,13l.57.57a9.21,9.21,0,0,0,13,0Z"/></svg>