<svg xmlns="http://www.w3.org/2000/svg" viewBox="0 0 400 400"><defs><style>.a,.d{fill:#3573c3;}.b{fill:none;}.c{fill:#fff;}.d{fill-rule:evenodd;}</style></defs>landingQueryForm<path class="a" d="M59.2,4H396V62.8H356.2v58.8H396v58.8H356.2v58.8H396V298H200.2v16c0,59-43.52,82-98,82h-49c49,0,49-66,49-66V298h-43a55,55,0,0,1-55-55V59A55,55,0,0,1,59.2,4Z"/><rect class="b" width="400" height="400"/><path class="c" d="M216,60V200H140.32a41,41,0,0,0-72.64,0H60a6,6,0,0,1-6-6V60a6,6,0,0,1,6-6H210A6,6,0,0,1,216,60Zm87.52,80.42c-5.6-11.36-19.14-38.75-23.86-48.13A6,6,0,0,0,274.31,89H228v98.33A40.95,40.95,0,0,1,290.32,200H300a6,6,0,0,0,6-6V151A24,24,0,0,0,303.52,140.42ZM125.9,200a29,29,0,1,0,7.1,19A28.87,28.87,0,0,0,125.9,200Zm150,0a29,29,0,1,0,7.1,19A28.87,28.87,0,0,0,275.9,200Z"/><rect class="b" width="400" height="400"/><path class="d" d="M157.51,134.11a27.49,27.49,0,0,1-35.9,2.56l-15.78,15.78a4.72,4.72,0,1,1-6.67-6.67L114.95,130a27.49,27.49,0,0,1,2.56-35.9l9.45-9.45,6.67,6.67,11.11-11.11a4.72,4.72,0,1,1,6.67,6.67L140.29,98l13.34,13.34,11.11-11.11a4.72,4.72,0,0,1,6.67,6.67L160.29,118l6.67,6.67Z"/></svg>