<svg xmlns="http://www.w3.org/2000/svg" viewBox="0 0 400 400"><defs><style>.a,.d{fill:#3573c3;}.b{fill:none;}.c{fill:#fff;}.d{fill-rule:evenodd;}</style></defs><path class="a" d="M356,4l40,73.5L356,151l40,73.5L356,298H200v16c0,59-43.52,82-98,82H53c49,0,49-66,49-66V298H59A55,55,0,0,1,4,243V59A55,55,0,0,1,59,4Z"/><rect class="b" width="400" height="400"/><path class="c" d="M216,60V200H140.32a41,41,0,0,0-72.64,0H60a6,6,0,0,1-6-6V60a6,6,0,0,1,6-6H210A6,6,0,0,1,216,60Zm87.52,80.42c-5.6-11.36-19.14-38.75-23.86-48.13A6,6,0,0,0,274.31,89H228v98.33A40.95,40.95,0,0,1,290.32,200H300a6,6,0,0,0,6-6V151A24,24,0,0,0,303.52,140.42ZM125.9,200a29,29,0,1,0,7.1,19A28.87,28.87,0,0,0,125.9,200Zm150,0a29,29,0,1,0,7.1,19A28.87,28.87,0,0,0,275.9,200Z"/><rect class="b" width="400" height="400"/><path class="d" d="M180,98.93h0l-13.5,30h0a4.5,4.5,0,0,1-3.8,2.64h0l-38.88,2.59,2.25,6.42h42.33a9,9,0,1,1-9,9h-42a9,9,0,1,1-9-9h8.13L99.22,91.08H88.91a4.5,4.5,0,0,1,0-9h13.5a4.49,4.49,0,0,1,4.23,3h0l2.62,7.49h66.63a4.48,4.48,0,0,1,4.1,6.34Zm-67.58,2.66,8.32,23.77,38.67-2.58L169,101.58Z"/></svg>