<svg xmlns="http://www.w3.org/2000/svg" viewBox="0 0 400 400"><defs><style>.a,.d{fill:#3573c3;}.b{fill:none;}.c{fill:#fff;}.d{fill-rule:evenodd;}</style></defs><title>07_shipper</title><path class="a" d="M4,298l40-73.5L4,151,44,77.5,4,4H341a55,55,0,0,1,55,55V243a55,55,0,0,1-55,55H298v32s0,66,49,66H298c-54.48,0-98-23-98-82V298Z"/><rect class="b" width="400" height="400"/><path class="c" d="M234.5,73h-22V54h22ZM279,54H240.5V79h-34V54H168a6,6,0,0,0-6,6v82a6,6,0,0,0,6,6H279a6,6,0,0,0,6-6V60A6,6,0,0,0,279,54ZM170.5,154h-22v19h22Zm44.5,0H176.5v25h-34V154H104a6,6,0,0,0-6,6v82a6,6,0,0,0,6,6H215a6,6,0,0,0,6-6V160A6,6,0,0,0,215,154Zm84.5,0h-22v19h22Zm44.5,0H305.5v25h-34V154H233a6,6,0,0,0-6,6v82a6,6,0,0,0,6,6H344a6,6,0,0,0,6-6V160A6,6,0,0,0,344,154Z"/><rect class="b" width="400" height="400"/><path class="d" d="M250.19,100.29h0l-7.59,16.88h0a2.53,2.53,0,0,1-2.14,1.49h0l-21.87,1.46,1.26,3.61h23.81a5.06,5.06,0,1,1-5.06,5.06H215a5.06,5.06,0,1,1-5.06-5.06h4.57l-9.75-27.84h-5.8a2.53,2.53,0,0,1,0-5.06h7.59a2.52,2.52,0,0,1,2.38,1.7h0l1.47,4.21h37.48a2.52,2.52,0,0,1,2.3,3.57Zm-38,1.49,4.68,13.37,21.75-1.45L244,101.79Z"/><path class="d" d="M186.19,201.29h0l-7.59,16.88h0a2.53,2.53,0,0,1-2.14,1.49h0l-21.87,1.46,1.26,3.61h23.81a5.06,5.06,0,1,1-5.06,5.06H151a5.06,5.06,0,1,1-5.06-5.06h4.57l-9.75-27.84h-5.8a2.53,2.53,0,0,1,0-5.06h7.59a2.52,2.52,0,0,1,2.38,1.7h0l1.47,4.21h37.48a2.52,2.52,0,0,1,2.3,3.57Zm-38,1.49,4.68,13.37,21.75-1.45L180,202.79Z"/><path class="d" d="M315.19,201.29h0l-7.59,16.88h0a2.53,2.53,0,0,1-2.14,1.49h0l-21.87,1.46,1.26,3.61h23.81a5.06,5.06,0,1,1-5.06,5.06H280a5.06,5.06,0,1,1-5.06-5.06h4.57l-9.75-27.84h-5.8a2.53,2.53,0,0,1,0-5.06h7.59a2.52,2.52,0,0,1,2.38,1.7h0l1.47,4.21h37.48a2.52,2.52,0,0,1,2.3,3.57Zm-38,1.49,4.68,13.37,21.75-1.45L309,202.79Z"/></svg>