<svg xmlns="http://www.w3.org/2000/svg" viewBox="0 0 400 400"><defs><style>.a,.d{fill:#3573c3;}.b{fill:none;}.c{fill:#fff;}.d{fill-rule:evenodd;}</style></defs>landingQueryForm<path class="a" d="M4,59V243a55,55,0,0,0,55,55h43v32s0,66-49,66h49c54.48,0,98-23,98-82V298H356V224.3l39.67-24.37.33.2V101.87l-.33.2L356,77.7V4H59A55,55,0,0,0,4,59Z"/><rect class="b" width="400" height="400"/><path class="c" d="M216,60V200H140.32a41,41,0,0,0-72.64,0H60a6,6,0,0,1-6-6V60a6,6,0,0,1,6-6H210A6,6,0,0,1,216,60Zm87.52,80.42c-5.6-11.36-19.14-38.75-23.86-48.13A6,6,0,0,0,274.31,89H228v98.33A40.95,40.95,0,0,1,290.32,200H300a6,6,0,0,0,6-6V151A24,24,0,0,0,303.52,140.42ZM125.9,200a29,29,0,1,0,7.1,19A28.87,28.87,0,0,0,125.9,200Zm150,0a29,29,0,1,0,7.1,19A28.87,28.87,0,0,0,275.9,200Z"/><rect class="b" width="400" height="400"/><path class="d" d="M166.41,155H103.65a3.62,3.62,0,0,1-3.62-3.62V88.57A3.62,3.62,0,0,1,103.65,85h6v3.62a7.24,7.24,0,1,0,14.48,0V85h3.62v3.62a7.24,7.24,0,0,0,14.48,0V85h3.62v3.62a7.24,7.24,0,1,0,14.48,0V85h6A3.62,3.62,0,0,1,170,88.57v62.76A3.62,3.62,0,0,1,166.41,155Zm-9.66-49.48H113.3a3.62,3.62,0,0,0,0,7.24h43.45a3.62,3.62,0,0,0,0-7.24Zm0,15.69H113.3a3.62,3.62,0,0,0,0,7.24h43.45a3.62,3.62,0,0,0,0-7.24Zm.6,15.69H112.7a3,3,0,1,0,0,6h44.66a3,3,0,0,0,0-6Zm-4.22-44.65a3.62,3.62,0,0,1-3.62-3.62V81.33a3.62,3.62,0,0,1,7.24,0v7.24A3.62,3.62,0,0,1,153.13,92.19Zm-18.1,0a3.62,3.62,0,0,1-3.62-3.62V81.33a3.62,3.62,0,1,1,7.24,0v7.24A3.62,3.62,0,0,1,135,92.19Zm-18.1,0a3.62,3.62,0,0,1-3.62-3.62V81.33a3.62,3.62,0,0,1,7.24,0v7.24A3.62,3.62,0,0,1,116.92,92.19Z"/></svg>