<svg xmlns="http://www.w3.org/2000/svg" xmlns:xlink="http://www.w3.org/1999/xlink" width="400" height="400" viewBox="0 0 400 400">
  <defs>
    <rect id="carrier_03-a" width="400" height="400" y="27"/>
  </defs>
  <g fill="none" fill-rule="evenodd" transform="translate(0 -27)">
    <mask id="carrier_03-b" fill="#fff">
      <use xlink:href="#carrier_03-a"/>
    </mask>
    <use fill="#FFF" xlink:href="#carrier_03-a"/>
    <g mask="url(#carrier_03-b)">
      <g transform="translate(38 156)">
        <path fill="#3573C3" d="M140.929993,105.697495 L126.549381,79.2716828 L140.929993,52.8458711 L126.549381,26.4258117 L140.929993,0 L19.7733408,0 C8.85126638,0 0,8.85126638 0,19.7733408 L0,85.9241537 C0,96.8462281 8.85126638,105.697495 19.7733408,105.697495 L35.2324982,105.697495 L35.2324982,117.201984 C35.2324982,117.201984 35.2324982,140.929993 17.6162491,140.929993 L35.2324982,140.929993 C54.818891,140.929993 70.4649963,132.661141 70.4649963,111.449739 L70.4649963,105.697495 L140.929993,105.697495 Z"/>
        <path fill="#FFF" d="M97.7521707,70.5691589 C95.8467397,68.3620724 93.0245447,66.9686916 89.8787859,66.9686916 C86.7330271,66.9686916 83.9108321,68.3620724 82.0054011,70.5691589 C80.4127484,72.4017967 79.4528426,74.792507 79.4528426,77.4100467 C79.4528426,83.1779953 84.119351,87.8514019 89.8787859,87.8514019 C95.6382208,87.8514019 100.304729,83.1779953 100.304729,77.4100467 C100.304729,74.792507 99.3448234,72.4017967 97.7521707,70.5691589 M43.8248776,70.5691589 C41.9194466,68.3620724 39.0972516,66.9686916 35.9514928,66.9686916 C32.805734,66.9686916 29.983539,68.3620724 28.078108,70.5691589 C26.4854553,72.4017967 25.5255495,74.792507 25.5255495,77.4100467 C25.5255495,83.1779953 30.1920579,87.8514019 35.9514928,87.8514019 C41.7109277,87.8514019 46.3774361,83.1779953 46.3774361,77.4100467 C46.3774361,74.792507 45.4175303,72.4017967 43.8248776,70.5691589 M107.681983,49.1175748 C105.668697,45.0274439 100.80086,35.165764 99.1039482,31.7885257 C98.7372426,31.0612313 97.9930459,30.603972 97.1805414,30.603972 L80.5313884,30.603972 L80.5313884,66.0073668 C83.0767567,63.9082944 86.33037,62.6481308 89.8787859,62.6481308 C95.5447468,62.6481308 100.470106,65.8633481 102.936381,70.5691589 L106.416489,70.5691589 C107.606485,70.5691589 108.573581,69.6006332 108.573581,68.4088785 L108.573581,52.941271 C108.573581,51.6126986 108.267993,50.305729 107.681983,49.1175748 M76.217205,20.1626168 L76.217205,70.5691589 L49.009088,70.5691589 C46.5428132,65.8633481 41.6174537,62.6481308 35.9514928,62.6481308 C30.2855319,62.6481308 25.3601724,65.8633481 22.8938976,70.5691589 L20.1328201,70.5691589 C18.9428245,70.5691589 17.9757284,69.6006332 17.9757284,68.4088785 L17.9757284,20.1626168 C17.9757284,18.9708621 18.9428245,18.0023364 20.1328201,18.0023364 L74.0601133,18.0023364 C75.2501089,18.0023364 76.217205,18.9708621 76.217205,20.1626168"/>
      </g>
    </g>
    <g mask="url(#carrier_03-b)">
      <g class="otherCarriers" transform="translate(222)">
        <path fill="#3573C3" d="M140.929204,19.8025701 L140.929204,86.0511682 C140.929204,96.9893879 132.077987,105.853738 121.155973,105.853738 L105.696903,105.853738 L105.696903,117.375234 C105.696903,117.375234 105.696903,141.138318 123.313053,141.138318 L105.696903,141.138318 C86.1106195,141.138318 70.4646018,132.857243 70.4646018,111.614486 L70.4646018,105.853738 L0,105.853738 C7.94164823,105.853738 14.380531,97.9543131 14.380531,88.2114486 C14.380531,78.4685841 7.94164823,70.5691589 0,70.5691589 C7.94164823,70.5691589 14.380531,62.6697336 14.380531,52.9268692 C14.380531,43.1840047 7.94164823,35.2845794 0,35.2845794 C7.94164823,35.2845794 14.380531,27.3851542 14.380531,17.6422897 C14.380531,7.89942523 7.94164823,0 0,0 L121.155973,0 C132.077987,0 140.929204,8.86435047 140.929204,19.8025701 Z M140.929204,486.842757 L140.929204,553.091355 C140.929204,564.029575 132.077987,572.893925 121.155973,572.893925 L105.696903,572.893925 L105.696903,584.415421 C105.696903,584.415421 105.696903,608.178505 123.313053,608.178505 L105.696903,608.178505 C86.1106195,608.178505 70.4646018,599.89743 70.4646018,578.654673 L70.4646018,572.893925 L0.0719026549,572.893925 L0.0719026549,551.723178 L14.380531,551.723178 L14.380531,530.55243 L0.0719026549,530.55243 L0.0719026549,509.381682 L14.380531,509.381682 L14.380531,488.210935 L0.0719026549,488.210935 L0.0719026549,467.040187 L121.155973,467.040187 C132.077987,467.040187 140.929204,475.904537 140.929204,486.842757 Z M140.929204,330.882944 L140.929204,397.131542 C140.929204,408.069762 132.077987,416.934112 121.155973,416.934112 L105.696903,416.934112 L105.696903,428.455607 C105.696903,428.455607 105.696903,452.218692 123.313053,452.218692 L105.696903,452.218692 C86.1106195,452.218692 70.4646018,443.937617 70.4646018,422.69486 L70.4646018,416.934112 L14.380531,416.934112 C14.380531,403.702395 0,403.702395 0,390.470678 C0,377.23896 14.380531,377.23896 14.380531,364.007243 C14.380531,350.775526 0,350.775526 0,337.543808 C0,324.312091 14.380531,324.312091 14.380531,311.080374 L121.155973,311.080374 C132.077987,311.080374 140.929204,319.944724 140.929204,330.882944 Z M14.380531,156.120561 L121.155973,156.120561 C132.077987,156.120561 140.929204,164.984911 140.929204,175.923131 L140.929204,242.171729 C140.929204,253.109949 132.077987,261.974299 121.155973,261.974299 L105.696903,261.974299 L105.696903,273.495794 C105.696903,273.495794 105.696903,297.258879 123.313053,297.258879 L105.696903,297.258879 C86.1106195,297.258879 70.4646018,288.977804 70.4646018,267.735047 L70.4646018,261.974299 L14.380531,261.974299 L0,235.509424 L14.380531,209.04455 L0,182.585436 L14.380531,156.120561 Z M140.929204,641.963318 L140.929204,708.211916 C140.929204,719.150136 132.077987,728.014486 121.155973,728.014486 L105.696903,728.014486 L105.696903,739.535981 C105.696903,739.535981 105.696903,763.299065 123.313053,763.299065 L105.696903,763.299065 C86.1106195,763.299065 70.4646018,755.017991 70.4646018,733.775234 L70.4646018,728.014486 L14.380531,728.014486 L14.380531,701.479042 L0.118639381,692.704703 L0,692.776713 L0,657.398521 L0.118639381,657.47053 L14.380531,648.696192 L14.380531,622.160748 L121.155973,622.160748 C132.077987,622.160748 140.929204,631.025098 140.929204,641.963318 Z M140.929204,798.081636 L140.929204,864.330234 C140.929204,875.268453 132.077987,884.132804 121.155973,884.132804 L105.696903,884.132804 L105.696903,895.654299 C105.696903,895.654299 105.696903,919.417383 123.313053,919.417383 L105.696903,919.417383 C86.1106195,919.417383 70.4646018,911.136308 70.4646018,889.893551 L70.4646018,884.132804 L0,884.132804 C7.94164823,884.132804 14.380531,876.233379 14.380531,866.490514 C14.380531,856.74765 7.94164823,848.848224 0,848.848224 C7.94164823,848.848224 14.380531,840.948799 14.380531,831.205935 C14.380531,821.46307 7.94164823,813.563645 0,813.563645 C7.94164823,813.563645 14.380531,805.66422 14.380531,795.921355 C14.380531,786.178491 7.94164823,778.279065 0,778.279065 L121.155973,778.279065 C132.077987,778.279065 140.929204,787.143416 140.929204,798.081636 Z M140.929204,1265.12182 L140.929204,1331.37042 C140.929204,1342.30864 132.077987,1351.17299 121.155973,1351.17299 L105.696903,1351.17299 L105.696903,1362.69449 C105.696903,1362.69449 105.696903,1386.45757 123.313053,1386.45757 L105.696903,1386.45757 C86.1106195,1386.45757 70.4646018,1378.1765 70.4646018,1356.93374 L70.4646018,1351.17299 L0.0719026549,1351.17299 L0.0719026549,1330.00224 L14.380531,1330.00224 L14.380531,1308.8315 L0.0719026549,1308.8315 L0.0719026549,1287.66075 L14.380531,1287.66075 L14.380531,1266.49 L0.0719026549,1266.49 L0.0719026549,1245.31925 L121.155973,1245.31925 C132.077987,1245.31925 140.929204,1254.1836 140.929204,1265.12182 Z M140.929204,1109.16201 L140.929204,1175.41061 C140.929204,1186.34883 132.077987,1195.21318 121.155973,1195.21318 L105.696903,1195.21318 L105.696903,1206.73467 C105.696903,1206.73467 105.696903,1230.49776 123.313053,1230.49776 L105.696903,1230.49776 C86.1106195,1230.49776 70.4646018,1222.21668 70.4646018,1200.97393 L70.4646018,1195.21318 L14.380531,1195.21318 C14.380531,1181.98146 0,1181.98146 0,1168.74974 C0,1155.51803 14.380531,1155.51803 14.380531,1142.28631 C14.380531,1129.05459 0,1129.05459 0,1115.82287 C0,1102.59116 14.380531,1102.59116 14.380531,1089.35944 L121.155973,1089.35944 C132.077987,1089.35944 140.929204,1098.22379 140.929204,1109.16201 Z M14.380531,934.399626 L121.155973,934.399626 C132.077987,934.399626 140.929204,943.263977 140.929204,954.202196 L140.929204,1020.45079 C140.929204,1031.38901 132.077987,1040.25336 121.155973,1040.25336 L105.696903,1040.25336 L105.696903,1051.77486 C105.696903,1051.77486 105.696903,1075.53794 123.313053,1075.53794 L105.696903,1075.53794 C86.1106195,1075.53794 70.4646018,1067.25687 70.4646018,1046.01411 L70.4646018,1040.25336 L14.380531,1040.25336 L0,1013.78849 L14.380531,987.323615 L0,960.864501 L14.380531,934.399626 Z M140.929204,1420.24238 L140.929204,1486.49098 C140.929204,1497.4292 132.077987,1506.29355 121.155973,1506.29355 L105.696903,1506.29355 L105.696903,1517.81505 C105.696903,1517.81505 105.696903,1541.57813 123.313053,1541.57813 L105.696903,1541.57813 C86.1106195,1541.57813 70.4646018,1533.29706 70.4646018,1512.0543 L70.4646018,1506.29355 L14.380531,1506.29355 L14.380531,1479.75811 L0.118639381,1470.98377 L0,1471.05578 L0,1435.67759 L0.118639381,1435.7496 L14.380531,1426.97526 L14.380531,1400.43981 L121.155973,1400.43981 C132.077987,1400.43981 140.929204,1409.30416 140.929204,1420.24238 Z"/>
        <path fill="#FFF" d="M43.1775802,70.5691589 C45.0830006,68.3620724 47.9051798,66.9686916 51.0509209,66.9686916 C54.1966621,66.9686916 57.0188413,68.3620724 58.9242616,70.5691589 C60.5169054,72.4017967 61.4768059,74.792507 61.4768059,77.4100467 C61.4768059,83.1779953 56.8103236,87.8514019 51.0509209,87.8514019 C45.2915183,87.8514019 40.625036,83.1779953 40.625036,77.4100467 C40.625036,74.792507 41.5849364,72.4017967 43.1775802,70.5691589 M97.1045713,70.5691589 C99.0099917,68.3620724 101.832171,66.9686916 104.977912,66.9686916 C108.123653,66.9686916 110.945832,68.3620724 112.851253,70.5691589 C114.443897,72.4017967 115.403797,74.792507 115.403797,77.4100467 C115.403797,83.1779953 110.737315,87.8514019 104.977912,87.8514019 C99.2185094,87.8514019 94.5520271,83.1779953 94.5520271,77.4100467 C94.5520271,74.792507 95.5119275,72.4017967 97.1045713,70.5691589 M33.2478236,49.1175748 C35.2610979,45.0274439 40.1289076,35.165764 41.8258103,31.7885257 C42.1925138,31.0612313 42.9367063,30.603972 43.7492063,30.603972 L60.398266,30.603972 L60.398266,66.0073668 C57.8529121,63.9082944 54.5993169,62.6481308 51.0509209,62.6481308 C45.3849917,62.6481308 40.4596598,65.8633481 37.9933988,70.5691589 L34.5133103,70.5691589 C33.3233213,70.5691589 32.3562306,69.6006332 32.3562306,68.4088785 L32.3562306,52.941271 C32.3562306,51.6126986 32.6618169,50.305729 33.2478236,49.1175748 M64.7124253,20.1626168 C64.7124253,18.9708621 65.679516,18.0023364 66.869505,18.0023364 L120.796496,18.0023364 C121.986485,18.0023364 122.953576,18.9708621 122.953576,20.1626168 L122.953576,68.4088785 C122.953576,69.6006332 121.986485,70.5691589 120.796496,70.5691589 L118.035434,70.5691589 C115.569173,65.8633481 110.643841,62.6481308 104.977912,62.6481308 C99.3119829,62.6481308 94.386651,65.8633481 91.9203899,70.5691589 L64.7124253,70.5691589 L64.7124253,20.1626168 Z M43.1775802,538.069159 C45.0830006,535.862072 47.9051798,534.468692 51.0509209,534.468692 C54.1966621,534.468692 57.0188413,535.862072 58.9242616,538.069159 C60.5169054,539.901797 61.4768059,542.292507 61.4768059,544.910047 C61.4768059,550.677995 56.8103236,555.351402 51.0509209,555.351402 C45.2915183,555.351402 40.625036,550.677995 40.625036,544.910047 C40.625036,542.292507 41.5849364,539.901797 43.1775802,538.069159 Z M97.1045713,538.069159 C99.0099917,535.862072 101.832171,534.468692 104.977912,534.468692 C108.123653,534.468692 110.945832,535.862072 112.851253,538.069159 C114.443897,539.901797 115.403797,542.292507 115.403797,544.910047 C115.403797,550.677995 110.737315,555.351402 104.977912,555.351402 C99.2185094,555.351402 94.5520271,550.677995 94.5520271,544.910047 C94.5520271,542.292507 95.5119275,539.901797 97.1045713,538.069159 Z M33.2478236,516.617575 C35.2610979,512.527444 40.1289076,502.665764 41.8258103,499.288526 C42.1925138,498.561231 42.9367063,498.103972 43.7492063,498.103972 L60.398266,498.103972 L60.398266,533.507367 C57.8529121,531.408294 54.5993169,530.148131 51.0509209,530.148131 C45.3849917,530.148131 40.4596598,533.363348 37.9933988,538.069159 L34.5133103,538.069159 C33.3233213,538.069159 32.3562306,537.100633 32.3562306,535.908879 L32.3562306,520.441271 C32.3562306,519.112699 32.6618169,517.805729 33.2478236,516.617575 Z M64.7124253,487.662617 C64.7124253,486.470862 65.679516,485.502336 66.869505,485.502336 L120.796496,485.502336 C121.986485,485.502336 122.953576,486.470862 122.953576,487.662617 L122.953576,535.908879 C122.953576,537.100633 121.986485,538.069159 120.796496,538.069159 L118.035434,538.069159 C115.569173,533.363348 110.643841,530.148131 104.977912,530.148131 C99.3119829,530.148131 94.386651,533.363348 91.9203899,538.069159 L64.7124253,538.069159 L64.7124253,487.662617 Z M43.1775802,382.569159 C45.0830006,380.362072 47.9051798,378.968692 51.0509209,378.968692 C54.1966621,378.968692 57.0188413,380.362072 58.9242616,382.569159 C60.5169054,384.401797 61.4768059,386.792507 61.4768059,389.410047 C61.4768059,395.177995 56.8103236,399.851402 51.0509209,399.851402 C45.2915183,399.851402 40.625036,395.177995 40.625036,389.410047 C40.625036,386.792507 41.5849364,384.401797 43.1775802,382.569159 Z M97.1045713,382.569159 C99.0099917,380.362072 101.832171,378.968692 104.977912,378.968692 C108.123653,378.968692 110.945832,380.362072 112.851253,382.569159 C114.443897,384.401797 115.403797,386.792507 115.403797,389.410047 C115.403797,395.177995 110.737315,399.851402 104.977912,399.851402 C99.2185094,399.851402 94.5520271,395.177995 94.5520271,389.410047 C94.5520271,386.792507 95.5119275,384.401797 97.1045713,382.569159 Z M33.2478236,361.117575 C35.2610979,357.027444 40.1289076,347.165764 41.8258103,343.788526 C42.1925138,343.061231 42.9367063,342.603972 43.7492063,342.603972 L60.398266,342.603972 L60.398266,378.007367 C57.8529121,375.908294 54.5993169,374.648131 51.0509209,374.648131 C45.3849917,374.648131 40.4596598,377.863348 37.9933988,382.569159 L34.5133103,382.569159 C33.3233213,382.569159 32.3562306,381.600633 32.3562306,380.408879 L32.3562306,364.941271 C32.3562306,363.612699 32.6618169,362.305729 33.2478236,361.117575 Z M64.7124253,332.162617 C64.7124253,330.970862 65.679516,330.002336 66.869505,330.002336 L120.796496,330.002336 C121.986485,330.002336 122.953576,330.970862 122.953576,332.162617 L122.953576,380.408879 C122.953576,381.600633 121.986485,382.569159 120.796496,382.569159 L118.035434,382.569159 C115.569173,377.863348 110.643841,374.648131 104.977912,374.648131 C99.3119829,374.648131 94.386651,377.863348 91.9203899,382.569159 L64.7124253,382.569159 L64.7124253,332.162617 Z M43.1775802,228.069159 C45.0830006,225.862072 47.9051798,224.468692 51.0509209,224.468692 C54.1966621,224.468692 57.0188413,225.862072 58.9242616,228.069159 C60.5169054,229.901797 61.4768059,232.292507 61.4768059,234.910047 C61.4768059,240.677995 56.8103236,245.351402 51.0509209,245.351402 C45.2915183,245.351402 40.625036,240.677995 40.625036,234.910047 C40.625036,232.292507 41.5849364,229.901797 43.1775802,228.069159 Z M97.1045713,228.069159 C99.0099917,225.862072 101.832171,224.468692 104.977912,224.468692 C108.123653,224.468692 110.945832,225.862072 112.851253,228.069159 C114.443897,229.901797 115.403797,232.292507 115.403797,234.910047 C115.403797,240.677995 110.737315,245.351402 104.977912,245.351402 C99.2185094,245.351402 94.5520271,240.677995 94.5520271,234.910047 C94.5520271,232.292507 95.5119275,229.901797 97.1045713,228.069159 Z M33.2478236,206.617575 C35.2610979,202.527444 40.1289076,192.665764 41.8258103,189.288526 C42.1925138,188.561231 42.9367063,188.103972 43.7492063,188.103972 L60.398266,188.103972 L60.398266,223.507367 C57.8529121,221.408294 54.5993169,220.148131 51.0509209,220.148131 C45.3849917,220.148131 40.4596598,223.363348 37.9933988,228.069159 L34.5133103,228.069159 C33.3233213,228.069159 32.3562306,227.100633 32.3562306,225.908879 L32.3562306,210.441271 C32.3562306,209.112699 32.6618169,207.805729 33.2478236,206.617575 Z M64.7124253,177.662617 C64.7124253,176.470862 65.679516,175.502336 66.869505,175.502336 L120.796496,175.502336 C121.986485,175.502336 122.953576,176.470862 122.953576,177.662617 L122.953576,225.908879 C122.953576,227.100633 121.986485,228.069159 120.796496,228.069159 L118.035434,228.069159 C115.569173,223.363348 110.643841,220.148131 104.977912,220.148131 C99.3119829,220.148131 94.386651,223.363348 91.9203899,228.069159 L64.7124253,228.069159 L64.7124253,177.662617 Z M43.1775802,694.569159 C45.0830006,692.362072 47.9051798,690.968692 51.0509209,690.968692 C54.1966621,690.968692 57.0188413,692.362072 58.9242616,694.569159 C60.5169054,696.401797 61.4768059,698.792507 61.4768059,701.410047 C61.4768059,707.177995 56.8103236,711.851402 51.0509209,711.851402 C45.2915183,711.851402 40.625036,707.177995 40.625036,701.410047 C40.625036,698.792507 41.5849364,696.401797 43.1775802,694.569159 Z M97.1045713,694.569159 C99.0099917,692.362072 101.832171,690.968692 104.977912,690.968692 C108.123653,690.968692 110.945832,692.362072 112.851253,694.569159 C114.443897,696.401797 115.403797,698.792507 115.403797,701.410047 C115.403797,707.177995 110.737315,711.851402 104.977912,711.851402 C99.2185094,711.851402 94.5520271,707.177995 94.5520271,701.410047 C94.5520271,698.792507 95.5119275,696.401797 97.1045713,694.569159 Z M33.2478236,673.117575 C35.2610979,669.027444 40.1289076,659.165764 41.8258103,655.788526 C42.1925138,655.061231 42.9367063,654.603972 43.7492063,654.603972 L60.398266,654.603972 L60.398266,690.007367 C57.8529121,687.908294 54.5993169,686.648131 51.0509209,686.648131 C45.3849917,686.648131 40.4596598,689.863348 37.9933988,694.569159 L34.5133103,694.569159 C33.3233213,694.569159 32.3562306,693.600633 32.3562306,692.408879 L32.3562306,676.941271 C32.3562306,675.612699 32.6618169,674.305729 33.2478236,673.117575 Z M64.7124253,644.162617 C64.7124253,642.970862 65.679516,642.002336 66.869505,642.002336 L120.796496,642.002336 C121.986485,642.002336 122.953576,642.970862 122.953576,644.162617 L122.953576,692.408879 C122.953576,693.600633 121.986485,694.569159 120.796496,694.569159 L118.035434,694.569159 C115.569173,689.863348 110.643841,686.648131 104.977912,686.648131 C99.3119829,686.648131 94.386651,689.863348 91.9203899,694.569159 L64.7124253,694.569159 L64.7124253,644.162617 Z M43.1775802,848.848224 C45.0830006,846.641138 47.9051798,845.247757 51.0509209,845.247757 C54.1966621,845.247757 57.0188413,846.641138 58.9242616,848.848224 C60.5169054,850.680862 61.4768059,853.071572 61.4768059,855.689112 C61.4768059,861.457061 56.8103236,866.130467 51.0509209,866.130467 C45.2915183,866.130467 40.625036,861.457061 40.625036,855.689112 C40.625036,853.071572 41.5849364,850.680862 43.1775802,848.848224 Z M97.1045713,848.848224 C99.0099917,846.641138 101.832171,845.247757 104.977912,845.247757 C108.123653,845.247757 110.945832,846.641138 112.851253,848.848224 C114.443897,850.680862 115.403797,853.071572 115.403797,855.689112 C115.403797,861.457061 110.737315,866.130467 104.977912,866.130467 C99.2185094,866.130467 94.5520271,861.457061 94.5520271,855.689112 C94.5520271,853.071572 95.5119275,850.680862 97.1045713,848.848224 Z M33.2478236,827.39664 C35.2610979,823.306509 40.1289076,813.444829 41.8258103,810.067591 C42.1925138,809.340297 42.9367063,808.883037 43.7492063,808.883037 L60.398266,808.883037 L60.398266,844.286432 C57.8529121,842.18736 54.5993169,840.927196 51.0509209,840.927196 C45.3849917,840.927196 40.4596598,844.142414 37.9933988,848.848224 L34.5133103,848.848224 C33.3233213,848.848224 32.3562306,847.879699 32.3562306,846.687944 L32.3562306,831.220336 C32.3562306,829.891764 32.6618169,828.584794 33.2478236,827.39664 Z M64.7124253,798.441682 C64.7124253,797.249928 65.679516,796.281402 66.869505,796.281402 L120.796496,796.281402 C121.986485,796.281402 122.953576,797.249928 122.953576,798.441682 L122.953576,846.687944 C122.953576,847.879699 121.986485,848.848224 120.796496,848.848224 L118.035434,848.848224 C115.569173,844.142414 110.643841,840.927196 104.977912,840.927196 C99.3119829,840.927196 94.386651,844.142414 91.9203899,848.848224 L64.7124253,848.848224 L64.7124253,798.441682 Z M43.1775802,1316.34822 C45.0830006,1314.14114 47.9051798,1312.74776 51.0509209,1312.74776 C54.1966621,1312.74776 57.0188413,1314.14114 58.9242616,1316.34822 C60.5169054,1318.18086 61.4768059,1320.57157 61.4768059,1323.18911 C61.4768059,1328.95706 56.8103236,1333.63047 51.0509209,1333.63047 C45.2915183,1333.63047 40.625036,1328.95706 40.625036,1323.18911 C40.625036,1320.57157 41.5849364,1318.18086 43.1775802,1316.34822 Z M97.1045713,1316.34822 C99.0099917,1314.14114 101.832171,1312.74776 104.977912,1312.74776 C108.123653,1312.74776 110.945832,1314.14114 112.851253,1316.34822 C114.443897,1318.18086 115.403797,1320.57157 115.403797,1323.18911 C115.403797,1328.95706 110.737315,1333.63047 104.977912,1333.63047 C99.2185094,1333.63047 94.5520271,1328.95706 94.5520271,1323.18911 C94.5520271,1320.57157 95.5119275,1318.18086 97.1045713,1316.34822 Z M33.2478236,1294.89664 C35.2610979,1290.80651 40.1289076,1280.94483 41.8258103,1277.56759 C42.1925138,1276.8403 42.9367063,1276.38304 43.7492063,1276.38304 L60.398266,1276.38304 L60.398266,1311.78643 C57.8529121,1309.68736 54.5993169,1308.4272 51.0509209,1308.4272 C45.3849917,1308.4272 40.4596598,1311.64241 37.9933988,1316.34822 L34.5133103,1316.34822 C33.3233213,1316.34822 32.3562306,1315.3797 32.3562306,1314.18794 L32.3562306,1298.72034 C32.3562306,1297.39176 32.6618169,1296.08479 33.2478236,1294.89664 Z M64.7124253,1265.94168 C64.7124253,1264.74993 65.679516,1263.7814 66.869505,1263.7814 L120.796496,1263.7814 C121.986485,1263.7814 122.953576,1264.74993 122.953576,1265.94168 L122.953576,1314.18794 C122.953576,1315.3797 121.986485,1316.34822 120.796496,1316.34822 L118.035434,1316.34822 C115.569173,1311.64241 110.643841,1308.4272 104.977912,1308.4272 C99.3119829,1308.4272 94.386651,1311.64241 91.9203899,1316.34822 L64.7124253,1316.34822 L64.7124253,1265.94168 Z M43.1775802,1160.84822 C45.0830006,1158.64114 47.9051798,1157.24776 51.0509209,1157.24776 C54.1966621,1157.24776 57.0188413,1158.64114 58.9242616,1160.84822 C60.5169054,1162.68086 61.4768059,1165.07157 61.4768059,1167.68911 C61.4768059,1173.45706 56.8103236,1178.13047 51.0509209,1178.13047 C45.2915183,1178.13047 40.625036,1173.45706 40.625036,1167.68911 C40.625036,1165.07157 41.5849364,1162.68086 43.1775802,1160.84822 Z M97.1045713,1160.84822 C99.0099917,1158.64114 101.832171,1157.24776 104.977912,1157.24776 C108.123653,1157.24776 110.945832,1158.64114 112.851253,1160.84822 C114.443897,1162.68086 115.403797,1165.07157 115.403797,1167.68911 C115.403797,1173.45706 110.737315,1178.13047 104.977912,1178.13047 C99.2185094,1178.13047 94.5520271,1173.45706 94.5520271,1167.68911 C94.5520271,1165.07157 95.5119275,1162.68086 97.1045713,1160.84822 Z M33.2478236,1139.39664 C35.2610979,1135.30651 40.1289076,1125.44483 41.8258103,1122.06759 C42.1925138,1121.3403 42.9367063,1120.88304 43.7492063,1120.88304 L60.398266,1120.88304 L60.398266,1156.28643 C57.8529121,1154.18736 54.5993169,1152.9272 51.0509209,1152.9272 C45.3849917,1152.9272 40.4596598,1156.14241 37.9933988,1160.84822 L34.5133103,1160.84822 C33.3233213,1160.84822 32.3562306,1159.8797 32.3562306,1158.68794 L32.3562306,1143.22034 C32.3562306,1141.89176 32.6618169,1140.58479 33.2478236,1139.39664 Z M64.7124253,1110.44168 C64.7124253,1109.24993 65.679516,1108.2814 66.869505,1108.2814 L120.796496,1108.2814 C121.986485,1108.2814 122.953576,1109.24993 122.953576,1110.44168 L122.953576,1158.68794 C122.953576,1159.8797 121.986485,1160.84822 120.796496,1160.84822 L118.035434,1160.84822 C115.569173,1156.14241 110.643841,1152.9272 104.977912,1152.9272 C99.3119829,1152.9272 94.386651,1156.14241 91.9203899,1160.84822 L64.7124253,1160.84822 L64.7124253,1110.44168 Z M43.1775802,1006.34822 C45.0830006,1004.14114 47.9051798,1002.74776 51.0509209,1002.74776 C54.1966621,1002.74776 57.0188413,1004.14114 58.9242616,1006.34822 C60.5169054,1008.18086 61.4768059,1010.57157 61.4768059,1013.18911 C61.4768059,1018.95706 56.8103236,1023.63047 51.0509209,1023.63047 C45.2915183,1023.63047 40.625036,1018.95706 40.625036,1013.18911 C40.625036,1010.57157 41.5849364,1008.18086 43.1775802,1006.34822 Z M97.1045713,1006.34822 C99.0099917,1004.14114 101.832171,1002.74776 104.977912,1002.74776 C108.123653,1002.74776 110.945832,1004.14114 112.851253,1006.34822 C114.443897,1008.18086 115.403797,1010.57157 115.403797,1013.18911 C115.403797,1018.95706 110.737315,1023.63047 104.977912,1023.63047 C99.2185094,1023.63047 94.5520271,1018.95706 94.5520271,1013.18911 C94.5520271,1010.57157 95.5119275,1008.18086 97.1045713,1006.34822 Z M33.2478236,984.89664 C35.2610979,980.806509 40.1289076,970.944829 41.8258103,967.567591 C42.1925138,966.840297 42.9367063,966.383037 43.7492063,966.383037 L60.398266,966.383037 L60.398266,1001.78643 C57.8529121,999.68736 54.5993169,998.427196 51.0509209,998.427196 C45.3849917,998.427196 40.4596598,1001.64241 37.9933988,1006.34822 L34.5133103,1006.34822 C33.3233213,1006.34822 32.3562306,1005.3797 32.3562306,1004.18794 L32.3562306,988.720336 C32.3562306,987.391764 32.6618169,986.084794 33.2478236,984.89664 Z M64.7124253,955.941682 C64.7124253,954.749928 65.679516,953.781402 66.869505,953.781402 L120.796496,953.781402 C121.986485,953.781402 122.953576,954.749928 122.953576,955.941682 L122.953576,1004.18794 C122.953576,1005.3797 121.986485,1006.34822 120.796496,1006.34822 L118.035434,1006.34822 C115.569173,1001.64241 110.643841,998.427196 104.977912,998.427196 C99.3119829,998.427196 94.386651,1001.64241 91.9203899,1006.34822 L64.7124253,1006.34822 L64.7124253,955.941682 Z M43.1775802,1472.84822 C45.0830006,1470.64114 47.9051798,1469.24776 51.0509209,1469.24776 C54.1966621,1469.24776 57.0188413,1470.64114 58.9242616,1472.84822 C60.5169054,1474.68086 61.4768059,1477.07157 61.4768059,1479.68911 C61.4768059,1485.45706 56.8103236,1490.13047 51.0509209,1490.13047 C45.2915183,1490.13047 40.625036,1485.45706 40.625036,1479.68911 C40.625036,1477.07157 41.5849364,1474.68086 43.1775802,1472.84822 Z M97.1045713,1472.84822 C99.0099917,1470.64114 101.832171,1469.24776 104.977912,1469.24776 C108.123653,1469.24776 110.945832,1470.64114 112.851253,1472.84822 C114.443897,1474.68086 115.403797,1477.07157 115.403797,1479.68911 C115.403797,1485.45706 110.737315,1490.13047 104.977912,1490.13047 C99.2185094,1490.13047 94.5520271,1485.45706 94.5520271,1479.68911 C94.5520271,1477.07157 95.5119275,1474.68086 97.1045713,1472.84822 Z M33.2478236,1451.39664 C35.2610979,1447.30651 40.1289076,1437.44483 41.8258103,1434.06759 C42.1925138,1433.3403 42.9367063,1432.88304 43.7492063,1432.88304 L60.398266,1432.88304 L60.398266,1468.28643 C57.8529121,1466.18736 54.5993169,1464.9272 51.0509209,1464.9272 C45.3849917,1464.9272 40.4596598,1468.14241 37.9933988,1472.84822 L34.5133103,1472.84822 C33.3233213,1472.84822 32.3562306,1471.8797 32.3562306,1470.68794 L32.3562306,1455.22034 C32.3562306,1453.89176 32.6618169,1452.58479 33.2478236,1451.39664 Z M64.7124253,1422.44168 C64.7124253,1421.24993 65.679516,1420.2814 66.869505,1420.2814 L120.796496,1420.2814 C121.986485,1420.2814 122.953576,1421.24993 122.953576,1422.44168 L122.953576,1470.68794 C122.953576,1471.8797 121.986485,1472.84822 120.796496,1472.84822 L118.035434,1472.84822 C115.569173,1468.14241 110.643841,1464.9272 104.977912,1464.9272 C99.3119829,1464.9272 94.386651,1468.14241 91.9203899,1472.84822 L64.7124253,1472.84822 L64.7124253,1422.44168 Z"/>
      </g>
    </g>
  </g>
</svg>
