<?xml version="1.0" encoding="UTF-8"?>
<svg width="380px" height="240px" viewBox="0 0 380 240" version="1.1" xmlns="http://www.w3.org/2000/svg" xmlns:xlink="http://www.w3.org/1999/xlink">
    <!-- Generator: Sketch 49.3 (51167) - http://www.bohemiancoding.com/sketch -->
    <title>Artboard</title>
    <desc>Created with Sketch.</desc>
    <defs></defs>
    <g id="Artboard" stroke="none" stroke-width="1" fill="none" fill-rule="evenodd">
        <rect id="Rectangle" fill="#3573C3" x="0" y="0" width="380" height="240"></rect>
        <path d="M218.567652,48.8452383 L218.567681,158.303867 L159.406217,158.303867 C153.868266,147.747345 142.931275,141.134294 131.010324,141.134294 C119.089373,141.134294 108.152381,147.747345 102.614431,158.303867 L96.6145116,158.303867 C94.0429558,158.299475 91.9593921,156.215911 91.955,153.644355 L91.955,48.8452383 C91.9725161,46.283035 94.052252,44.2139826 96.6145116,44.2096626 L213.900162,44.2096626 C215.136406,44.1968435 216.326204,44.6800833 217.203401,45.5512824 C218.080598,46.4224815 218.571989,47.6089359 218.567652,48.8452383 Z M287.048111,111.71673 C282.699765,102.868445 272.120121,81.3979903 268.410065,74.1214928 C267.604163,72.543715 265.99276,71.5400409 264.221291,71.5124855 L227.966462,71.5124855 L227.966462,148.37049 C241.638965,137.17169 261.78834,139.114271 273.069576,152.718836 C274.468607,154.430671 275.685279,156.283756 276.699846,158.248017 L284.295488,158.248017 C286.867044,158.243625 288.950608,156.160061 288.955,153.588505 L288.955,119.934704 C288.945523,117.086827 288.293714,114.277777 287.048111,111.71673 Z M148.108497,158.303867 C140.924028,149.9955 128.821496,148.023227 119.370883,153.620678 C109.92027,159.21813 105.833318,170.779184 109.666365,181.072546 C113.499412,191.365908 124.152609,197.438019 134.962516,195.49085 C145.772422,193.54368 153.637263,184.135948 153.637678,173.152071 C153.708374,167.686747 151.736644,162.391814 148.108497,158.303867 Z M265.394148,158.303867 C258.209679,149.9955 246.107146,148.023227 236.656534,153.620678 C227.205921,159.21813 223.118969,170.779184 226.952016,181.072546 C230.785062,191.365908 241.43826,197.438019 252.248167,195.49085 C263.058073,193.54368 270.922914,184.135948 270.923329,173.152071 C270.998414,167.688863 269.032471,162.39419 265.410105,158.303867 L265.394148,158.303867 Z" id="Shape" fill="#FFFFFF" fill-rule="nonzero"></path>
    </g>
</svg>