<svg xmlns="http://www.w3.org/2000/svg" xmlns:xlink="http://www.w3.org/1999/xlink" width="400" height="400" viewBox="0 0 400 400">
  <defs>
    <rect id="carrier_01-a" width="400" height="400"/>
  </defs>
  <g fill="none" fill-rule="evenodd">
    <mask id="carrier_01-b" fill="#fff">
      <use xlink:href="#carrier_01-a"/>
    </mask>
    <use fill="#FFF" xlink:href="#carrier_01-a"/>
    <g mask="url(#carrier_01-b)">
      <g transform="translate(38 129)">
        <path fill="#3573C3" d="M126.620647,42.3415313 L126.620647,63.512279 L140.929275,63.512279 L140.929275,84.6830267 L126.620647,84.6830267 L126.620647,105.853774 L70.4646737,105.853774 L70.4646737,111.614522 C70.4646737,132.857279 54.818656,141.138354 35.2323728,141.138354 L17.6162223,141.138354 C35.2323728,141.138354 35.2323728,117.37527 35.2323728,117.37527 L35.2323728,105.853774 L19.773302,105.853774 C8.85128872,105.853774 7.1902655e-05,96.9894239 7.1902655e-05,86.0512042 L7.1902655e-05,19.8026061 C7.1902655e-05,8.86438647 8.85128872,3.60046729e-05 19.773302,3.60046729e-05 L126.620647,3.60046729e-05 L126.620647,21.1707837 L140.929275,21.1707837 L140.929275,42.3415313 L126.620647,42.3415313 Z"/>
        <path fill="#FFF" d="M97.7516233,70.5691589 C95.846203,68.3620724 93.0240238,66.9686916 89.8782826,66.9686916 C86.7325415,66.9686916 83.9103623,68.3620724 82.0049419,70.5691589 C80.4122981,72.4017967 79.4523977,74.792507 79.4523977,77.4100467 C79.4523977,83.1779953 84.11888,87.8514019 89.8782826,87.8514019 C95.6376853,87.8514019 100.304168,83.1779953 100.304168,77.4100467 C100.304168,74.792507 99.3442671,72.4017967 97.7516233,70.5691589 M43.8246322,70.5691589 C41.9192118,68.3620724 39.0970326,66.9686916 35.9512915,66.9686916 C32.8055503,66.9686916 29.9833711,68.3620724 28.0779508,70.5691589 C26.485307,72.4017967 25.5254065,74.792507 25.5254065,77.4100467 C25.5254065,83.1779953 30.1918888,87.8514019 35.9512915,87.8514019 C41.7106941,87.8514019 46.3771764,83.1779953 46.3771764,77.4100467 C46.3771764,74.792507 45.417276,72.4017967 43.8246322,70.5691589 M107.68138,49.1175748 C105.668106,45.0274439 100.800296,35.165764 99.1033933,31.7885257 C98.7366897,31.0612313 97.9924972,30.603972 97.1799972,30.603972 L80.5309375,30.603972 L80.5309375,66.0073668 C83.0762915,63.9082944 86.3298866,62.6481308 89.8782826,62.6481308 C95.5442118,62.6481308 100.469544,65.8633481 102.935805,70.5691589 L106.415893,70.5691589 C107.605882,70.5691589 108.572973,69.6006332 108.572973,68.4088785 L108.572973,52.941271 C108.572973,51.6126986 108.267387,50.305729 107.68138,49.1175748 M76.2167782,20.1626168 L76.2167782,70.5691589 L49.0088136,70.5691589 C46.5425525,65.8633481 41.6172207,62.6481308 35.9512915,62.6481308 C30.2853623,62.6481308 25.3600304,65.8633481 22.8937694,70.5691589 L20.1327074,70.5691589 C18.9427185,70.5691589 17.9756278,69.6006332 17.9756278,68.4088785 L17.9756278,20.1626168 C17.9756278,18.9708621 18.9427185,18.0023364 20.1327074,18.0023364 L74.0596986,18.0023364 C75.2496875,18.0023364 76.2167782,18.9708621 76.2167782,20.1626168"/>
      </g>
    </g>
    <g mask="url(#carrier_01-b)">
      <g class="shipments" transform="translate(222 -27)">
        <path fill="#3573C3" d="M140.929204,330.882944 L140.929204,397.131542 C140.929204,408.069762 132.077987,416.934112 121.155973,416.934112 L105.696903,416.934112 L105.696903,428.455607 C105.696903,428.455607 105.696903,452.218692 123.313053,452.218692 L105.696903,452.218692 C86.1106195,452.218692 70.4646018,443.937617 70.4646018,422.69486 L70.4646018,416.934112 L14.380531,416.934112 C14.380531,403.702395 0,403.702395 0,390.470678 C0,377.23896 14.380531,377.23896 14.380531,364.007243 C14.380531,350.775526 0,350.775526 0,337.543808 C0,324.312091 14.380531,324.312091 14.380531,311.080374 L121.155973,311.080374 C132.077987,311.080374 140.929204,319.944724 140.929204,330.882944 Z M14.380531,466.620561 L121.155973,466.620561 C132.077987,466.620561 140.929204,475.484911 140.929204,486.423131 L140.929204,552.671729 C140.929204,563.609949 132.077987,572.474299 121.155973,572.474299 L105.696903,572.474299 L105.696903,583.995794 C105.696903,583.995794 105.696903,607.758879 123.313053,607.758879 L105.696903,607.758879 C86.1106195,607.758879 70.4646018,599.477804 70.4646018,578.235047 L70.4646018,572.474299 L14.380531,572.474299 L0,546.009424 L14.380531,519.54455 L0,493.085436 L14.380531,466.620561 Z M140.929204,641.963318 L140.929204,708.211916 C140.929204,719.150136 132.077987,728.014486 121.155973,728.014486 L105.696903,728.014486 L105.696903,739.535981 C105.696903,739.535981 105.696903,763.299065 123.313053,763.299065 L105.696903,763.299065 C86.1106195,763.299065 70.4646018,755.017991 70.4646018,733.775234 L70.4646018,728.014486 L14.380531,728.014486 L14.380531,701.479042 L0.118639381,692.704703 L0,692.776713 L0,657.398521 L0.118639381,657.47053 L14.380531,648.696192 L14.380531,622.160748 L121.155973,622.160748 C132.077987,622.160748 140.929204,631.025098 140.929204,641.963318 Z M140.929204,19.8025701 L140.929204,86.0511682 C140.929204,96.9893879 132.077987,105.853738 121.155973,105.853738 L105.696903,105.853738 L105.696903,117.375234 C105.696903,117.375234 105.696903,141.138318 123.313053,141.138318 L105.696903,141.138318 C86.1106195,141.138318 70.4646018,132.857243 70.4646018,111.614486 L70.4646018,105.853738 L0,105.853738 C7.94164823,105.853738 14.380531,97.9543131 14.380531,88.2114486 C14.380531,78.4685841 7.94164823,70.5691589 0,70.5691589 C7.94164823,70.5691589 14.380531,62.6697336 14.380531,52.9268692 C14.380531,43.1840047 7.94164823,35.2845794 0,35.2845794 C7.94164823,35.2845794 14.380531,27.3851542 14.380531,17.6422897 C14.380531,7.89942523 7.94164823,-1.70530257e-13 0,-1.70530257e-13 L121.155973,-1.70530257e-13 C132.077987,-1.70530257e-13 140.929204,8.86435047 140.929204,19.8025701 Z M141,954.043692 L141,1020.29229 C141,1031.23051 132.148783,1040.09486 121.22677,1040.09486 L105.767699,1040.09486 L105.767699,1051.61636 C105.767699,1051.61636 105.767699,1075.37944 123.38385,1075.37944 L105.767699,1075.37944 C86.1814159,1075.37944 70.5353982,1067.09836 70.5353982,1045.85561 L70.5353982,1040.09486 L0.142699115,1040.09486 L0.142699115,1018.92411 L14.4513274,1018.92411 L14.4513274,997.753364 L0.142699115,997.753364 L0.142699115,976.582617 L14.4513274,976.582617 L14.4513274,955.411869 L0.142699115,955.411869 L0.142699115,934.241121 L121.22677,934.241121 C132.148783,934.241121 141,943.105472 141,954.043692 Z M141,1109.58388 L141,1175.83248 C141,1186.7707 132.148783,1195.63505 121.22677,1195.63505 L105.767699,1195.63505 L105.767699,1207.15654 C105.767699,1207.15654 105.767699,1230.91963 123.38385,1230.91963 L105.767699,1230.91963 C86.1814159,1230.91963 70.5353982,1222.63855 70.5353982,1201.39579 L70.5353982,1195.63505 L14.4513274,1195.63505 C14.4513274,1182.40333 0.0707964602,1182.40333 0.0707964602,1169.17161 C0.0707964602,1155.93989 14.4513274,1155.93989 14.4513274,1142.70818 C14.4513274,1129.47646 0.0707964602,1129.47646 0.0707964602,1116.24474 C0.0707964602,1103.01303 14.4513274,1103.01303 14.4513274,1089.78131 L121.22677,1089.78131 C132.148783,1089.78131 141,1098.64566 141,1109.58388 Z M14.4513274,1245.3215 L121.22677,1245.3215 C132.148783,1245.3215 141,1254.18585 141,1265.12407 L141,1331.37266 C141,1342.31088 132.148783,1351.17523 121.22677,1351.17523 L105.767699,1351.17523 L105.767699,1362.69673 C105.767699,1362.69673 105.767699,1386.45981 123.38385,1386.45981 L105.767699,1386.45981 C86.1814159,1386.45981 70.5353982,1378.17874 70.5353982,1356.93598 L70.5353982,1351.17523 L14.4513274,1351.17523 L0.0707964602,1324.71036 L14.4513274,1298.24548 L0.0707964602,1271.78637 L14.4513274,1245.3215 Z M141,1420.66425 L141,1486.91285 C141,1497.85107 132.148783,1506.71542 121.22677,1506.71542 L105.767699,1506.71542 L105.767699,1518.23692 C105.767699,1518.23692 105.767699,1542 123.38385,1542 L105.767699,1542 C86.1814159,1542 70.5353982,1533.71893 70.5353982,1512.47617 L70.5353982,1506.71542 L14.4513274,1506.71542 L14.4513274,1480.17998 L0.189435841,1471.40564 L0.0707964602,1471.47765 L0.0707964602,1436.09946 L0.189435841,1436.17146 L14.4513274,1427.39713 L14.4513274,1400.86168 L121.22677,1400.86168 C132.148783,1400.86168 141,1409.72603 141,1420.66425 Z M141,798.503505 L141,864.752103 C141,875.690322 132.148783,884.554673 121.22677,884.554673 L105.767699,884.554673 L105.767699,896.076168 C105.767699,896.076168 105.767699,919.839252 123.38385,919.839252 L105.767699,919.839252 C86.1814159,919.839252 70.5353982,911.558178 70.5353982,890.315421 L70.5353982,884.554673 L0.0707964602,884.554673 C8.01244469,884.554673 14.4513274,876.655248 14.4513274,866.912383 C14.4513274,857.169519 8.01244469,849.270093 0.0707964602,849.270093 C8.01244469,849.270093 14.4513274,841.370668 14.4513274,831.627804 C14.4513274,821.884939 8.01244469,813.985514 0.0707964602,813.985514 C8.01244469,813.985514 14.4513274,806.086089 14.4513274,796.343224 C14.4513274,786.60036 8.01244469,778.700935 0.0707964602,778.700935 L121.22677,778.700935 C132.148783,778.700935 141,787.565285 141,798.503505 Z M140.929204,175.342757 L140.929204,241.591355 C140.929204,252.529575 132.077987,261.393925 121.155973,261.393925 L105.696903,261.393925 L105.696903,272.915421 C105.696903,272.915421 105.696903,296.678505 123.313053,296.678505 L105.696903,296.678505 C86.1106195,296.678505 70.4646018,288.39743 70.4646018,267.154673 L70.4646018,261.393925 L0.0719026549,261.393925 L0.0719026549,240.223178 L14.380531,240.223178 L14.380531,219.05243 L0.0719026549,219.05243 L0.0719026549,197.881682 L14.380531,197.881682 L14.380531,176.710935 L0.0719026549,176.710935 L0.0719026549,155.540187 L121.155973,155.540187 C132.077987,155.540187 140.929204,164.404537 140.929204,175.342757 Z"/>
        <path fill="#FFF" d="M122.234513,209.547196 L108.393252,209.547196 L108.393252,218.548364 L96.1698009,218.548364 L96.1698009,209.547196 L82.3285398,209.547196 C81.1385509,209.547196 80.1714602,210.515722 80.1714602,211.707477 L80.1714602,241.231308 C80.1714602,242.423063 81.1385509,243.391589 82.3285398,243.391589 L122.234513,243.391589 C123.424502,243.391589 124.391593,242.423063 124.391593,241.231308 L124.391593,211.707477 C124.391593,210.515722 123.424502,209.547196 122.234513,209.547196 Z M98.3268805,216.388084 L106.236173,216.388084 L106.236173,209.547196 L98.3268805,209.547196 L98.3268805,216.388084 Z M75.8573009,209.547196 L62.0160398,209.547196 L62.0160398,218.548364 L49.7925885,218.548364 L49.7925885,209.547196 L35.9513274,209.547196 C34.7613385,209.547196 33.7942478,210.515722 33.7942478,211.707477 L33.7942478,241.231308 C33.7942478,242.423063 34.7613385,243.391589 35.9513274,243.391589 L75.8573009,243.391589 C77.0472898,243.391589 78.0143805,242.423063 78.0143805,241.231308 L78.0143805,211.707477 C78.0143805,210.515722 77.0472898,209.547196 75.8573009,209.547196 Z M51.9496681,216.388084 L59.8589602,216.388084 L59.8589602,209.547196 L51.9496681,209.547196 L51.9496681,216.388084 Z M98.8661504,173.542523 L85.0248894,173.542523 L85.0248894,182.543692 L72.8014381,182.543692 L72.8014381,173.542523 L58.960177,173.542523 C57.7701881,173.542523 56.8030973,174.511049 56.8030973,175.702804 L56.8030973,205.226636 C56.8030973,206.41839 57.7701881,207.386916 58.960177,207.386916 L98.8661504,207.386916 C100.056139,207.386916 101.02323,206.41839 101.02323,205.226636 L101.02323,175.702804 C101.02323,174.511049 100.056139,173.542523 98.8661504,173.542523 Z M74.9585177,180.383411 L74.9585177,173.542523 L82.8678097,173.542523 L82.8678097,180.383411 L74.9585177,180.383411 Z M122.234513,365.087383 C123.424502,365.087383 124.391593,366.055909 124.391593,367.247664 L124.391593,396.771495 C124.391593,397.96325 123.424502,398.931776 122.234513,398.931776 L82.3285398,398.931776 C81.1385509,398.931776 80.1714602,397.96325 80.1714602,396.771495 L80.1714602,367.247664 C80.1714602,366.055909 81.1385509,365.087383 82.3285398,365.087383 L96.1698009,365.087383 L96.1698009,374.088551 L108.393252,374.088551 L108.393252,365.087383 L122.234513,365.087383 Z M98.3268805,371.928271 L98.3268805,365.087383 L106.236173,365.087383 L106.236173,371.928271 L98.3268805,371.928271 Z M75.8573009,365.087383 C77.0472898,365.087383 78.0143805,366.055909 78.0143805,367.247664 L78.0143805,396.771495 C78.0143805,397.96325 77.0472898,398.931776 75.8573009,398.931776 L35.9513274,398.931776 C34.7613385,398.931776 33.7942478,397.96325 33.7942478,396.771495 L33.7942478,367.247664 C33.7942478,366.055909 34.7613385,365.087383 35.9513274,365.087383 L49.7925885,365.087383 L49.7925885,374.088551 L62.0160398,374.088551 L62.0160398,365.087383 L75.8573009,365.087383 Z M51.9496681,371.928271 L51.9496681,365.087383 L59.8589602,365.087383 L59.8589602,371.928271 L51.9496681,371.928271 Z M98.8661504,329.08271 C100.056139,329.08271 101.02323,330.051236 101.02323,331.242991 L101.02323,360.766822 C101.02323,361.958577 100.056139,362.927103 98.8661504,362.927103 L58.960177,362.927103 C57.7701881,362.927103 56.8030973,361.958577 56.8030973,360.766822 L56.8030973,331.242991 C56.8030973,330.051236 57.7701881,329.08271 58.960177,329.08271 L72.8014381,329.08271 L72.8014381,338.083879 L85.0248894,338.083879 L85.0248894,329.08271 L98.8661504,329.08271 Z M74.9585177,335.923598 L74.9585177,329.08271 L82.8678097,329.08271 L82.8678097,335.923598 L74.9585177,335.923598 Z M122.234513,520.62757 C123.424862,520.62757 124.391593,521.596096 124.391593,522.78785 L124.391593,552.311682 C124.391593,553.503437 123.424862,554.471963 122.234513,554.471963 L82.3285398,554.471963 C81.1381914,554.471963 80.1714602,553.503437 80.1714602,552.311682 L80.1714602,522.78785 C80.1714602,521.596096 81.1381914,520.62757 82.3285398,520.62757 L96.1698009,520.62757 L96.1698009,529.628738 L108.393252,529.628738 L108.393252,520.62757 L122.234513,520.62757 Z M98.3268805,527.468458 L98.3268805,520.62757 L106.236173,520.62757 L106.236173,527.468458 L98.3268805,527.468458 Z M75.8573009,520.62757 C77.0472898,520.62757 78.0143805,521.596096 78.0143805,522.78785 L78.0143805,552.311682 C78.0143805,553.503437 77.0472898,554.471963 75.8573009,554.471963 L35.9513274,554.471963 C34.760979,554.471963 33.7942478,553.503437 33.7942478,552.311682 L33.7942478,522.78785 C33.7942478,521.596096 34.760979,520.62757 35.9513274,520.62757 L49.7925885,520.62757 L49.7925885,529.628738 L62.0160398,529.628738 L62.0160398,520.62757 L75.8573009,520.62757 Z M51.9496681,527.468458 L51.9496681,520.62757 L59.8589602,520.62757 L59.8589602,527.468458 L51.9496681,527.468458 Z M98.8661504,484.622897 C100.056139,484.622897 101.02323,485.591423 101.02323,486.783178 L101.02323,516.307009 C101.02323,517.498764 100.056139,518.46729 98.8661504,518.46729 L58.960177,518.46729 C57.7698285,518.46729 56.8030973,517.498764 56.8030973,516.307009 L56.8030973,486.783178 C56.8030973,485.591423 57.7698285,484.622897 58.960177,484.622897 L72.8014381,484.622897 L72.8014381,493.624065 L85.0248894,493.624065 L85.0248894,484.622897 L98.8661504,484.622897 Z M74.9585177,491.463785 L74.9585177,484.622897 L82.8678097,484.622897 L82.8678097,491.463785 L74.9585177,491.463785 Z M122.234513,676.167757 C123.424862,676.167757 124.391593,677.136283 124.391593,678.328037 L124.391593,707.851869 C124.391593,709.043624 123.424862,710.01215 122.234513,710.01215 L82.3285398,710.01215 C81.1381914,710.01215 80.1714602,709.043624 80.1714602,707.851869 L80.1714602,678.328037 C80.1714602,677.136283 81.1381914,676.167757 82.3285398,676.167757 L96.1698009,676.167757 L96.1698009,685.168925 L108.393252,685.168925 L108.393252,676.167757 L122.234513,676.167757 Z M98.3268805,683.008645 L98.3268805,676.167757 L106.236173,676.167757 L106.236173,683.008645 L98.3268805,683.008645 Z M75.8573009,676.167757 C77.0472898,676.167757 78.0143805,677.136283 78.0143805,678.328037 L78.0143805,707.851869 C78.0143805,709.043624 77.0472898,710.01215 75.8573009,710.01215 L35.9513274,710.01215 C34.760979,710.01215 33.7942478,709.043624 33.7942478,707.851869 L33.7942478,678.328037 C33.7942478,677.136283 34.760979,676.167757 35.9513274,676.167757 L49.7925885,676.167757 L49.7925885,685.168925 L62.0160398,685.168925 L62.0160398,676.167757 L75.8573009,676.167757 Z M51.9496681,683.008645 L51.9496681,676.167757 L59.8589602,676.167757 L59.8589602,683.008645 L51.9496681,683.008645 Z M98.8661504,640.163084 C100.056139,640.163084 101.02323,641.13161 101.02323,642.323364 L101.02323,671.847196 C101.02323,673.038951 100.056139,674.007477 98.8661504,674.007477 L58.960177,674.007477 C57.7698285,674.007477 56.8030973,673.038951 56.8030973,671.847196 L56.8030973,642.323364 C56.8030973,641.13161 57.7698285,640.163084 58.960177,640.163084 L72.8014381,640.163084 L72.8014381,649.164252 L85.0248894,649.164252 L85.0248894,640.163084 L98.8661504,640.163084 Z M74.9585177,647.003972 L74.9585177,640.163084 L82.8678097,640.163084 L82.8678097,647.003972 L74.9585177,647.003972 Z M122.234513,54.0070093 C123.424862,54.0070093 124.391593,54.975535 124.391593,56.1672897 L124.391593,85.6911215 C124.391593,86.8828762 123.424862,87.8514019 122.234513,87.8514019 L82.3285398,87.8514019 C81.1381914,87.8514019 80.1714602,86.8828762 80.1714602,85.6911215 L80.1714602,56.1672897 C80.1714602,54.975535 81.1381914,54.0070093 82.3285398,54.0070093 L96.1698009,54.0070093 L96.1698009,63.0081776 L108.393252,63.0081776 L108.393252,54.0070093 L122.234513,54.0070093 Z M98.3268805,60.8478972 L98.3268805,54.0070093 L106.236173,54.0070093 L106.236173,60.8478972 L98.3268805,60.8478972 Z M75.8573009,54.0070093 C77.0472898,54.0070093 78.0143805,54.975535 78.0143805,56.1672897 L78.0143805,85.6911215 C78.0143805,86.8828762 77.0472898,87.8514019 75.8573009,87.8514019 L35.9513274,87.8514019 C34.760979,87.8514019 33.7942478,86.8828762 33.7942478,85.6911215 L33.7942478,56.1672897 C33.7942478,54.975535 34.760979,54.0070093 35.9513274,54.0070093 L49.7925885,54.0070093 L49.7925885,63.0081776 L62.0160398,63.0081776 L62.0160398,54.0070093 L75.8573009,54.0070093 Z M51.9496681,60.8478972 L51.9496681,54.0070093 L59.8589602,54.0070093 L59.8589602,60.8478972 L51.9496681,60.8478972 Z M98.8661504,18.0023364 C100.056139,18.0023364 101.02323,18.9708621 101.02323,20.1626168 L101.02323,49.6864486 C101.02323,50.8782033 100.056139,51.846729 98.8661504,51.846729 L58.960177,51.846729 C57.7698285,51.846729 56.8030973,50.8782033 56.8030973,49.6864486 L56.8030973,20.1626168 C56.8030973,18.9708621 57.7698285,18.0023364 58.960177,18.0023364 L72.8014381,18.0023364 L72.8014381,27.0035047 L85.0248894,27.0035047 L85.0248894,18.0023364 L98.8661504,18.0023364 Z M74.9585177,24.8432243 L74.9585177,18.0023364 L82.8678097,18.0023364 L82.8678097,24.8432243 L74.9585177,24.8432243 Z M122.30531,988.248131 C123.495299,988.248131 124.462389,989.216657 124.462389,990.408411 L124.462389,1019.93224 C124.462389,1021.124 123.495299,1022.09252 122.30531,1022.09252 L82.3993363,1022.09252 C81.2093473,1022.09252 80.2422566,1021.124 80.2422566,1019.93224 L80.2422566,990.408411 C80.2422566,989.216657 81.2093473,988.248131 82.3993363,988.248131 L96.2405973,988.248131 L96.2405973,997.249299 L108.464049,997.249299 L108.464049,988.248131 L122.30531,988.248131 Z M98.397677,995.089019 L98.397677,988.248131 L106.306969,988.248131 L106.306969,995.089019 L98.397677,995.089019 Z M75.9280973,988.248131 C77.1180863,988.248131 78.085177,989.216657 78.085177,990.408411 L78.085177,1019.93224 C78.085177,1021.124 77.1180863,1022.09252 75.9280973,1022.09252 L36.0221239,1022.09252 C34.832135,1022.09252 33.8650442,1021.124 33.8650442,1019.93224 L33.8650442,990.408411 C33.8650442,989.216657 34.832135,988.248131 36.0221239,988.248131 L49.863385,988.248131 L49.863385,997.249299 L62.0868363,997.249299 L62.0868363,988.248131 L75.9280973,988.248131 Z M52.0204646,995.089019 L52.0204646,988.248131 L59.9297566,988.248131 L59.9297566,995.089019 L52.0204646,995.089019 Z M98.9369469,952.243458 C100.126936,952.243458 101.094027,953.211984 101.094027,954.403738 L101.094027,983.92757 C101.094027,985.119325 100.126936,986.08785 98.9369469,986.08785 L59.0309735,986.08785 C57.8409845,986.08785 56.8738938,985.119325 56.8738938,983.92757 L56.8738938,954.403738 C56.8738938,953.211984 57.8409845,952.243458 59.0309735,952.243458 L72.8722345,952.243458 L72.8722345,961.244626 L85.0956858,961.244626 L85.0956858,952.243458 L98.9369469,952.243458 Z M75.0293142,959.084346 L75.0293142,952.243458 L82.9386062,952.243458 L82.9386062,959.084346 L75.0293142,959.084346 Z M122.30531,1143.78832 C123.495299,1143.78832 124.462389,1144.75684 124.462389,1145.9486 L124.462389,1175.47243 C124.462389,1176.66418 123.495299,1177.63271 122.30531,1177.63271 L82.3993363,1177.63271 C81.2093473,1177.63271 80.2422566,1176.66418 80.2422566,1175.47243 L80.2422566,1145.9486 C80.2422566,1144.75684 81.2093473,1143.78832 82.3993363,1143.78832 L96.2405973,1143.78832 L96.2405973,1152.78949 L108.464049,1152.78949 L108.464049,1143.78832 L122.30531,1143.78832 Z M98.397677,1150.62921 L98.397677,1143.78832 L106.306969,1143.78832 L106.306969,1150.62921 L98.397677,1150.62921 Z M75.9280973,1143.78832 C77.1180863,1143.78832 78.085177,1144.75684 78.085177,1145.9486 L78.085177,1175.47243 C78.085177,1176.66418 77.1180863,1177.63271 75.9280973,1177.63271 L36.0221239,1177.63271 C34.832135,1177.63271 33.8650442,1176.66418 33.8650442,1175.47243 L33.8650442,1145.9486 C33.8650442,1144.75684 34.832135,1143.78832 36.0221239,1143.78832 L49.863385,1143.78832 L49.863385,1152.78949 L62.0868363,1152.78949 L62.0868363,1143.78832 L75.9280973,1143.78832 Z M52.0204646,1150.62921 L52.0204646,1143.78832 L59.9297566,1143.78832 L59.9297566,1150.62921 L52.0204646,1150.62921 Z M98.9369469,1107.78364 C100.126936,1107.78364 101.094027,1108.75217 101.094027,1109.94393 L101.094027,1139.46776 C101.094027,1140.65951 100.126936,1141.62804 98.9369469,1141.62804 L59.0309735,1141.62804 C57.8409845,1141.62804 56.8738938,1140.65951 56.8738938,1139.46776 L56.8738938,1109.94393 C56.8738938,1108.75217 57.8409845,1107.78364 59.0309735,1107.78364 L72.8722345,1107.78364 L72.8722345,1116.78481 L85.0956858,1116.78481 L85.0956858,1107.78364 L98.9369469,1107.78364 Z M75.0293142,1114.62453 L75.0293142,1107.78364 L82.9386062,1107.78364 L82.9386062,1114.62453 L75.0293142,1114.62453 Z M122.30531,1299.3285 C123.495658,1299.3285 124.462389,1300.29703 124.462389,1301.48879 L124.462389,1331.01262 C124.462389,1332.20437 123.495658,1333.1729 122.30531,1333.1729 L82.3993363,1333.1729 C81.2089878,1333.1729 80.2422566,1332.20437 80.2422566,1331.01262 L80.2422566,1301.48879 C80.2422566,1300.29703 81.2089878,1299.3285 82.3993363,1299.3285 L96.2405973,1299.3285 L96.2405973,1308.32967 L108.464049,1308.32967 L108.464049,1299.3285 L122.30531,1299.3285 Z M98.397677,1306.16939 L98.397677,1299.3285 L106.306969,1299.3285 L106.306969,1306.16939 L98.397677,1306.16939 Z M75.9280973,1299.3285 C77.1180863,1299.3285 78.085177,1300.29703 78.085177,1301.48879 L78.085177,1331.01262 C78.085177,1332.20437 77.1180863,1333.1729 75.9280973,1333.1729 L36.0221239,1333.1729 C34.8317754,1333.1729 33.8650442,1332.20437 33.8650442,1331.01262 L33.8650442,1301.48879 C33.8650442,1300.29703 34.8317754,1299.3285 36.0221239,1299.3285 L49.863385,1299.3285 L49.863385,1308.32967 L62.0868363,1308.32967 L62.0868363,1299.3285 L75.9280973,1299.3285 Z M52.0204646,1306.16939 L52.0204646,1299.3285 L59.9297566,1299.3285 L59.9297566,1306.16939 L52.0204646,1306.16939 Z M98.9369469,1263.32383 C100.126936,1263.32383 101.094027,1264.29236 101.094027,1265.48411 L101.094027,1295.00794 C101.094027,1296.1997 100.126936,1297.16822 98.9369469,1297.16822 L59.0309735,1297.16822 C57.840625,1297.16822 56.8738938,1296.1997 56.8738938,1295.00794 L56.8738938,1265.48411 C56.8738938,1264.29236 57.840625,1263.32383 59.0309735,1263.32383 L72.8722345,1263.32383 L72.8722345,1272.325 L85.0956858,1272.325 L85.0956858,1263.32383 L98.9369469,1263.32383 Z M75.0293142,1270.16472 L75.0293142,1263.32383 L82.9386062,1263.32383 L82.9386062,1270.16472 L75.0293142,1270.16472 Z M122.30531,1454.86869 C123.495658,1454.86869 124.462389,1455.83722 124.462389,1457.02897 L124.462389,1486.5528 C124.462389,1487.74456 123.495658,1488.71308 122.30531,1488.71308 L82.3993363,1488.71308 C81.2089878,1488.71308 80.2422566,1487.74456 80.2422566,1486.5528 L80.2422566,1457.02897 C80.2422566,1455.83722 81.2089878,1454.86869 82.3993363,1454.86869 L96.2405973,1454.86869 L96.2405973,1463.86986 L108.464049,1463.86986 L108.464049,1454.86869 L122.30531,1454.86869 Z M98.397677,1461.70958 L98.397677,1454.86869 L106.306969,1454.86869 L106.306969,1461.70958 L98.397677,1461.70958 Z M75.9280973,1454.86869 C77.1180863,1454.86869 78.085177,1455.83722 78.085177,1457.02897 L78.085177,1486.5528 C78.085177,1487.74456 77.1180863,1488.71308 75.9280973,1488.71308 L36.0221239,1488.71308 C34.8317754,1488.71308 33.8650442,1487.74456 33.8650442,1486.5528 L33.8650442,1457.02897 C33.8650442,1455.83722 34.8317754,1454.86869 36.0221239,1454.86869 L49.863385,1454.86869 L49.863385,1463.86986 L62.0868363,1463.86986 L62.0868363,1454.86869 L75.9280973,1454.86869 Z M52.0204646,1461.70958 L52.0204646,1454.86869 L59.9297566,1454.86869 L59.9297566,1461.70958 L52.0204646,1461.70958 Z M98.9369469,1418.86402 C100.126936,1418.86402 101.094027,1419.83254 101.094027,1421.0243 L101.094027,1450.54813 C101.094027,1451.73989 100.126936,1452.70841 98.9369469,1452.70841 L59.0309735,1452.70841 C57.840625,1452.70841 56.8738938,1451.73989 56.8738938,1450.54813 L56.8738938,1421.0243 C56.8738938,1419.83254 57.840625,1418.86402 59.0309735,1418.86402 L72.8722345,1418.86402 L72.8722345,1427.86519 L85.0956858,1427.86519 L85.0956858,1418.86402 L98.9369469,1418.86402 Z M75.0293142,1425.70491 L75.0293142,1418.86402 L82.9386062,1418.86402 L82.9386062,1425.70491 L75.0293142,1425.70491 Z M122.30531,832.707944 C123.495658,832.707944 124.462389,833.67647 124.462389,834.868224 L124.462389,864.392056 C124.462389,865.583811 123.495658,866.552336 122.30531,866.552336 L82.3993363,866.552336 C81.2089878,866.552336 80.2422566,865.583811 80.2422566,864.392056 L80.2422566,834.868224 C80.2422566,833.67647 81.2089878,832.707944 82.3993363,832.707944 L96.2405973,832.707944 L96.2405973,841.709112 L108.464049,841.709112 L108.464049,832.707944 L122.30531,832.707944 Z M98.397677,839.548832 L98.397677,832.707944 L106.306969,832.707944 L106.306969,839.548832 L98.397677,839.548832 Z M75.9280973,832.707944 C77.1180863,832.707944 78.085177,833.67647 78.085177,834.868224 L78.085177,864.392056 C78.085177,865.583811 77.1180863,866.552336 75.9280973,866.552336 L36.0221239,866.552336 C34.8317754,866.552336 33.8650442,865.583811 33.8650442,864.392056 L33.8650442,834.868224 C33.8650442,833.67647 34.8317754,832.707944 36.0221239,832.707944 L49.863385,832.707944 L49.863385,841.709112 L62.0868363,841.709112 L62.0868363,832.707944 L75.9280973,832.707944 Z M52.0204646,839.548832 L52.0204646,832.707944 L59.9297566,832.707944 L59.9297566,839.548832 L52.0204646,839.548832 Z M98.9369469,796.703271 C100.126936,796.703271 101.094027,797.671797 101.094027,798.863551 L101.094027,828.387383 C101.094027,829.579138 100.126936,830.547664 98.9369469,830.547664 L59.0309735,830.547664 C57.840625,830.547664 56.8738938,829.579138 56.8738938,828.387383 L56.8738938,798.863551 C56.8738938,797.671797 57.840625,796.703271 59.0309735,796.703271 L72.8722345,796.703271 L72.8722345,805.704439 L85.0956858,805.704439 L85.0956858,796.703271 L98.9369469,796.703271 Z M75.0293142,803.544159 L75.0293142,796.703271 L82.9386062,796.703271 L82.9386062,803.544159 L75.0293142,803.544159 Z"/>
      </g>
    </g>
  </g>
</svg>
