<svg xmlns="http://www.w3.org/2000/svg" xmlns:xlink="http://www.w3.org/1999/xlink" width="400" height="400" viewBox="0 0 400 400">
  <defs>
    <rect id="carrier_02-a" width="400" height="400"/>
  </defs>
  <g fill="none" fill-rule="evenodd">
    <mask id="carrier_02-b" fill="#fff">
      <use xlink:href="#carrier_02-a"/>
    </mask>
    <use fill="#FFF" xlink:href="#carrier_02-a"/>
    <g fill="#3573C3" mask="url(#carrier_02-b)">
      <g transform="translate(121 138)">
        <polygon points="71.359 43.042 52.077 66.348 58.723 66.348 56.289 75.989 44.121 75.989 40.284 80.575 39.909 81.792 55.166 81.792 52.732 91.433 37.756 91.433 33.919 108 17.539 108 21.283 91.433 6.4 91.433 8.74 81.792 23.529 81.792 24.278 78.61 23.155 75.989 10.051 75.989 12.297 66.348 19.317 66.348 9.864 43.042 26.244 43.042 35.323 66.348 35.51 66.348 52.732 43.042"/>
        <path d="M124.28,1.8 C133.72,1.96 143.64,6.28 149.72,13.48 C156.12,21.16 158.2,32.2 158.2,42.44 C158.2,54.6 154.2,79.88 140.92,97.32 C132.76,108.04 121.72,115.24 108.44,115.24 C102.2,115.24 95.8,113.48 90.52,109.96 C74.84,99.56 74.84,79.88 74.84,74.92 C74.84,66.28 78.04,34.76 95.48,15.72 C104.44,5.96 114.68,1.8 124.28,1.8 Z M124.28,20.68 C118.36,20.84 113.56,27.24 109.4,36.84 C106.2,44.52 99.48,64.36 99.48,83.24 C99.48,85.64 99.48,96.36 108.6,96.36 C113.56,96.36 117.72,92.52 122.36,83.4 C132.76,62.76 133.72,39.72 133.72,36.84 C133.72,33.48 133.72,20.52 124.28,20.68 Z"/>
      </g>
    </g>
  </g>
</svg>
