<svg xmlns="http://www.w3.org/2000/svg" xmlns:xlink="http://www.w3.org/1999/xlink" width="400" height="180" viewBox="0 0 400 180">
  <defs>
    <path id="group-10-b" d="M365.307692,63.0769231 C365.307692,49.7175481 354.436298,38.8461538 341.076923,38.8461538 C327.717548,38.8461538 316.846154,49.7175481 316.846154,63.0769231 C316.846154,76.4362981 327.717548,87.3076923 341.076923,87.3076923 C354.436298,87.3076923 365.307692,76.4362981 365.307692,63.0769231 Z M393,108.076923 C393,111.862981 389.862981,115 386.076923,115 C384.237981,115 382.453125,114.242788 381.209135,112.944712 L362.657452,94.4471154 C356.329327,98.828125 348.757212,101.153846 341.076923,101.153846 C320.03726,101.153846 303,84.1165865 303,63.0769231 C303,42.0372596 320.03726,25 341.076923,25 C362.116587,25 379.153846,42.0372596 379.153846,63.0769231 C379.153846,70.7572115 376.828125,78.3293269 372.447115,84.6574519 L390.998798,103.209135 C392.242788,104.453125 393,106.237981 393,108.076923 Z"/>
    <filter id="group-10-a" width="108.9%" height="108.9%" x="-2.2%" y="-2.2%" filterUnits="objectBoundingBox">
      <feOffset dx="4" dy="4" in="SourceAlpha" result="shadowOffsetOuter1"/>
      <feColorMatrix in="shadowOffsetOuter1" values="0 0 0 0 0.250980392   0 0 0 0 0.250980392   0 0 0 0 0.250980392  0 0 0 0.25 0"/>
    </filter>
  </defs>
  <g fill="none" fill-rule="evenodd">
    <rect width="400" height="180" fill="#FFF"/>
    <g transform="translate(36 40)">
      <rect width="46" height="46" fill="#3573C3" rx="10"/>
      <path fill="#FFF" d="M9.18197063,32.727183 C9.18197063,34.93346 10.978266,36.7216495 13.1945439,36.7216495 C15.4108219,36.7216495 17.2071173,34.93346 17.2071173,32.727183 C17.2071173,31.7259034 16.8379605,30.8111705 16.2247056,30.1101417 C15.4917422,29.2659777 14.4056723,28.7327165 13.1945439,28.7327165 C11.9834156,28.7327165 10.8980145,29.2659777 10.1650511,30.1101417 C9.55179614,30.8111705 9.18197063,31.7259034 9.18197063,32.727183 M29.9370061,32.727183 C29.9370061,34.93346 31.7333014,36.7216495 33.9495794,36.7216495 C36.1665261,36.7216495 37.9621527,34.93346 37.9621527,32.727183 C37.9621527,31.7259034 37.5923272,30.8111705 36.979741,30.1101417 C36.2467776,29.2659777 35.1607078,28.7327165 33.9495794,28.7327165 C32.7391198,28.7327165 31.6530499,29.2659777 30.9194178,30.1101417 C30.3068316,30.8111705 29.9370061,31.7259034 29.9370061,32.727183 M6,23.3661507 L6,29.2832871 C6,29.7399878 6.37250056,30.1101417 6.82993391,30.1101417 L8.16946464,30.1101417 C9.11843822,28.3099688 11.0143791,27.0796731 13.1945439,27.0796731 C14.5608252,27.0796731 15.812748,27.561672 16.7924847,28.3645598 L16.7924847,14.8213211 L10.3850739,14.8213211 C10.0720931,14.8213211 9.78519415,14.9957461 9.64408533,15.2740273 C8.9913734,16.5662372 7.11817043,20.3390108 6.34307502,21.9035102 C6.11770215,22.3582136 6,22.8581877 6,23.3661507 M19.2829552,10 L40.0379906,10 C40.495424,10 40.8679245,10.3701539 40.8679245,10.8268546 L40.8679245,29.2832871 C40.8679245,29.7399878 40.495424,30.1101417 40.0379906,30.1101417 L38.9753275,30.1101417 C38.0256851,28.3099688 36.130413,27.0796731 33.9495794,27.0796731 C31.7687458,27.0796731 29.8734737,28.3099688 28.9245001,30.1101417 L18.4523525,30.1101417 L18.4523525,10.8268546 C18.4523525,10.3701539 18.8248531,10 19.2829552,10" transform="matrix(-1 0 0 1 46.868 0)"/>
    </g>
    <g transform="translate(92 40)">
      <rect width="46" height="46" fill="#3573C3" rx="10"/>
      <path fill="#FFF" d="M9.18197063,32.727183 C9.18197063,34.93346 10.978266,36.7216495 13.1945439,36.7216495 C15.4108219,36.7216495 17.2071173,34.93346 17.2071173,32.727183 C17.2071173,31.7259034 16.8379605,30.8111705 16.2247056,30.1101417 C15.4917422,29.2659777 14.4056723,28.7327165 13.1945439,28.7327165 C11.9834156,28.7327165 10.8980145,29.2659777 10.1650511,30.1101417 C9.55179614,30.8111705 9.18197063,31.7259034 9.18197063,32.727183 M29.9370061,32.727183 C29.9370061,34.93346 31.7333014,36.7216495 33.9495794,36.7216495 C36.1665261,36.7216495 37.9621527,34.93346 37.9621527,32.727183 C37.9621527,31.7259034 37.5923272,30.8111705 36.979741,30.1101417 C36.2467776,29.2659777 35.1607078,28.7327165 33.9495794,28.7327165 C32.7391198,28.7327165 31.6530499,29.2659777 30.9194178,30.1101417 C30.3068316,30.8111705 29.9370061,31.7259034 29.9370061,32.727183 M6,23.3661507 L6,29.2832871 C6,29.7399878 6.37250056,30.1101417 6.82993391,30.1101417 L8.16946464,30.1101417 C9.11843822,28.3099688 11.0143791,27.0796731 13.1945439,27.0796731 C14.5608252,27.0796731 15.812748,27.561672 16.7924847,28.3645598 L16.7924847,14.8213211 L10.3850739,14.8213211 C10.0720931,14.8213211 9.78519415,14.9957461 9.64408533,15.2740273 C8.9913734,16.5662372 7.11817043,20.3390108 6.34307502,21.9035102 C6.11770215,22.3582136 6,22.8581877 6,23.3661507 M19.2829552,10 L40.0379906,10 C40.495424,10 40.8679245,10.3701539 40.8679245,10.8268546 L40.8679245,29.2832871 C40.8679245,29.7399878 40.495424,30.1101417 40.0379906,30.1101417 L38.9753275,30.1101417 C38.0256851,28.3099688 36.130413,27.0796731 33.9495794,27.0796731 C31.7687458,27.0796731 29.8734737,28.3099688 28.9245001,30.1101417 L18.4523525,30.1101417 L18.4523525,10.8268546 C18.4523525,10.3701539 18.8248531,10 19.2829552,10" transform="matrix(-1 0 0 1 46.868 0)"/>
    </g>
    <g transform="translate(149 40)">
      <rect width="46" height="46" fill="#BFBFBF" rx="10"/>
      <path fill="#FFF" d="M9.18197063,32.727183 C9.18197063,34.93346 10.978266,36.7216495 13.1945439,36.7216495 C15.4108219,36.7216495 17.2071173,34.93346 17.2071173,32.727183 C17.2071173,31.7259034 16.8379605,30.8111705 16.2247056,30.1101417 C15.4917422,29.2659777 14.4056723,28.7327165 13.1945439,28.7327165 C11.9834156,28.7327165 10.8980145,29.2659777 10.1650511,30.1101417 C9.55179614,30.8111705 9.18197063,31.7259034 9.18197063,32.727183 M29.9370061,32.727183 C29.9370061,34.93346 31.7333014,36.7216495 33.9495794,36.7216495 C36.1665261,36.7216495 37.9621527,34.93346 37.9621527,32.727183 C37.9621527,31.7259034 37.5923272,30.8111705 36.979741,30.1101417 C36.2467776,29.2659777 35.1607078,28.7327165 33.9495794,28.7327165 C32.7391198,28.7327165 31.6530499,29.2659777 30.9194178,30.1101417 C30.3068316,30.8111705 29.9370061,31.7259034 29.9370061,32.727183 M6,23.3661507 L6,29.2832871 C6,29.7399878 6.37250056,30.1101417 6.82993391,30.1101417 L8.16946464,30.1101417 C9.11843822,28.3099688 11.0143791,27.0796731 13.1945439,27.0796731 C14.5608252,27.0796731 15.812748,27.561672 16.7924847,28.3645598 L16.7924847,14.8213211 L10.3850739,14.8213211 C10.0720931,14.8213211 9.78519415,14.9957461 9.64408533,15.2740273 C8.9913734,16.5662372 7.11817043,20.3390108 6.34307502,21.9035102 C6.11770215,22.3582136 6,22.8581877 6,23.3661507 M19.2829552,10 L40.0379906,10 C40.495424,10 40.8679245,10.3701539 40.8679245,10.8268546 L40.8679245,29.2832871 C40.8679245,29.7399878 40.495424,30.1101417 40.0379906,30.1101417 L38.9753275,30.1101417 C38.0256851,28.3099688 36.130413,27.0796731 33.9495794,27.0796731 C31.7687458,27.0796731 29.8734737,28.3099688 28.9245001,30.1101417 L18.4523525,30.1101417 L18.4523525,10.8268546 C18.4523525,10.3701539 18.8248531,10 19.2829552,10" transform="matrix(-1 0 0 1 46.868 0)"/>
    </g>
    <g transform="translate(36 94)">
      <rect width="46" height="46" fill="#BFBFBF" rx="10"/>
      <path fill="#FFF" d="M9.18197063,32.727183 C9.18197063,34.93346 10.978266,36.7216495 13.1945439,36.7216495 C15.4108219,36.7216495 17.2071173,34.93346 17.2071173,32.727183 C17.2071173,31.7259034 16.8379605,30.8111705 16.2247056,30.1101417 C15.4917422,29.2659777 14.4056723,28.7327165 13.1945439,28.7327165 C11.9834156,28.7327165 10.8980145,29.2659777 10.1650511,30.1101417 C9.55179614,30.8111705 9.18197063,31.7259034 9.18197063,32.727183 M29.9370061,32.727183 C29.9370061,34.93346 31.7333014,36.7216495 33.9495794,36.7216495 C36.1665261,36.7216495 37.9621527,34.93346 37.9621527,32.727183 C37.9621527,31.7259034 37.5923272,30.8111705 36.979741,30.1101417 C36.2467776,29.2659777 35.1607078,28.7327165 33.9495794,28.7327165 C32.7391198,28.7327165 31.6530499,29.2659777 30.9194178,30.1101417 C30.3068316,30.8111705 29.9370061,31.7259034 29.9370061,32.727183 M6,23.3661507 L6,29.2832871 C6,29.7399878 6.37250056,30.1101417 6.82993391,30.1101417 L8.16946464,30.1101417 C9.11843822,28.3099688 11.0143791,27.0796731 13.1945439,27.0796731 C14.5608252,27.0796731 15.812748,27.561672 16.7924847,28.3645598 L16.7924847,14.8213211 L10.3850739,14.8213211 C10.0720931,14.8213211 9.78519415,14.9957461 9.64408533,15.2740273 C8.9913734,16.5662372 7.11817043,20.3390108 6.34307502,21.9035102 C6.11770215,22.3582136 6,22.8581877 6,23.3661507 M19.2829552,10 L40.0379906,10 C40.495424,10 40.8679245,10.3701539 40.8679245,10.8268546 L40.8679245,29.2832871 C40.8679245,29.7399878 40.495424,30.1101417 40.0379906,30.1101417 L38.9753275,30.1101417 C38.0256851,28.3099688 36.130413,27.0796731 33.9495794,27.0796731 C31.7687458,27.0796731 29.8734737,28.3099688 28.9245001,30.1101417 L18.4523525,30.1101417 L18.4523525,10.8268546 C18.4523525,10.3701539 18.8248531,10 19.2829552,10" transform="matrix(-1 0 0 1 46.868 0)"/>
    </g>
    <g transform="translate(92 94)">
      <rect width="46" height="46" fill="#BFBFBF" rx="10"/>
      <path fill="#FFF" d="M9.18197063,32.727183 C9.18197063,34.93346 10.978266,36.7216495 13.1945439,36.7216495 C15.4108219,36.7216495 17.2071173,34.93346 17.2071173,32.727183 C17.2071173,31.7259034 16.8379605,30.8111705 16.2247056,30.1101417 C15.4917422,29.2659777 14.4056723,28.7327165 13.1945439,28.7327165 C11.9834156,28.7327165 10.8980145,29.2659777 10.1650511,30.1101417 C9.55179614,30.8111705 9.18197063,31.7259034 9.18197063,32.727183 M29.9370061,32.727183 C29.9370061,34.93346 31.7333014,36.7216495 33.9495794,36.7216495 C36.1665261,36.7216495 37.9621527,34.93346 37.9621527,32.727183 C37.9621527,31.7259034 37.5923272,30.8111705 36.979741,30.1101417 C36.2467776,29.2659777 35.1607078,28.7327165 33.9495794,28.7327165 C32.7391198,28.7327165 31.6530499,29.2659777 30.9194178,30.1101417 C30.3068316,30.8111705 29.9370061,31.7259034 29.9370061,32.727183 M6,23.3661507 L6,29.2832871 C6,29.7399878 6.37250056,30.1101417 6.82993391,30.1101417 L8.16946464,30.1101417 C9.11843822,28.3099688 11.0143791,27.0796731 13.1945439,27.0796731 C14.5608252,27.0796731 15.812748,27.561672 16.7924847,28.3645598 L16.7924847,14.8213211 L10.3850739,14.8213211 C10.0720931,14.8213211 9.78519415,14.9957461 9.64408533,15.2740273 C8.9913734,16.5662372 7.11817043,20.3390108 6.34307502,21.9035102 C6.11770215,22.3582136 6,22.8581877 6,23.3661507 M19.2829552,10 L40.0379906,10 C40.495424,10 40.8679245,10.3701539 40.8679245,10.8268546 L40.8679245,29.2832871 C40.8679245,29.7399878 40.495424,30.1101417 40.0379906,30.1101417 L38.9753275,30.1101417 C38.0256851,28.3099688 36.130413,27.0796731 33.9495794,27.0796731 C31.7687458,27.0796731 29.8734737,28.3099688 28.9245001,30.1101417 L18.4523525,30.1101417 L18.4523525,10.8268546 C18.4523525,10.3701539 18.8248531,10 19.2829552,10" transform="matrix(-1 0 0 1 46.868 0)"/>
    </g>
    <g transform="translate(149 94)">
      <rect width="46" height="46" fill="#3573C3" rx="10"/>
      <path fill="#FFF" d="M9.18197063,32.727183 C9.18197063,34.93346 10.978266,36.7216495 13.1945439,36.7216495 C15.4108219,36.7216495 17.2071173,34.93346 17.2071173,32.727183 C17.2071173,31.7259034 16.8379605,30.8111705 16.2247056,30.1101417 C15.4917422,29.2659777 14.4056723,28.7327165 13.1945439,28.7327165 C11.9834156,28.7327165 10.8980145,29.2659777 10.1650511,30.1101417 C9.55179614,30.8111705 9.18197063,31.7259034 9.18197063,32.727183 M29.9370061,32.727183 C29.9370061,34.93346 31.7333014,36.7216495 33.9495794,36.7216495 C36.1665261,36.7216495 37.9621527,34.93346 37.9621527,32.727183 C37.9621527,31.7259034 37.5923272,30.8111705 36.979741,30.1101417 C36.2467776,29.2659777 35.1607078,28.7327165 33.9495794,28.7327165 C32.7391198,28.7327165 31.6530499,29.2659777 30.9194178,30.1101417 C30.3068316,30.8111705 29.9370061,31.7259034 29.9370061,32.727183 M6,23.3661507 L6,29.2832871 C6,29.7399878 6.37250056,30.1101417 6.82993391,30.1101417 L8.16946464,30.1101417 C9.11843822,28.3099688 11.0143791,27.0796731 13.1945439,27.0796731 C14.5608252,27.0796731 15.812748,27.561672 16.7924847,28.3645598 L16.7924847,14.8213211 L10.3850739,14.8213211 C10.0720931,14.8213211 9.78519415,14.9957461 9.64408533,15.2740273 C8.9913734,16.5662372 7.11817043,20.3390108 6.34307502,21.9035102 C6.11770215,22.3582136 6,22.8581877 6,23.3661507 M19.2829552,10 L40.0379906,10 C40.495424,10 40.8679245,10.3701539 40.8679245,10.8268546 L40.8679245,29.2832871 C40.8679245,29.7399878 40.495424,30.1101417 40.0379906,30.1101417 L38.9753275,30.1101417 C38.0256851,28.3099688 36.130413,27.0796731 33.9495794,27.0796731 C31.7687458,27.0796731 29.8734737,28.3099688 28.9245001,30.1101417 L18.4523525,30.1101417 L18.4523525,10.8268546 C18.4523525,10.3701539 18.8248531,10 19.2829552,10" transform="matrix(-1 0 0 1 46.868 0)"/>
    </g>
    <g transform="translate(205 40)">
      <rect width="46" height="46" fill="#BFBFBF" rx="10"/>
      <path fill="#FFF" d="M9.18197063,32.727183 C9.18197063,34.93346 10.978266,36.7216495 13.1945439,36.7216495 C15.4108219,36.7216495 17.2071173,34.93346 17.2071173,32.727183 C17.2071173,31.7259034 16.8379605,30.8111705 16.2247056,30.1101417 C15.4917422,29.2659777 14.4056723,28.7327165 13.1945439,28.7327165 C11.9834156,28.7327165 10.8980145,29.2659777 10.1650511,30.1101417 C9.55179614,30.8111705 9.18197063,31.7259034 9.18197063,32.727183 M29.9370061,32.727183 C29.9370061,34.93346 31.7333014,36.7216495 33.9495794,36.7216495 C36.1665261,36.7216495 37.9621527,34.93346 37.9621527,32.727183 C37.9621527,31.7259034 37.5923272,30.8111705 36.979741,30.1101417 C36.2467776,29.2659777 35.1607078,28.7327165 33.9495794,28.7327165 C32.7391198,28.7327165 31.6530499,29.2659777 30.9194178,30.1101417 C30.3068316,30.8111705 29.9370061,31.7259034 29.9370061,32.727183 M6,23.3661507 L6,29.2832871 C6,29.7399878 6.37250056,30.1101417 6.82993391,30.1101417 L8.16946464,30.1101417 C9.11843822,28.3099688 11.0143791,27.0796731 13.1945439,27.0796731 C14.5608252,27.0796731 15.812748,27.561672 16.7924847,28.3645598 L16.7924847,14.8213211 L10.3850739,14.8213211 C10.0720931,14.8213211 9.78519415,14.9957461 9.64408533,15.2740273 C8.9913734,16.5662372 7.11817043,20.3390108 6.34307502,21.9035102 C6.11770215,22.3582136 6,22.8581877 6,23.3661507 M19.2829552,10 L40.0379906,10 C40.495424,10 40.8679245,10.3701539 40.8679245,10.8268546 L40.8679245,29.2832871 C40.8679245,29.7399878 40.495424,30.1101417 40.0379906,30.1101417 L38.9753275,30.1101417 C38.0256851,28.3099688 36.130413,27.0796731 33.9495794,27.0796731 C31.7687458,27.0796731 29.8734737,28.3099688 28.9245001,30.1101417 L18.4523525,30.1101417 L18.4523525,10.8268546 C18.4523525,10.3701539 18.8248531,10 19.2829552,10" transform="matrix(-1 0 0 1 46.868 0)"/>
    </g>
    <g transform="translate(205 94)">
      <rect width="46" height="46" fill="#BFBFBF" rx="10"/>
      <path fill="#FFF" d="M9.18197063,32.727183 C9.18197063,34.93346 10.978266,36.7216495 13.1945439,36.7216495 C15.4108219,36.7216495 17.2071173,34.93346 17.2071173,32.727183 C17.2071173,31.7259034 16.8379605,30.8111705 16.2247056,30.1101417 C15.4917422,29.2659777 14.4056723,28.7327165 13.1945439,28.7327165 C11.9834156,28.7327165 10.8980145,29.2659777 10.1650511,30.1101417 C9.55179614,30.8111705 9.18197063,31.7259034 9.18197063,32.727183 M29.9370061,32.727183 C29.9370061,34.93346 31.7333014,36.7216495 33.9495794,36.7216495 C36.1665261,36.7216495 37.9621527,34.93346 37.9621527,32.727183 C37.9621527,31.7259034 37.5923272,30.8111705 36.979741,30.1101417 C36.2467776,29.2659777 35.1607078,28.7327165 33.9495794,28.7327165 C32.7391198,28.7327165 31.6530499,29.2659777 30.9194178,30.1101417 C30.3068316,30.8111705 29.9370061,31.7259034 29.9370061,32.727183 M6,23.3661507 L6,29.2832871 C6,29.7399878 6.37250056,30.1101417 6.82993391,30.1101417 L8.16946464,30.1101417 C9.11843822,28.3099688 11.0143791,27.0796731 13.1945439,27.0796731 C14.5608252,27.0796731 15.812748,27.561672 16.7924847,28.3645598 L16.7924847,14.8213211 L10.3850739,14.8213211 C10.0720931,14.8213211 9.78519415,14.9957461 9.64408533,15.2740273 C8.9913734,16.5662372 7.11817043,20.3390108 6.34307502,21.9035102 C6.11770215,22.3582136 6,22.8581877 6,23.3661507 M19.2829552,10 L40.0379906,10 C40.495424,10 40.8679245,10.3701539 40.8679245,10.8268546 L40.8679245,29.2832871 C40.8679245,29.7399878 40.495424,30.1101417 40.0379906,30.1101417 L38.9753275,30.1101417 C38.0256851,28.3099688 36.130413,27.0796731 33.9495794,27.0796731 C31.7687458,27.0796731 29.8734737,28.3099688 28.9245001,30.1101417 L18.4523525,30.1101417 L18.4523525,10.8268546 C18.4523525,10.3701539 18.8248531,10 19.2829552,10" transform="matrix(-1 0 0 1 46.868 0)"/>
    </g>
    <g transform="translate(262 40)">
      <rect width="46" height="46" fill="#BFBFBF" rx="10"/>
      <path fill="#FFF" d="M9.18197063,32.727183 C9.18197063,34.93346 10.978266,36.7216495 13.1945439,36.7216495 C15.4108219,36.7216495 17.2071173,34.93346 17.2071173,32.727183 C17.2071173,31.7259034 16.8379605,30.8111705 16.2247056,30.1101417 C15.4917422,29.2659777 14.4056723,28.7327165 13.1945439,28.7327165 C11.9834156,28.7327165 10.8980145,29.2659777 10.1650511,30.1101417 C9.55179614,30.8111705 9.18197063,31.7259034 9.18197063,32.727183 M29.9370061,32.727183 C29.9370061,34.93346 31.7333014,36.7216495 33.9495794,36.7216495 C36.1665261,36.7216495 37.9621527,34.93346 37.9621527,32.727183 C37.9621527,31.7259034 37.5923272,30.8111705 36.979741,30.1101417 C36.2467776,29.2659777 35.1607078,28.7327165 33.9495794,28.7327165 C32.7391198,28.7327165 31.6530499,29.2659777 30.9194178,30.1101417 C30.3068316,30.8111705 29.9370061,31.7259034 29.9370061,32.727183 M6,23.3661507 L6,29.2832871 C6,29.7399878 6.37250056,30.1101417 6.82993391,30.1101417 L8.16946464,30.1101417 C9.11843822,28.3099688 11.0143791,27.0796731 13.1945439,27.0796731 C14.5608252,27.0796731 15.812748,27.561672 16.7924847,28.3645598 L16.7924847,14.8213211 L10.3850739,14.8213211 C10.0720931,14.8213211 9.78519415,14.9957461 9.64408533,15.2740273 C8.9913734,16.5662372 7.11817043,20.3390108 6.34307502,21.9035102 C6.11770215,22.3582136 6,22.8581877 6,23.3661507 M19.2829552,10 L40.0379906,10 C40.495424,10 40.8679245,10.3701539 40.8679245,10.8268546 L40.8679245,29.2832871 C40.8679245,29.7399878 40.495424,30.1101417 40.0379906,30.1101417 L38.9753275,30.1101417 C38.0256851,28.3099688 36.130413,27.0796731 33.9495794,27.0796731 C31.7687458,27.0796731 29.8734737,28.3099688 28.9245001,30.1101417 L18.4523525,30.1101417 L18.4523525,10.8268546 C18.4523525,10.3701539 18.8248531,10 19.2829552,10" transform="matrix(-1 0 0 1 46.868 0)"/>
    </g>
    <g transform="translate(262 94)">
      <rect width="46" height="46" fill="#3573C3" rx="10"/>
      <path fill="#FFF" d="M9.18197063,32.727183 C9.18197063,34.93346 10.978266,36.7216495 13.1945439,36.7216495 C15.4108219,36.7216495 17.2071173,34.93346 17.2071173,32.727183 C17.2071173,31.7259034 16.8379605,30.8111705 16.2247056,30.1101417 C15.4917422,29.2659777 14.4056723,28.7327165 13.1945439,28.7327165 C11.9834156,28.7327165 10.8980145,29.2659777 10.1650511,30.1101417 C9.55179614,30.8111705 9.18197063,31.7259034 9.18197063,32.727183 M29.9370061,32.727183 C29.9370061,34.93346 31.7333014,36.7216495 33.9495794,36.7216495 C36.1665261,36.7216495 37.9621527,34.93346 37.9621527,32.727183 C37.9621527,31.7259034 37.5923272,30.8111705 36.979741,30.1101417 C36.2467776,29.2659777 35.1607078,28.7327165 33.9495794,28.7327165 C32.7391198,28.7327165 31.6530499,29.2659777 30.9194178,30.1101417 C30.3068316,30.8111705 29.9370061,31.7259034 29.9370061,32.727183 M6,23.3661507 L6,29.2832871 C6,29.7399878 6.37250056,30.1101417 6.82993391,30.1101417 L8.16946464,30.1101417 C9.11843822,28.3099688 11.0143791,27.0796731 13.1945439,27.0796731 C14.5608252,27.0796731 15.812748,27.561672 16.7924847,28.3645598 L16.7924847,14.8213211 L10.3850739,14.8213211 C10.0720931,14.8213211 9.78519415,14.9957461 9.64408533,15.2740273 C8.9913734,16.5662372 7.11817043,20.3390108 6.34307502,21.9035102 C6.11770215,22.3582136 6,22.8581877 6,23.3661507 M19.2829552,10 L40.0379906,10 C40.495424,10 40.8679245,10.3701539 40.8679245,10.8268546 L40.8679245,29.2832871 C40.8679245,29.7399878 40.495424,30.1101417 40.0379906,30.1101417 L38.9753275,30.1101417 C38.0256851,28.3099688 36.130413,27.0796731 33.9495794,27.0796731 C31.7687458,27.0796731 29.8734737,28.3099688 28.9245001,30.1101417 L18.4523525,30.1101417 L18.4523525,10.8268546 C18.4523525,10.3701539 18.8248531,10 19.2829552,10" transform="matrix(-1 0 0 1 46.868 0)"/>
    </g>
    <g transform="translate(318 40)">
      <rect width="46" height="46" fill="#BFBFBF" rx="10"/>
      <path fill="#FFF" d="M9.18197063,32.727183 C9.18197063,34.93346 10.978266,36.7216495 13.1945439,36.7216495 C15.4108219,36.7216495 17.2071173,34.93346 17.2071173,32.727183 C17.2071173,31.7259034 16.8379605,30.8111705 16.2247056,30.1101417 C15.4917422,29.2659777 14.4056723,28.7327165 13.1945439,28.7327165 C11.9834156,28.7327165 10.8980145,29.2659777 10.1650511,30.1101417 C9.55179614,30.8111705 9.18197063,31.7259034 9.18197063,32.727183 M29.9370061,32.727183 C29.9370061,34.93346 31.7333014,36.7216495 33.9495794,36.7216495 C36.1665261,36.7216495 37.9621527,34.93346 37.9621527,32.727183 C37.9621527,31.7259034 37.5923272,30.8111705 36.979741,30.1101417 C36.2467776,29.2659777 35.1607078,28.7327165 33.9495794,28.7327165 C32.7391198,28.7327165 31.6530499,29.2659777 30.9194178,30.1101417 C30.3068316,30.8111705 29.9370061,31.7259034 29.9370061,32.727183 M6,23.3661507 L6,29.2832871 C6,29.7399878 6.37250056,30.1101417 6.82993391,30.1101417 L8.16946464,30.1101417 C9.11843822,28.3099688 11.0143791,27.0796731 13.1945439,27.0796731 C14.5608252,27.0796731 15.812748,27.561672 16.7924847,28.3645598 L16.7924847,14.8213211 L10.3850739,14.8213211 C10.0720931,14.8213211 9.78519415,14.9957461 9.64408533,15.2740273 C8.9913734,16.5662372 7.11817043,20.3390108 6.34307502,21.9035102 C6.11770215,22.3582136 6,22.8581877 6,23.3661507 M19.2829552,10 L40.0379906,10 C40.495424,10 40.8679245,10.3701539 40.8679245,10.8268546 L40.8679245,29.2832871 C40.8679245,29.7399878 40.495424,30.1101417 40.0379906,30.1101417 L38.9753275,30.1101417 C38.0256851,28.3099688 36.130413,27.0796731 33.9495794,27.0796731 C31.7687458,27.0796731 29.8734737,28.3099688 28.9245001,30.1101417 L18.4523525,30.1101417 L18.4523525,10.8268546 C18.4523525,10.3701539 18.8248531,10 19.2829552,10" transform="matrix(-1 0 0 1 46.868 0)"/>
    </g>
    <g transform="translate(318 94)">
      <rect width="46" height="46" fill="#BFBFBF" rx="10"/>
      <path fill="#FFF" d="M9.18197063,32.727183 C9.18197063,34.93346 10.978266,36.7216495 13.1945439,36.7216495 C15.4108219,36.7216495 17.2071173,34.93346 17.2071173,32.727183 C17.2071173,31.7259034 16.8379605,30.8111705 16.2247056,30.1101417 C15.4917422,29.2659777 14.4056723,28.7327165 13.1945439,28.7327165 C11.9834156,28.7327165 10.8980145,29.2659777 10.1650511,30.1101417 C9.55179614,30.8111705 9.18197063,31.7259034 9.18197063,32.727183 M29.9370061,32.727183 C29.9370061,34.93346 31.7333014,36.7216495 33.9495794,36.7216495 C36.1665261,36.7216495 37.9621527,34.93346 37.9621527,32.727183 C37.9621527,31.7259034 37.5923272,30.8111705 36.979741,30.1101417 C36.2467776,29.2659777 35.1607078,28.7327165 33.9495794,28.7327165 C32.7391198,28.7327165 31.6530499,29.2659777 30.9194178,30.1101417 C30.3068316,30.8111705 29.9370061,31.7259034 29.9370061,32.727183 M6,23.3661507 L6,29.2832871 C6,29.7399878 6.37250056,30.1101417 6.82993391,30.1101417 L8.16946464,30.1101417 C9.11843822,28.3099688 11.0143791,27.0796731 13.1945439,27.0796731 C14.5608252,27.0796731 15.812748,27.561672 16.7924847,28.3645598 L16.7924847,14.8213211 L10.3850739,14.8213211 C10.0720931,14.8213211 9.78519415,14.9957461 9.64408533,15.2740273 C8.9913734,16.5662372 7.11817043,20.3390108 6.34307502,21.9035102 C6.11770215,22.3582136 6,22.8581877 6,23.3661507 M19.2829552,10 L40.0379906,10 C40.495424,10 40.8679245,10.3701539 40.8679245,10.8268546 L40.8679245,29.2832871 C40.8679245,29.7399878 40.495424,30.1101417 40.0379906,30.1101417 L38.9753275,30.1101417 C38.0256851,28.3099688 36.130413,27.0796731 33.9495794,27.0796731 C31.7687458,27.0796731 29.8734737,28.3099688 28.9245001,30.1101417 L18.4523525,30.1101417 L18.4523525,10.8268546 C18.4523525,10.3701539 18.8248531,10 19.2829552,10" transform="matrix(-1 0 0 1 46.868 0)"/>
    </g>
    <use fill="#000" filter="url(#group-10-a)" xlink:href="#group-10-b"/>
    <use fill="#3573C3" xlink:href="#group-10-b"/>
  </g>
</svg>
