<svg xmlns="http://www.w3.org/2000/svg" width="400" height="180" viewBox="0 0 400 180">
  <g fill="none" fill-rule="evenodd">
    <rect width="400" height="180" fill="#FFF"/>
    <g transform="translate(151 40)">
      <rect width="100" height="100" fill="#3573C3" rx="10"/>
      <path fill="#FFF" d="M44.6037736,37.8213058 C44.6037736,32.0721717 39.9420696,27.3831615 34.2264151,27.3831615 C28.5107606,27.3831615 23.8490566,32.0721717 23.8490566,37.8213058 C23.8490566,43.57044 28.5107606,48.2594502 34.2264151,48.2594502 C39.9420696,48.2594502 44.6037736,43.57044 44.6037736,37.8213058 Z M54.9811321,38.9347079 C54.9811321,41.5877363 54.6973762,44.3277491 53.6434257,46.7198239 L38.8881191,80.3828393 C38.0368514,82.2964991 36.1721698,83.4707904 34.2264151,83.4707904 C32.2806604,83.4707904 30.4159788,82.2964991 29.6052476,80.3828393 L14.8094045,46.7198239 C13.755454,44.3277491 13.4716981,41.5877363 13.4716981,38.9347079 C13.4716981,26.626396 22.7545696,16.6666667 34.2264151,16.6666667 C45.6982606,16.6666667 54.9811321,26.626396 54.9811321,38.9347079 Z"/>
      <path fill="#FFF" d="M54.842348,79.8938496 C54.842348,82.1001266 56.6386433,83.8883162 58.8549213,83.8883162 C61.0711993,83.8883162 62.8674946,82.1001266 62.8674946,79.8938496 C62.8674946,78.89257 62.4983379,77.9778372 61.8850829,77.2768083 C61.1521195,76.4326444 60.0660497,75.8993831 58.8549213,75.8993831 C57.6437929,75.8993831 56.5583918,76.4326444 55.8254285,77.2768083 C55.2121735,77.9778372 54.842348,78.89257 54.842348,79.8938496 M75.5973834,79.8938496 C75.5973834,82.1001266 77.3936787,83.8883162 79.6099567,83.8883162 C81.8269035,83.8883162 83.62253,82.1001266 83.62253,79.8938496 C83.62253,78.89257 83.2527045,77.9778372 82.6401184,77.2768083 C81.907155,76.4326444 80.8210851,75.8993831 79.6099567,75.8993831 C78.3994971,75.8993831 77.3134273,76.4326444 76.5797951,77.2768083 C75.9672089,77.9778372 75.5973834,78.89257 75.5973834,79.8938496 M51.6603774,70.5328174 L51.6603774,76.4499538 C51.6603774,76.9066544 52.0328779,77.2768083 52.4903113,77.2768083 L53.829842,77.2768083 C54.7788156,75.4766354 56.6747565,74.2463397 58.8549213,74.2463397 C60.2212025,74.2463397 61.4731254,74.7283387 62.452862,75.5312265 L62.452862,61.9879877 L56.0454512,61.9879877 C55.7324705,61.9879877 55.4455715,62.1624128 55.3044627,62.440694 C54.6517508,63.7329039 52.7785478,67.5056775 52.0034524,69.0701769 C51.7780795,69.5248803 51.6603774,70.0248544 51.6603774,70.5328174 M64.9433325,57.1666667 L85.698368,57.1666667 C86.1558013,57.1666667 86.5283019,57.5368206 86.5283019,57.9935212 L86.5283019,76.4499538 C86.5283019,76.9066544 86.1558013,77.2768083 85.698368,77.2768083 L84.6357048,77.2768083 C83.6860625,75.4766354 81.7907903,74.2463397 79.6099567,74.2463397 C77.4291231,74.2463397 75.533851,75.4766354 74.5848774,77.2768083 L64.1127299,77.2768083 L64.1127299,57.9935212 C64.1127299,57.5368206 64.4852304,57.1666667 64.9433325,57.1666667" transform="matrix(-1 0 0 1 138.189 0)"/>
    </g>
    <g transform="translate(265 40)">
      <rect width="100" height="100" fill="#3573C3" rx="10"/>
      <path fill="#FFF" d="M76.9842767,38.6546392 C76.9842767,32.905505 72.3225727,28.2164948 66.6069182,28.2164948 C60.8912638,28.2164948 56.2295597,32.905505 56.2295597,38.6546392 C56.2295597,44.4037734 60.8912638,49.0927835 66.6069182,49.0927835 C72.3225727,49.0927835 76.9842767,44.4037734 76.9842767,38.6546392 Z M87.3616352,39.7680412 C87.3616352,42.4210696 87.0778793,45.1610825 86.0239289,47.5531572 L71.2686222,81.2161727 C70.4173546,83.1298325 68.552673,84.3041237 66.6069182,84.3041237 C64.6611635,84.3041237 62.7964819,83.1298325 61.9857508,81.2161727 L47.1899076,47.5531572 C46.1359572,45.1610825 45.8522013,42.4210696 45.8522013,39.7680412 C45.8522013,27.4597294 55.1350727,17.5 66.6069182,17.5 C78.0787638,17.5 87.3616352,27.4597294 87.3616352,39.7680412 Z"/>
      <path fill="#FFF" d="M17.4870021,80.727183 C17.4870021,82.93346 19.2832974,84.7216495 21.4995754,84.7216495 C23.7158534,84.7216495 25.5121487,82.93346 25.5121487,80.727183 C25.5121487,79.7259034 25.142992,78.8111705 24.529737,78.1101417 C23.7967736,77.2659777 22.7107038,76.7327165 21.4995754,76.7327165 C20.288447,76.7327165 19.2030459,77.2659777 18.4700825,78.1101417 C17.8568276,78.8111705 17.4870021,79.7259034 17.4870021,80.727183 M38.2420375,80.727183 C38.2420375,82.93346 40.0383328,84.7216495 42.2546108,84.7216495 C44.4715576,84.7216495 46.2671841,82.93346 46.2671841,80.727183 C46.2671841,79.7259034 45.8973586,78.8111705 45.2847724,78.1101417 C44.551809,77.2659777 43.4657392,76.7327165 42.2546108,76.7327165 C41.0441512,76.7327165 39.9580814,77.2659777 39.2244492,78.1101417 C38.611863,78.8111705 38.2420375,79.7259034 38.2420375,80.727183 M14.3050314,71.3661507 L14.3050314,77.2832871 C14.3050314,77.7399878 14.677532,78.1101417 15.1349654,78.1101417 L16.4744961,78.1101417 C17.4234697,76.3099688 19.3194106,75.0796731 21.4995754,75.0796731 C22.8658566,75.0796731 24.1177795,75.561672 25.0975161,76.3645598 L25.0975161,62.8213211 L18.6901053,62.8213211 C18.3771246,62.8213211 18.0902256,62.9957461 17.9491168,63.2740273 C17.2964048,64.5662372 15.4232019,68.3390108 14.6481065,69.9035102 C14.4227336,70.3582136 14.3050314,70.8581877 14.3050314,71.3661507 M27.5879866,58 L48.3430221,58 C48.8004554,58 49.172956,58.3701539 49.172956,58.8268546 L49.172956,77.2832871 C49.172956,77.7399878 48.8004554,78.1101417 48.3430221,78.1101417 L47.2803589,78.1101417 C46.3307165,76.3099688 44.4354444,75.0796731 42.2546108,75.0796731 C40.0737772,75.0796731 38.1785051,76.3099688 37.2295315,78.1101417 L26.7573839,78.1101417 L26.7573839,58.8268546 C26.7573839,58.3701539 27.1298845,58 27.5879866,58" transform="matrix(-1 0 0 1 63.478 0)"/>
    </g>
    <g transform="translate(37 40)">
      <rect width="100" height="100" fill="#3573C3" rx="10"/>
      <path fill="#FFF" d="M22.5,31.8260846 L22.5,68.1751415 C22.5,69.641561 23.7034767,70.8333333 25.182776,70.8333333 L74.817224,70.8333333 C76.2977601,70.8333333 77.5,69.641561 77.5,68.1751415 L77.5,31.8260846 C77.5,30.3596651 76.2977601,29.1666667 74.817224,29.1666667 L57.6024355,29.1666667 L57.6024355,40.2481878 L42.3988014,40.2481878 L42.3988014,29.1666667 L25.182776,29.1666667 C23.7034767,29.1666667 22.5,30.3596651 22.5,31.8260846 Z M45.0815773,37.5887699 L54.9184227,37.5887699 L54.9184227,29.1666667 L45.0815773,29.1666667 L45.0815773,37.5887699 Z"/>
    </g>
  </g>
</svg>
