<svg xmlns="http://www.w3.org/2000/svg" xmlns:xlink="http://www.w3.org/1999/xlink" width="400" height="180" viewBox="0 0 400 180">
  <defs>
    <path id="group-11-b" d="M373.645397,156.246485 L348.655972,126.546185 C348.246494,126.061574 347.585318,125.869983 346.98425,126.091627 C346.394451,126.309515 346,126.86926 346,127.500382 L346,166.708835 C346,167.37001 346.409478,167.941025 347.025573,168.147642 L347.495158,168.222776 C347.964743,168.222776 348.423058,168.001132 348.716079,167.617951 L355.421749,158.564356 L360.087544,171.889294 C360.688613,173.606096 362.551925,174.503942 364.268727,173.899117 C365.970503,173.313075 366.883375,171.434736 366.27855,169.732961 L361.702916,156.644693 L372.210345,158.684569 C372.852737,158.801026 373.468833,158.508006 373.791907,157.963287 C374.114981,157.422325 374.058631,156.731097 373.645397,156.246485"/>
    <filter id="group-11-a" width="128.6%" height="116.6%" x="-7.1%" y="-4.2%" filterUnits="objectBoundingBox">
      <feOffset dx="4" dy="4" in="SourceAlpha" result="shadowOffsetOuter1"/>
      <feColorMatrix in="shadowOffsetOuter1" values="0 0 0 0 0.250980392   0 0 0 0 0.250980392   0 0 0 0 0.250980392  0 0 0 0.25 0"/>
    </filter>
  </defs>
  <g fill="none" fill-rule="evenodd">
    <rect width="400" height="180" fill="#FFF"/>
    <g transform="translate(44 35)">
      <path fill="#3573C3" d="M80.7584098,-7.10542736e-15 L22.7574341,-7.10542736e-15 L22.7574341,16.0127778 C22.7574341,19.2194444 20.1554829,21.83 16.9593854,21.83 L0.999385366,21.83 L0.999385366,106.827222 C0.999385366,109.047222 2.78182439,110.835556 4.9965561,110.835556 L80.7584098,110.835556 C82.9710927,110.835556 84.7535317,109.047222 84.7535317,106.827222 L84.7535317,4.00833333 C84.7535317,1.78833333 82.9710927,-7.10542736e-15 80.7584098,-7.10542736e-15 M16.9593854,18.1916667 L2.8023122,18.1916667 L19.1310927,1.80888889 L19.1310927,16.0127778 C19.1310927,17.205 18.147678,18.1916667 16.9593854,18.1916667"/>
      <path fill="#FEFEFE" d="M19.2429561,72.6749889 C19.2429561,76.3647111 22.2218829,79.3534889 25.8973951,79.3534889 C29.5729073,79.3534889 32.5518341,76.3647111 32.5518341,72.6749889 C32.5518341,71.0038222 31.9392488,69.4724333 30.9230537,68.3007667 C29.706078,66.8906556 27.9052,65.9985444 25.8973951,65.9985444 C23.891639,65.9985444 22.0887122,66.8906556 20.8717366,68.3007667 C19.8555415,69.4724333 19.2429561,71.0038222 19.2429561,72.6749889 M53.6665659,72.6749889 C53.6665659,76.3647111 56.6434439,79.3534889 60.3189561,79.3534889 C63.9965171,79.3534889 66.9754439,76.3647111 66.9754439,72.6749889 C66.9754439,71.0038222 66.3608098,69.4724333 65.3466634,68.3007667 C64.1296878,66.8906556 62.326761,65.9985444 60.3189561,65.9985444 C58.3111512,65.9985444 56.5102732,66.8906556 55.2953463,68.3007667 C54.2791512,69.4724333 53.6665659,71.0038222 53.6665659,72.6749889 M13.9652976,57.0301556 L13.9652976,66.9194333 C13.9652976,67.6820444 14.5819805,68.3007667 15.342078,68.3007667 L17.5629561,68.3007667 C19.1364195,65.2914333 22.2812976,63.2358778 25.8973951,63.2358778 C28.1633463,63.2358778 30.238761,64.0416556 31.8634439,65.3839333 L31.8634439,42.7440444 L21.2384683,42.7440444 C20.718078,42.7440444 20.242761,43.0379889 20.0092,43.5025444 C18.9253951,45.6608778 15.8194439,51.9673222 14.5328098,54.5840444 C14.1599317,55.3425444 13.9652976,56.1791556 13.9652976,57.0301556 M35.9958341,34.6883222 L70.4173951,34.6883222 C71.1774927,34.6883222 71.7921268,35.3049889 71.7921268,36.0676 L71.7921268,66.9194333 C71.7921268,67.6820444 71.1774927,68.3007667 70.4173951,68.3007667 L68.6554439,68.3007667 C67.0799317,65.2914333 63.9350537,63.2358778 60.3189561,63.2358778 C56.7028585,63.2358778 53.5600293,65.2914333 51.9845171,68.3007667 L34.6190537,68.3007667 L34.6190537,36.0676 C34.6190537,35.3049889 35.2357366,34.6883222 35.9958341,34.6883222"/>
    </g>
    <g transform="translate(159 35)">
      <path fill="#3573C3" d="M80.7584098,-7.10542736e-15 L22.7574341,-7.10542736e-15 L22.7574341,16.0127778 C22.7574341,19.2194444 20.1554829,21.83 16.9593854,21.83 L0.999385366,21.83 L0.999385366,106.827222 C0.999385366,109.047222 2.78182439,110.835556 4.9965561,110.835556 L80.7584098,110.835556 C82.9710927,110.835556 84.7535317,109.047222 84.7535317,106.827222 L84.7535317,4.00833333 C84.7535317,1.78833333 82.9710927,-7.10542736e-15 80.7584098,-7.10542736e-15 M16.9593854,18.1916667 L2.8023122,18.1916667 L19.1310927,1.80888889 L19.1310927,16.0127778 C19.1310927,17.205 18.147678,18.1916667 16.9593854,18.1916667"/>
      <path fill="#FEFEFE" d="M19.2429561,72.6749889 C19.2429561,76.3647111 22.2218829,79.3534889 25.8973951,79.3534889 C29.5729073,79.3534889 32.5518341,76.3647111 32.5518341,72.6749889 C32.5518341,71.0038222 31.9392488,69.4724333 30.9230537,68.3007667 C29.706078,66.8906556 27.9052,65.9985444 25.8973951,65.9985444 C23.891639,65.9985444 22.0887122,66.8906556 20.8717366,68.3007667 C19.8555415,69.4724333 19.2429561,71.0038222 19.2429561,72.6749889 M53.6665659,72.6749889 C53.6665659,76.3647111 56.6434439,79.3534889 60.3189561,79.3534889 C63.9965171,79.3534889 66.9754439,76.3647111 66.9754439,72.6749889 C66.9754439,71.0038222 66.3608098,69.4724333 65.3466634,68.3007667 C64.1296878,66.8906556 62.326761,65.9985444 60.3189561,65.9985444 C58.3111512,65.9985444 56.5102732,66.8906556 55.2953463,68.3007667 C54.2791512,69.4724333 53.6665659,71.0038222 53.6665659,72.6749889 M13.9652976,57.0301556 L13.9652976,66.9194333 C13.9652976,67.6820444 14.5819805,68.3007667 15.342078,68.3007667 L17.5629561,68.3007667 C19.1364195,65.2914333 22.2812976,63.2358778 25.8973951,63.2358778 C28.1633463,63.2358778 30.238761,64.0416556 31.8634439,65.3839333 L31.8634439,42.7440444 L21.2384683,42.7440444 C20.718078,42.7440444 20.242761,43.0379889 20.0092,43.5025444 C18.9253951,45.6608778 15.8194439,51.9673222 14.5328098,54.5840444 C14.1599317,55.3425444 13.9652976,56.1791556 13.9652976,57.0301556 M35.9958341,34.6883222 L70.4173951,34.6883222 C71.1774927,34.6883222 71.7921268,35.3049889 71.7921268,36.0676 L71.7921268,66.9194333 C71.7921268,67.6820444 71.1774927,68.3007667 70.4173951,68.3007667 L68.6554439,68.3007667 C67.0799317,65.2914333 63.9350537,63.2358778 60.3189561,63.2358778 C56.7028585,63.2358778 53.5600293,65.2914333 51.9845171,68.3007667 L34.6190537,68.3007667 L34.6190537,36.0676 C34.6190537,35.3049889 35.2357366,34.6883222 35.9958341,34.6883222"/>
    </g>
    <g transform="translate(273 25)">
      <path fill="#3573C3" d="M80.7584098,-7.10542736e-15 L22.7574341,-7.10542736e-15 L22.7574341,16.0127778 C22.7574341,19.2194444 20.1554829,21.83 16.9593854,21.83 L0.999385366,21.83 L0.999385366,106.827222 C0.999385366,109.047222 2.78182439,110.835556 4.9965561,110.835556 L80.7584098,110.835556 C82.9710927,110.835556 84.7535317,109.047222 84.7535317,106.827222 L84.7535317,4.00833333 C84.7535317,1.78833333 82.9710927,-7.10542736e-15 80.7584098,-7.10542736e-15 M16.9593854,18.1916667 L2.8023122,18.1916667 L19.1310927,1.80888889 L19.1310927,16.0127778 C19.1310927,17.205 18.147678,18.1916667 16.9593854,18.1916667"/>
      <path fill="#FEFEFE" d="M19.2429561,72.6749889 C19.2429561,76.3647111 22.2218829,79.3534889 25.8973951,79.3534889 C29.5729073,79.3534889 32.5518341,76.3647111 32.5518341,72.6749889 C32.5518341,71.0038222 31.9392488,69.4724333 30.9230537,68.3007667 C29.706078,66.8906556 27.9052,65.9985444 25.8973951,65.9985444 C23.891639,65.9985444 22.0887122,66.8906556 20.8717366,68.3007667 C19.8555415,69.4724333 19.2429561,71.0038222 19.2429561,72.6749889 M53.6665659,72.6749889 C53.6665659,76.3647111 56.6434439,79.3534889 60.3189561,79.3534889 C63.9965171,79.3534889 66.9754439,76.3647111 66.9754439,72.6749889 C66.9754439,71.0038222 66.3608098,69.4724333 65.3466634,68.3007667 C64.1296878,66.8906556 62.326761,65.9985444 60.3189561,65.9985444 C58.3111512,65.9985444 56.5102732,66.8906556 55.2953463,68.3007667 C54.2791512,69.4724333 53.6665659,71.0038222 53.6665659,72.6749889 M13.9652976,57.0301556 L13.9652976,66.9194333 C13.9652976,67.6820444 14.5819805,68.3007667 15.342078,68.3007667 L17.5629561,68.3007667 C19.1364195,65.2914333 22.2812976,63.2358778 25.8973951,63.2358778 C28.1633463,63.2358778 30.238761,64.0416556 31.8634439,65.3839333 L31.8634439,42.7440444 L21.2384683,42.7440444 C20.718078,42.7440444 20.242761,43.0379889 20.0092,43.5025444 C18.9253951,45.6608778 15.8194439,51.9673222 14.5328098,54.5840444 C14.1599317,55.3425444 13.9652976,56.1791556 13.9652976,57.0301556 M35.9958341,34.6883222 L70.4173951,34.6883222 C71.1774927,34.6883222 71.7921268,35.3049889 71.7921268,36.0676 L71.7921268,66.9194333 C71.7921268,67.6820444 71.1774927,68.3007667 70.4173951,68.3007667 L68.6554439,68.3007667 C67.0799317,65.2914333 63.9350537,63.2358778 60.3189561,63.2358778 C56.7028585,63.2358778 53.5600293,65.2914333 51.9845171,68.3007667 L34.6190537,68.3007667 L34.6190537,36.0676 C34.6190537,35.3049889 35.2357366,34.6883222 35.9958341,34.6883222"/>
    </g>
    <use fill="#000" filter="url(#group-11-a)" xlink:href="#group-11-b"/>
    <use fill="#404040" xlink:href="#group-11-b"/>
  </g>
</svg>
