<?xml version="1.0" encoding="UTF-8"?>
<svg width="30px" height="34px" viewBox="0 0 30 34" version="1.1" xmlns="http://www.w3.org/2000/svg" xmlns:xlink="http://www.w3.org/1999/xlink">
    <!-- Generator: Sketch 49.3 (51167) - http://www.bohemiancoding.com/sketch -->

    <desc>Created with Sketch.</desc>
    <defs></defs>
    <g id="TRANSROAD" stroke="none" stroke-width="1" fill="none" fill-rule="evenodd">
        <g id="T_02_QUERY" transform="translate(-178.000000, -520.000000)" fill="#3573C3" fill-rule="nonzero">
            <g id="Group-4" transform="translate(160.000000, 187.000000)">
                <g id="Group">
                    <g id="Group-2" transform="translate(0.000000, 318.000000)">
                        <path d="M48,23.5691057 L46.4651163,22.6707317 L42.2790698,24.8821138 L42.2790698,21.9105691 L41.1627907,21.2886179 L40.1162791,21.9105691 L40.1162791,26.5406504 L37.255814,27.9918699 L37.255814,24.8130081 L34.3953488,26.402439 L34.3953488,23.4308943 L38.7209302,21.2886179 L38.7209302,19.8373984 L37.1860465,19.0081301 L34.3953488,20.4593496 L34.3953488,15.9674797 L33,15 L31.6046512,15.9674797 L31.6046512,20.4593496 L29.1627907,19.0081301 L27.9767442,19.7682927 L27.9767442,21.3577236 L31.6046512,23.4308943 L31.6046512,26.402439 L28.744186,24.8821138 L28.744186,27.9918699 L26.0930233,26.4715447 L26.1627907,22.1178862 L24.7674419,21.2886179 L23.7209302,22.1178862 L23.7209302,24.9512195 L19.6744186,22.7398374 L18,23.5 L18,25.296748 L21.9767442,27.4390244 L19.3953488,28.8902439 L19.3953488,30.4796748 L20.8604651,31.1707317 L24.5581395,29.0284553 L27.1395349,30.4796748 L24.5581395,32.0691057 L27.2093023,33.5894309 L27.2790698,33.5894309 L24.6976744,35.1097561 L20.9302326,32.898374 L19.3953488,33.7276423 L19.3953488,35.3861789 L22.0465116,36.6300813 L18,38.9105691 L18,40.7073171 L19.744186,41.398374 L23.7209302,39.1869919 L23.7209302,42.0203252 L24.6976744,42.7804878 L25.8837209,41.9512195 L25.8837209,37.6666667 L28.744186,36.2154472 L28.744186,39.3252033 L31.6046512,37.597561 L31.6046512,40.5691057 L27.9767442,42.6422764 L27.9767442,44.2317073 L29.1627907,44.9918699 L31.6046512,43.5406504 L31.6046512,48.0325203 L33,49 L34.3953488,48.0325203 L34.3953488,43.5406504 L36.8372093,44.9918699 L38.0232558,44.3699187 L38.0232558,42.6422764 L34.3953488,40.5691057 L34.3953488,37.597561 L37.255814,39.1869919 L37.255814,36.2845528 L40.1162791,37.804878 L40.1162791,42.0894309 L41.2325581,42.8495935 L42.2790698,42.0894309 L42.2790698,39.2560976 L46.1860465,41.398374 L48,40.6382114 L48,38.9105691 L44.2325581,36.6300813 L46.6046512,35.3170732 L46.6046512,33.796748 L45.2790698,32.9674797 L41.4418605,35.0406504 L38.7209302,33.6585366 L41.372093,32.1382114 L38.8604651,30.5487805 L41.4418605,28.8902439 L45.2790698,31.101626 L46.6046512,30.4105691 L46.6046512,28.8211382 L44.0930233,27.4390244 L48,25.2276423 L48,23.5691057 Z M34.3953488,34.1422764 L31.8837209,34.1422764 L30.5581395,32.0691057 L31.8139535,29.8577236 L34.3255814,29.8577236 L35.5116279,32.0691057 L34.3953488,34.1422764 Z" id="Shape"></path>
                    </g>
                </g>
            </g>
        </g>
    </g>
</svg>