<svg xmlns="http://www.w3.org/2000/svg" viewBox="0 0 400 400"><defs><style>.a{fill:#3573c3;}</style></defs><path class="a" d="M353,266.54V148a18,18,0,0,0-18-18H255a75,75,0,1,0-110,0H65a18,18,0,0,0-18,18V266.16L34.13,287.52A55.16,55.16,0,0,1,47,286a55.7,55.7,0,0,1,12,1.32V148a6,6,0,0,1,6-6H166v12H71v12h95v30.88l5,3.6,7.33,5.26,7,5,7-5,.33-.23.32.23,7,5,7-5,.33-.24.34.24,7,5,7-5,7.34-5.27,5-3.59V166h95V154H234V142H335a6,6,0,0,1,6,6V287.32A55.7,55.7,0,0,1,353,286a55.18,55.18,0,0,1,12.74,1.49ZM222,190.73,214.66,196l-7.34-5.27L200,196l-7.33-5.27L185.33,196,178,190.73V128h44ZM299.32,353A55.7,55.7,0,0,1,298,341H102a55.69,55.69,0,0,1-1.32,12A54.8,54.8,0,0,1,90,375.25V400H310V375.25A54.8,54.8,0,0,1,299.32,353ZM59,299.7a41,41,0,0,0-6-1.28,42.38,42.38,0,0,0-6-.42,43,43,0,1,0,41.3,55,41,41,0,0,0,1.28-6,42.39,42.39,0,0,0,.42-6A43,43,0,0,0,59,299.7Zm317.3,5.15A42.83,42.83,0,0,0,353,298a42.38,42.38,0,0,0-6,.42,41,41,0,0,0-6,1.28A43,43,0,0,0,310,341a42.37,42.37,0,0,0,.42,6,41,41,0,0,0,1.28,6,43,43,0,1,0,64.6-48.15Z"/></svg>