<?xml version="1.0" encoding="UTF-8"?>
<svg width="120px" height="120px" viewBox="0 0 120 120" version="1.1" xmlns="http://www.w3.org/2000/svg" xmlns:xlink="http://www.w3.org/1999/xlink">
    <!-- Generator: Sketch 49.3 (51167) - http://www.bohemiancoding.com/sketch -->
    <title>QUERY / pickup</title>
    <desc>Created with Sketch.</desc>
    <defs></defs>
    <g id="QUERY-/-pickup" stroke="none" stroke-width="1" fill="none" fill-rule="evenodd">
        <g id="Group-11">
            <rect id="Rectangle-5" x="0" y="0" width="120" height="120"></rect>
            <path d="M52.2,42.4 C52.2,34.1382812 45.4617188,27.4 37.2,27.4 C28.9382813,27.4 22.2,34.1382812 22.2,42.4 C22.2,50.6617187 28.9382813,57.4 37.2,57.4 C45.4617188,57.4 52.2,50.6617187 52.2,42.4 Z M67.2,44 C67.2,47.8125 66.7898438,51.75 65.2664063,55.1875 L43.9382813,103.5625 C42.7078125,106.3125 40.0125,108 37.2,108 C34.3875,108 31.6921875,106.3125 30.5203125,103.5625 L9.13359375,55.1875 C7.61015625,51.75 7.2,47.8125 7.2,44 C7.2,26.3125 20.6179687,12 37.2,12 C53.7820313,12 67.2,26.3125 67.2,44 Z" id="fa-map-marker" fill="#3573C3"></path>
            <path d="M66.9993939,102.859804 C66.9993939,106.030305 69.5958571,108.6 72.7993862,108.6 C76.0029153,108.6 78.5993786,106.030305 78.5993786,102.859804 C78.5993786,101.420928 78.0657793,100.106423 77.1793471,99.0990184 C76.1198819,97.8859236 74.5500173,97.1196074 72.7993862,97.1196074 C71.0487552,97.1196074 69.4798573,97.8859236 68.420392,99.0990184 C67.5339599,100.106423 66.9993939,101.420928 66.9993939,102.859804 M96.9998542,102.859804 C96.9998542,106.030305 99.5963175,108.6 102.799847,108.6 C106.004342,108.6 108.599839,106.030305 108.599839,102.859804 C108.599839,101.420928 108.065273,100.106423 107.179807,99.0990184 C106.120342,97.8859236 104.550478,97.1196074 102.799847,97.1196074 C101.050182,97.1196074 99.4803176,97.8859236 98.4198857,99.0990184 C97.5344202,100.106423 96.9998542,101.420928 96.9998542,102.859804 M62.4,89.4076536 L62.4,97.9107977 C62.4,98.5670935 62.9384326,99.0990184 63.5996317,99.0990184 L65.5358625,99.0990184 C66.9075607,96.5121032 69.6480571,94.7441228 72.7993862,94.7441228 C74.7742836,94.7441228 76.5838812,95.4367731 78.000046,96.5905526 L78.000046,77.128417 L68.7384249,77.128417 C68.2860255,77.128417 67.8713261,77.3790722 67.6673597,77.7789725 C66.7238943,79.6359261 64.0162645,85.0575415 62.8958993,87.305785 C62.5701331,87.9592107 62.4,88.677692 62.4,89.4076536 M81.5999079,70.2 L111.600368,70.2 C112.261567,70.2 112.8,70.7319249 112.8,71.3882206 L112.8,97.9107977 C112.8,98.5670935 112.261567,99.0990184 111.600368,99.0990184 L110.064337,99.0990184 C108.691672,96.5121032 105.952142,94.7441228 102.799847,94.7441228 C99.6475507,94.7441228 96.908021,96.5121032 95.5363228,99.0990184 L80.3993095,99.0990184 L80.3993095,71.3882206 C80.3993095,70.7319249 80.9377421,70.2 81.5999079,70.2" id="Fill-13" fill="#3573C3" transform="translate(87.600000, 89.400000) scale(-1, 1) translate(-87.600000, -89.400000) "></path>
        </g>
    </g>
</svg>