<?xml version="1.0" encoding="UTF-8"?>
<svg width="120px" height="120px" viewBox="0 0 120 120" version="1.1" xmlns="http://www.w3.org/2000/svg" xmlns:xlink="http://www.w3.org/1999/xlink">
    <!-- Generator: Sketch 49.3 (51167) - http://www.bohemiancoding.com/sketch -->
    <title>QUERY / delivery</title>
    <desc>Created with Sketch.</desc>
    <defs></defs>
    <g id="QUERY-/-delivery" stroke="none" stroke-width="1" fill="none" fill-rule="evenodd">
        <g id="Group-12">
            <rect id="Rectangle-5" x="0" y="0" width="120" height="120"></rect>
            <path d="M97.8,42.4 C97.8,34.1382812 91.0617188,27.4 82.8,27.4 C74.5382813,27.4 67.8,34.1382812 67.8,42.4 C67.8,50.6617187 74.5382813,57.4 82.8,57.4 C91.0617188,57.4 97.8,50.6617187 97.8,42.4 Z M112.8,44 C112.8,47.8125 112.389844,51.75 110.866406,55.1875 L89.5382812,103.5625 C88.3078125,106.3125 85.6125,108 82.8,108 C79.9875,108 77.2921875,106.3125 76.1203125,103.5625 L54.7335937,55.1875 C53.2101562,51.75 52.8,47.8125 52.8,44 C52.8,26.3125 66.2179687,12 82.8,12 C99.3820312,12 112.8,26.3125 112.8,44 Z" id="fa-map-marker" fill="#3573C3"></path>
            <path d="M11.7993939,102.859804 C11.7993939,106.030305 14.3958571,108.6 17.5993862,108.6 C20.8029153,108.6 23.3993786,106.030305 23.3993786,102.859804 C23.3993786,101.420928 22.8657793,100.106423 21.9793471,99.0990184 C20.9198819,97.8859236 19.3500173,97.1196074 17.5993862,97.1196074 C15.8487552,97.1196074 14.2798573,97.8859236 13.220392,99.0990184 C12.3339599,100.106423 11.7993939,101.420928 11.7993939,102.859804 M41.7998542,102.859804 C41.7998542,106.030305 44.3963175,108.6 47.5998466,108.6 C50.8043423,108.6 53.3998389,106.030305 53.3998389,102.859804 C53.3998389,101.420928 52.8652729,100.106423 51.9798074,99.0990184 C50.9203422,97.8859236 49.3504776,97.1196074 47.5998466,97.1196074 C45.8501822,97.1196074 44.2803176,97.8859236 43.2198857,99.0990184 C42.3344202,100.106423 41.7998542,101.420928 41.7998542,102.859804 M7.2,89.4076536 L7.2,97.9107977 C7.2,98.5670935 7.73843262,99.0990184 8.39963175,99.0990184 L10.3358625,99.0990184 C11.7075607,96.5121032 14.4480571,94.7441228 17.5993862,94.7441228 C19.5742836,94.7441228 21.3838812,95.4367731 22.800046,96.5905526 L22.800046,77.128417 L13.5384249,77.128417 C13.0860255,77.128417 12.6713261,77.3790722 12.4673597,77.7789725 C11.5238943,79.6359261 8.81626453,85.0575415 7.69589934,87.305785 C7.37013311,87.9592107 7.2,88.677692 7.2,89.4076536 M26.3999079,70.2 L56.4003683,70.2 C57.0615674,70.2 57.6,70.7319249 57.6,71.3882206 L57.6,97.9107977 C57.6,98.5670935 57.0615674,99.0990184 56.4003683,99.0990184 L54.864337,99.0990184 C53.4916721,96.5121032 50.7521424,94.7441228 47.5998466,94.7441228 C44.4475507,94.7441228 41.708021,96.5121032 40.3363228,99.0990184 L25.1993095,99.0990184 L25.1993095,71.3882206 C25.1993095,70.7319249 25.7377421,70.2 26.3999079,70.2" id="Fill-13" fill="#3573C3" transform="translate(32.400000, 89.400000) scale(-1, 1) translate(-32.400000, -89.400000) "></path>
        </g>
    </g>
</svg>