<?xml version="1.0" encoding="UTF-8"?>
<svg width="25px" height="40px" viewBox="0 0 25 40" version="1.1" xmlns="http://www.w3.org/2000/svg" xmlns:xlink="http://www.w3.org/1999/xlink">
    <!-- Generator: Sketch 49.3 (51167) - http://www.bohemiancoding.com/sketch -->
    <title>fa-map-marker</title>
    <desc>Created with Sketch.</desc>
    <defs></defs>
    <g id="99_SYMBOLS" stroke="none" stroke-width="1" fill="none" fill-rule="evenodd">
        <g id="QUERY-/-set" transform="translate(-16.000000, -330.000000)" fill="#3573C3">
            <g id="Group" transform="translate(0.000000, 318.000000)">
                <path d="M34.75,24.6666667 C34.75,21.2242839 31.9423828,18.4166667 28.5,18.4166667 C25.0576172,18.4166667 22.25,21.2242839 22.25,24.6666667 C22.25,28.1090495 25.0576172,30.9166667 28.5,30.9166667 C31.9423828,30.9166667 34.75,28.1090495 34.75,24.6666667 Z M41,25.3333333 C41,26.921875 40.8291016,28.5625 40.1943359,29.9947917 L31.3076172,50.1510417 C30.7949219,51.296875 29.671875,52 28.5,52 C27.328125,52 26.2050781,51.296875 25.7167969,50.1510417 L16.8056641,29.9947917 C16.1708984,28.5625 16,26.921875 16,25.3333333 C16,17.9635417 21.5908203,12 28.5,12 C35.4091797,12 41,17.9635417 41,25.3333333 Z" id="fa-map-marker"></path>
            </g>
        </g>
    </g>
</svg>