<?xml version="1.0" encoding="UTF-8"?>
<svg width="32px" height="25px" viewBox="0 0 32 25" version="1.1" xmlns="http://www.w3.org/2000/svg" xmlns:xlink="http://www.w3.org/1999/xlink">
    <!-- Generator: Sketch 49.3 (51167) - http://www.bohemiancoding.com/sketch -->
    <title>Fill 11</title>
    <desc>Created with Sketch.</desc>
    <defs></defs>
    <g id="TRANSROAD" stroke="none" stroke-width="1" fill="none" fill-rule="evenodd">
        <g id="T_02_QUERY" transform="translate(-177.000000, -413.000000)" fill="#3573C3">
            <g id="Group-4" transform="translate(160.000000, 187.000000)">
                <g id="Group">
                    <g id="Group-2" transform="translate(0.000000, 206.000000)">
                        <path d="M17,21.5608878 L17,42.8951807 C17,43.7558639 17.7002046,44.4553489 18.5608878,44.4553489 L47.4391122,44.4553489 C48.300515,44.4553489 49,43.7558639 49,42.8951807 L49,21.5608878 C49,20.7002046 48.300515,20 47.4391122,20 L37.4232352,20 L37.4232352,26.5040592 L28.5774844,26.5040592 L28.5774844,20 L18.5608878,20 C17.7002046,20 17,20.7002046 17,21.5608878 Z M30.1383723,24.9431713 L35.8616277,24.9431713 L35.8616277,20 L30.1383723,20 L30.1383723,24.9431713 Z" id="Fill-11"></path>
                    </g>
                </g>
            </g>
        </g>
    </g>
</svg>